<svg width="24" height="24" viewBox="0 0 24 24" fill="none" xmlns="http://www.w3.org/2000/svg">
<path fill-rule="evenodd" clip-rule="evenodd" d="M17.2248 18.639L20.2929 21.7071L21.7071 20.2928L3.70711 2.29285L2.29289 3.70706L4.90669 6.32086C3.14593 7.59219 2 9.66225 2 12C2 15.8659 5.13401 19 9 19H15C15.7778 19 16.5259 18.8731 17.2248 18.639ZM15.5553 16.9695L14.032 15.4461C13.4365 15.798 12.7418 16 12 16C9.79086 16 8 14.2091 8 12C8 11.2581 8.20193 10.5635 8.55382 9.96799L6.34693 7.7611C4.93725 8.64528 4 10.2132 4 12C4 14.7614 6.23858 17 9 17H15C15.1877 17 15.373 16.9896 15.5553 16.9695ZM10.0677 11.4819C10.0236 11.6471 10 11.8208 10 12C10 13.1045 10.8954 14 12 14C12.1792 14 12.3528 13.9764 12.518 13.9322L10.0677 11.4819ZM22 12C22 13.8276 21.2996 15.4916 20.1525 16.7383L18.7366 15.3223C19.5225 14.4391 20 13.2753 20 12C20 9.23853 17.7614 6.99995 15 6.99995H10.4142L8.43656 5.0223C8.62242 5.0075 8.81033 4.99995 9 4.99995H15C18.866 4.99995 22 8.13396 22 12ZM16 12C16 12.186 15.9873 12.3691 15.9627 12.5484L11.4515 8.03725C11.6308 8.01266 11.8139 7.99995 12 7.99995C14.2091 7.99995 16 9.79081 16 12Z" fill="#582828"/>
</svg>
