<svg width="375" height="476" viewBox="0 0 375 476" fill="none" xmlns="http://www.w3.org/2000/svg">
<path opacity="0.48" d="M135.806 392.935C73.8496 389.523 12.3987 378.433 -46.6303 360.067C-63.0243 354.949 -79.4715 349.164 -93.3638 339.354C-107.256 329.544 -118.487 315.096 -120.669 298.542C-121.601 291.398 -120.696 283.668 -116.252 277.857C-107.496 266.367 -89.7976 266.981 -75.3464 269.62C-39.8971 276.071 -5.45902 287.746 26.3709 304.14C-24.6208 282.442 -74.202 246.961 -89.5581 195.06C-91.5275 188.422 -92.8848 181.438 -91.9533 174.587C-89.3718 155.874 -69.518 142.759 -50.0635 141.533C-30.6355 140.307 -11.8995 148.33 4.97351 157.714C34.0356 173.894 60.3565 194.713 82.499 219.078C33.4501 194.9 4.46786 143.425 -8.22684 91.4976C-9.77043 85.2332 -11.1011 78.6222 -9.47769 72.3578C-6.04453 59.2426 9.79057 52.0719 23.6297 53.5647C37.4688 55.0575 49.5779 63.0279 60.596 71.2383C99.9309 100.534 134.875 137.534 151.854 182.771C115.952 145.265 104.695 87.2591 124.043 39.4365C129.312 26.4012 137.11 13.6858 149.246 6.08857C161.408 -1.50868 178.627 -2.62827 189.645 6.35513C198.322 13.4459 201.489 24.9084 203.804 35.7045C214.157 84.3002 216.073 134.629 209.473 183.917C208.541 141.319 223.658 98.4817 251.336 65.2404C265.627 48.0733 283.246 33.5453 302.86 22.376C331.603 6.03525 364.87 35.2247 350.685 64.4407C350.578 64.654 350.498 64.8406 350.392 65.0538C329.394 107.945 298.069 146.064 259.639 175.494C283.246 139.107 316.885 108.878 356.087 88.8319C371.204 81.1013 389.328 74.8103 404.95 81.4212C425.229 90.0048 430.632 117.248 422.062 137.108C413.493 156.967 395.183 171.069 377.618 184.237C348.422 206.149 319.254 228.061 290.059 249.973C332.933 217.345 378.336 183.571 432.096 175.201C442.794 173.521 454.957 173.308 463.074 180.212C472.708 188.422 472.309 203.857 465.709 214.6C459.109 225.342 447.878 232.486 437.019 239.257C401.277 261.569 365.535 283.881 329.819 306.193C369.5 280.496 415.143 253.572 461.663 263.355C476.461 266.474 491.79 275.004 495.276 289.292C499.322 305.9 485.722 321.707 471.484 331.837C439.042 354.949 399.175 365.398 360.319 375.395C287.69 394.081 210.511 412.741 138.76 391.682L135.806 392.935Z" fill="#FFEEE2"/>
<path d="M121.196 260.932C114.541 259.43 108.865 258.27 107.612 258.179C93.9585 257.132 80.0775 258.588 67.0399 262.912C-4.5531 286.76 2.35319 381.401 15.1857 440.133C15.6643 442.295 19.3796 461.66 21.0207 461.728C21.0207 461.728 51.1987 463.048 92.7733 464.868C93.571 395.919 97.1723 326.764 121.196 260.932Z" fill="#ED7E1C"/>
<path d="M235.253 293.382C228.62 299.753 221.349 305.533 213.44 310.244C198.009 319.437 176.72 324.102 159.283 322.145C133.527 319.278 135.1 286.214 146.246 267.85C146.77 267.008 132.57 263.458 121.173 260.909C97.1724 326.764 93.5711 395.919 92.7733 464.868C125.96 466.325 166.395 468.077 204.573 469.761C219.252 409.435 233.68 349.133 240.814 287.26C238.17 290.241 235.982 292.699 235.253 293.382Z" fill="white"/>
<path d="M368.524 344.195C368.569 328.516 365.88 311.746 360.045 297.159C343.018 254.606 286.036 236.971 253.122 273.061C252.575 273.675 245.897 281.435 240.814 287.238C233.68 349.133 219.252 409.435 204.573 469.738C272.314 472.696 332.875 475.336 332.898 475.336C333.263 475.336 341.24 453.126 342.243 450.828C346.642 440.702 350.563 430.371 353.982 419.857C360.364 400.219 365.606 379.443 367.749 358.872C368.227 354.116 368.501 349.201 368.524 344.195Z" fill="#ED7E1C"/>
<path d="M117.709 181.265C118.666 183.859 119.623 186.43 120.604 189.024C121.059 190.276 123.088 189.73 122.609 188.478C121.652 185.884 120.695 183.313 119.715 180.719C119.259 179.467 117.253 179.991 117.709 181.265Z" fill="#4F3422"/>
<path d="M138.382 304.213C140.707 319.551 155.637 323.692 169.267 323.26C186.498 322.691 203.206 317.116 217.543 307.672C224.403 303.144 230.74 297.842 236.575 292.085C238.489 290.196 251.914 272.811 253.1 273.061C234.364 269.215 214.83 268.419 196.254 268.168C178.111 267.941 161.654 267.44 146.246 267.873C139.681 278.75 136.399 291.061 138.382 304.213Z" fill="#F6A460"/>
<path d="M259.869 376.03C256.587 401.494 250.023 426.411 240.336 450.214C239.834 451.465 241.84 451.989 242.341 450.76C252.097 426.798 258.638 401.699 261.943 376.03C262.126 374.711 260.029 374.711 259.869 376.03Z" fill="#4F3422"/>
<path d="M131.476 284.097C126.849 297.136 126.803 311.29 131.362 324.375C131.795 325.626 133.824 325.103 133.368 323.829C128.923 311.063 128.969 297.409 133.482 284.666C133.915 283.369 131.909 282.846 131.476 284.097Z" fill="#4F3422"/>
<path d="M143.533 333.636C156.617 338.779 172.184 336.913 185.495 333.75C199.923 330.314 214.716 324.443 225.885 314.476C226.888 313.589 225.406 312.11 224.403 312.997C213.508 322.736 198.989 328.403 184.926 331.748C171.956 334.82 156.822 336.663 144.08 331.634C142.85 331.133 142.303 333.136 143.533 333.636Z" fill="#4F3422"/>
<path d="M103.965 202.382C103.554 198.149 100.409 194.645 96.762 192.779C93.1152 190.89 88.9896 190.367 84.9552 189.866C75.7696 188.706 66.6068 187.545 57.4212 186.408C51.3583 185.634 44.999 184.746 40.1441 180.878C35.2892 177.009 32.8275 169.113 36.634 164.13C41.6712 157.553 53.2729 160.398 57.9911 153.571C61.5696 148.406 58.6065 140.828 53.8883 136.778C49.1701 132.727 43.1072 130.861 37.9332 127.47C30.3431 122.487 24.8727 114.067 23.2544 104.851C22.9581 103.213 22.7986 101.484 23.3 99.8907C24.4625 96.2498 28.8615 94.7251 32.44 95.5216C36.0413 96.318 39.05 98.7529 42.0587 100.96C47.0504 104.601 53.2501 107.832 59.0395 105.853C64.6694 103.941 67.8605 97.7744 69.5699 91.8807C71.2794 85.9642 72.1227 79.5926 75.4733 74.5181C79.0974 68.9885 85.5934 65.6434 91.9983 66.0303C98.4031 66.3944 104.512 70.4676 107.566 76.3841C110.256 81.6407 110.529 87.8074 111.714 93.6556C112.877 99.4811 115.521 105.671 120.763 107.992C124.615 109.698 129.014 108.947 133.208 108.879C137.402 108.811 142.189 109.858 144.263 113.681C145.471 115.933 145.448 118.664 145.288 121.235C144.514 133.114 141.459 144.697 140.32 156.552C139.157 168.385 140.16 181.106 146.656 190.89L103.965 202.382Z" fill="black"/>
<path d="M223.104 268.669L134.234 174.711C121.698 178.602 108.295 174.552 99.2238 165.495C91.1095 188.569 82.8128 228.005 105.332 258.338L127.396 236.675C127.396 236.675 136.057 263.822 144.605 290.492C152.605 315.455 183.239 324.602 203.662 308.15C203.935 307.922 204.209 307.718 204.459 307.49C221.372 293.791 238.056 284.484 223.104 268.669Z" fill="#F6A460"/>
<path d="M134.234 174.711L107.384 146.335C107.384 146.335 103.327 153.821 99.2238 165.495C108.318 174.575 121.698 178.602 134.234 174.711Z" fill="#F6A460"/>
<path d="M167.079 180.969C165.438 189.616 157.118 195.305 148.457 193.666C139.795 192.028 134.097 183.722 135.738 175.075C137.379 166.428 145.699 160.739 154.36 162.377C163.022 163.993 168.72 172.322 167.079 180.969Z" fill="#F6A460"/>
<path d="M148.343 184.837C151.238 179.763 154.155 174.711 157.141 169.682C157.825 168.522 156.024 167.475 155.34 168.635C152.354 173.642 149.437 178.716 146.542 183.791C145.881 184.974 147.682 186.021 148.343 184.837Z" fill="#4F3422"/>
<path d="M127.396 236.674L145.22 291.538L142.531 219.608L127.396 236.674Z" fill="#4F3422"/>
<path d="M94.1865 182.516C90.5168 192.028 87.3714 202.313 85.6619 212.349C85.5024 213.282 86.3457 213.896 87.189 213.532C90.9043 211.871 94.6424 210.21 98.3576 208.548C99.5885 208.002 98.5172 206.205 97.3092 206.751C93.5939 208.412 89.8558 210.073 86.1406 211.734C86.642 212.121 87.1662 212.508 87.6677 212.918C89.3772 202.86 92.5226 192.574 96.1923 183.085C96.6938 181.833 94.6652 181.287 94.1865 182.516Z" fill="#4F3422"/>
<path d="M115.954 180.149C117.116 183.449 118.302 186.749 119.464 190.048C119.92 191.3 121.926 190.754 121.47 189.502C120.307 186.202 119.122 182.903 117.96 179.603C117.527 178.352 115.498 178.898 115.954 180.149Z" fill="#4F3422"/>
<path d="M118.21 192.187C120.262 191.027 122.313 189.844 124.387 188.683C125.55 188.023 124.501 186.225 123.339 186.885C121.288 188.046 119.236 189.229 117.162 190.39C115.977 191.05 117.025 192.847 118.21 192.187Z" fill="#4F3422"/>
<path d="M108.729 170.911C113.242 175.758 119.35 178.352 125.983 178.238C127.328 178.215 127.328 176.122 125.983 176.167C119.874 176.281 114.381 173.937 110.21 169.454C109.276 168.453 107.794 169.932 108.729 170.911Z" fill="#4F3422"/>
<path d="M101.161 232.806C101.161 232.806 102.027 221.246 105.355 216.468C111.008 208.344 113.264 207.843 118.302 204.908C120.398 203.679 123.316 203.201 125.755 203.269C128.171 203.315 130.747 205.158 130.678 207.57C130.633 209.937 128.33 211.552 126.256 212.69C117.093 217.788 106.723 222.452 101.868 231.759L101.161 232.806Z" fill="#4F3422"/>
<path d="M132.342 202.564C133.733 205.59 133.687 208.981 132.274 212.008C131.704 213.214 133.505 214.26 134.074 213.054C135.852 209.3 135.852 205.295 134.143 201.517C133.573 200.311 131.795 201.358 132.342 202.564Z" fill="#4F3422"/>
<path d="M45.3865 353.639C43.1984 382.857 44.9079 413.031 50.4922 441.817C50.7429 443.136 52.7487 442.568 52.498 441.27C46.9365 412.689 45.2954 382.675 47.4607 353.639C47.5747 352.296 45.4777 352.296 45.3865 353.639Z" fill="#4F3422"/>
<path d="M161.244 218.106C160.856 218.197 164.344 225.433 166.782 230.735C167.466 232.192 168.104 233.739 169.358 234.763C170.589 235.787 172.549 236.22 174.19 235.309C176.31 234.149 176.925 231.282 176.082 229.37C175.216 227.459 173.347 226.275 171.546 225.183C168.173 223.112 161.244 218.106 161.244 218.106Z" fill="#C2B1FF"/>
<path d="M222.534 226.366C222.147 226.457 225.634 233.694 228.073 238.996C228.757 240.452 229.395 241.999 230.648 243.023C231.879 244.047 233.839 244.48 235.481 243.57C237.6 242.409 238.216 239.542 237.372 237.63C236.506 235.719 234.637 234.536 232.837 233.443C229.486 231.373 222.534 226.366 222.534 226.366Z" fill="#C2B1FF"/>
<path d="M64.9658 220.063C64.7151 219.767 59.7006 226.025 55.9853 230.508C54.9596 231.76 53.8656 233.011 53.4553 234.559C53.0678 236.129 53.5465 238.063 55.0508 239.155C57.0338 240.566 59.8829 239.861 61.2277 238.268C62.5725 236.675 62.846 234.467 63.0512 232.374C63.4615 228.46 64.9658 220.063 64.9658 220.063Z" fill="#C2B1FF"/>
<path d="M126.826 186.339C126.439 186.317 127.669 194.258 128.467 200.016C128.695 201.608 128.878 203.27 129.766 204.612C130.655 205.955 132.41 206.911 134.234 206.524C136.604 206.023 138.018 203.452 137.767 201.381C137.493 199.31 136.057 197.626 134.644 196.056C132.023 193.143 126.826 186.339 126.826 186.339Z" fill="#C2B1FF"/>
<path d="M140.73 163.424C137.516 152.729 141.482 143.058 149.118 135.481C154.907 129.723 162.68 124.74 166.509 117.299C169.837 110.859 166.121 104.533 159.899 101.734C156.047 100.005 151.739 99.8453 147.614 99.5039C144.309 99.2309 140.092 99.686 141.117 94.9756C141.687 92.3587 143.032 89.4004 146.086 89.1274C147.408 89.0136 147.431 86.9201 146.086 87.0566C142.895 87.3297 140.912 89.4004 139.773 92.2904C138.793 94.748 137.676 98.9578 140.616 100.505C142.257 101.37 144.582 101.347 146.383 101.506C149.642 101.802 152.947 101.871 156.115 102.667C161.859 104.101 167.671 108.879 165.119 115.365C163.25 120.075 158.737 123.921 155.067 127.243C151.443 130.52 147.636 133.683 144.491 137.46C138.2 144.992 135.898 154.527 138.747 163.993C139.089 165.245 141.117 164.699 140.73 163.424Z" fill="#4F3422"/>
<path d="M47.0504 165.814C50.4921 165.518 52.817 163.493 54.9596 160.921C57.3984 158.031 60.0196 154.686 60.4527 150.818C61.2277 143.718 54.1162 139.326 47.8253 139.053C40.919 138.78 30.5938 141.283 26.1947 147.131C24.5536 149.316 23.3228 152.707 25.0323 155.232C26.3771 157.235 29.0439 157.804 30.9813 156.347C32.0298 155.551 31.0041 153.731 29.9328 154.55C26.3999 157.212 26.491 150.545 27.38 149.088C28.1321 147.882 29.2034 146.836 30.3431 146.016C31.893 144.901 33.6936 144.128 35.4943 143.491C40.3036 141.761 46.207 140.168 51.2443 141.67C56.4411 143.195 59.8601 148.019 57.6036 153.321C55.9397 157.258 51.7002 163.356 47.0504 163.743C45.7284 163.857 45.7284 165.928 47.0504 165.814Z" fill="#4F3422"/>
<rect x="245" y="203" width="116" height="116" rx="58" fill="white"/>
<g filter="url(#filter0_ddddd_2702_351)">
<rect x="255" y="213" width="96" height="96" rx="48" fill="#C0A091"/>
<path fill-rule="evenodd" clip-rule="evenodd" d="M327 241C329.209 241 331 242.791 331 245L331 257C331 259.209 329.209 261 327 261C324.791 261 323 259.209 323 257L323 245C323 242.791 324.791 241 327 241Z" fill="#4F3422"/>
<path fill-rule="evenodd" clip-rule="evenodd" d="M279 241C281.209 241 283 242.791 283 245L283 257C283 259.209 281.209 261 279 261C276.791 261 275 259.209 275 257L275 245C275 242.791 276.791 241 279 241Z" fill="#4F3422"/>
<path fill-rule="evenodd" clip-rule="evenodd" d="M275 277C275 274.791 276.791 273 279 273H327C329.209 273 331 274.791 331 277C331 279.209 329.209 281 327 281H279C276.791 281 275 279.209 275 277Z" fill="#4F3422"/>
</g>
<rect x="189" y="89" width="80" height="80" rx="40" fill="white"/>
<g filter="url(#filter1_ddddd_2702_351)">
<rect x="197" y="97" width="64" height="64" rx="32" fill="#C2B1FF"/>
<path fill-rule="evenodd" clip-rule="evenodd" d="M237.781 113.781C238.822 112.74 240.511 112.74 241.552 113.781L249.552 121.781C250.594 122.822 250.594 124.511 249.552 125.552C248.511 126.594 246.822 126.594 245.781 125.552L237.781 117.552C236.74 116.511 236.74 114.822 237.781 113.781Z" fill="#3C357C"/>
<path fill-rule="evenodd" clip-rule="evenodd" d="M249.552 113.781C250.594 114.822 250.594 116.511 249.552 117.552L241.552 125.552C240.511 126.594 238.822 126.594 237.781 125.552C236.74 124.511 236.74 122.822 237.781 121.781L245.781 113.781C246.822 112.74 248.511 112.74 249.552 113.781Z" fill="#3C357C"/>
<path fill-rule="evenodd" clip-rule="evenodd" d="M208.448 113.781C209.489 112.74 211.178 112.74 212.219 113.781L220.219 121.781C221.26 122.822 221.26 124.511 220.219 125.552C219.178 126.594 217.489 126.594 216.448 125.552L208.448 117.552C207.406 116.511 207.406 114.822 208.448 113.781Z" fill="#3C357C"/>
<path fill-rule="evenodd" clip-rule="evenodd" d="M220.219 113.781C221.26 114.822 221.26 116.511 220.219 117.552L212.219 125.552C211.178 126.594 209.489 126.594 208.448 125.552C207.406 124.511 207.406 122.822 208.448 121.781L216.448 113.781C217.489 112.74 219.178 112.74 220.219 113.781Z" fill="#3C357C"/>
<path fill-rule="evenodd" clip-rule="evenodd" d="M219.26 134.973C222.054 132.829 225.478 131.667 229 131.667C232.522 131.667 235.946 132.829 238.74 134.973C241.535 137.117 243.543 140.123 244.455 143.526C244.836 144.948 243.992 146.41 242.569 146.792C241.147 147.173 239.684 146.328 239.303 144.906C238.696 142.638 237.356 140.634 235.494 139.204C233.631 137.775 231.348 137 229 137C226.652 137 224.369 137.775 222.507 139.204C220.644 140.634 219.305 142.638 218.697 144.906C218.316 146.328 216.853 147.173 215.431 146.792C214.008 146.41 213.164 144.948 213.545 143.526C214.457 140.123 216.466 137.117 219.26 134.973Z" fill="#3C357C"/>
</g>
<rect x="30" y="287" width="60" height="60" rx="30" fill="white"/>
<g filter="url(#filter2_ddddd_2702_351)">
<rect x="36" y="293" width="48" height="48" rx="24" fill="#ED7E1C"/>
<path fill-rule="evenodd" clip-rule="evenodd" d="M52.695 321.48C54.7907 319.872 57.3585 319 60.0001 319C62.6417 319 65.2095 319.872 67.3052 321.48C69.401 323.088 70.9075 325.343 71.5912 327.894C71.8771 328.961 71.2439 330.058 70.177 330.344C69.1101 330.63 68.0134 329.996 67.7275 328.929C67.2717 327.228 66.2673 325.725 64.8702 324.653C63.473 323.581 61.7612 323 60.0001 323C58.239 323 56.5272 323.581 55.13 324.653C53.7328 325.725 52.7285 327.228 52.2727 328.929C51.9868 329.996 50.8901 330.63 49.8232 330.344C48.7563 330.058 48.1231 328.961 48.409 327.894C49.0927 325.343 50.5992 323.088 52.695 321.48Z" fill="#663600"/>
<path fill-rule="evenodd" clip-rule="evenodd" d="M48 307C49.1046 307 50 307.895 50 309V315C50 316.105 49.1046 317 48 317C46.8954 317 46 316.105 46 315V309C46 307.895 46.8954 307 48 307Z" fill="#663600"/>
<path fill-rule="evenodd" clip-rule="evenodd" d="M72 307C73.1046 307 74 307.895 74 309V315C74 316.105 73.1046 317 72 317C70.8954 317 70 316.105 70 315V309C70 307.895 70.8954 307 72 307Z" fill="#663600"/>
</g>
<defs>
<filter id="filter0_ddddd_2702_351" x="250.8" y="212.2" width="104.4" height="111.6" filterUnits="userSpaceOnUse" color-interpolation-filters="sRGB">
<feFlood flood-opacity="0" result="BackgroundImageFix"/>
<feColorMatrix in="SourceAlpha" type="matrix" values="0 0 0 0 0 0 0 0 0 0 0 0 0 0 0 0 0 0 127 0" result="hardAlpha"/>
<feOffset/>
<feColorMatrix type="matrix" values="0 0 0 0 1 0 0 0 0 0.807843 0 0 0 0 0.360784 0 0 0 0.1 0"/>
<feBlend mode="normal" in2="BackgroundImageFix" result="effect1_dropShadow_2702_351"/>
<feColorMatrix in="SourceAlpha" type="matrix" values="0 0 0 0 0 0 0 0 0 0 0 0 0 0 0 0 0 0 127 0" result="hardAlpha"/>
<feOffset dy="0.6"/>
<feGaussianBlur stdDeviation="0.7"/>
<feColorMatrix type="matrix" values="0 0 0 0 1 0 0 0 0 0.807843 0 0 0 0 0.360784 0 0 0 0.1 0"/>
<feBlend mode="normal" in2="effect1_dropShadow_2702_351" result="effect2_dropShadow_2702_351"/>
<feColorMatrix in="SourceAlpha" type="matrix" values="0 0 0 0 0 0 0 0 0 0 0 0 0 0 0 0 0 0 127 0" result="hardAlpha"/>
<feOffset dy="2.6"/>
<feGaussianBlur stdDeviation="1.3"/>
<feColorMatrix type="matrix" values="0 0 0 0 1 0 0 0 0 0.807843 0 0 0 0 0.360784 0 0 0 0.09 0"/>
<feBlend mode="normal" in2="effect2_dropShadow_2702_351" result="effect3_dropShadow_2702_351"/>
<feColorMatrix in="SourceAlpha" type="matrix" values="0 0 0 0 0 0 0 0 0 0 0 0 0 0 0 0 0 0 127 0" result="hardAlpha"/>
<feOffset dy="6"/>
<feGaussianBlur stdDeviation="1.8"/>
<feColorMatrix type="matrix" values="0 0 0 0 1 0 0 0 0 0.807843 0 0 0 0 0.360784 0 0 0 0.05 0"/>
<feBlend mode="normal" in2="effect3_dropShadow_2702_351" result="effect4_dropShadow_2702_351"/>
<feColorMatrix in="SourceAlpha" type="matrix" values="0 0 0 0 0 0 0 0 0 0 0 0 0 0 0 0 0 0 127 0" result="hardAlpha"/>
<feOffset dy="10.6"/>
<feGaussianBlur stdDeviation="2.1"/>
<feColorMatrix type="matrix" values="0 0 0 0 1 0 0 0 0 0.807843 0 0 0 0 0.360784 0 0 0 0.01 0"/>
<feBlend mode="normal" in2="effect4_dropShadow_2702_351" result="effect5_dropShadow_2702_351"/>
<feBlend mode="normal" in="SourceGraphic" in2="effect5_dropShadow_2702_351" result="shape"/>
</filter>
<filter id="filter1_ddddd_2702_351" x="192.8" y="96.2" width="72.4" height="79.6" filterUnits="userSpaceOnUse" color-interpolation-filters="sRGB">
<feFlood flood-opacity="0" result="BackgroundImageFix"/>
<feColorMatrix in="SourceAlpha" type="matrix" values="0 0 0 0 0 0 0 0 0 0 0 0 0 0 0 0 0 0 127 0" result="hardAlpha"/>
<feOffset/>
<feColorMatrix type="matrix" values="0 0 0 0 1 0 0 0 0 0.807843 0 0 0 0 0.360784 0 0 0 0.1 0"/>
<feBlend mode="normal" in2="BackgroundImageFix" result="effect1_dropShadow_2702_351"/>
<feColorMatrix in="SourceAlpha" type="matrix" values="0 0 0 0 0 0 0 0 0 0 0 0 0 0 0 0 0 0 127 0" result="hardAlpha"/>
<feOffset dy="0.6"/>
<feGaussianBlur stdDeviation="0.7"/>
<feColorMatrix type="matrix" values="0 0 0 0 1 0 0 0 0 0.807843 0 0 0 0 0.360784 0 0 0 0.1 0"/>
<feBlend mode="normal" in2="effect1_dropShadow_2702_351" result="effect2_dropShadow_2702_351"/>
<feColorMatrix in="SourceAlpha" type="matrix" values="0 0 0 0 0 0 0 0 0 0 0 0 0 0 0 0 0 0 127 0" result="hardAlpha"/>
<feOffset dy="2.6"/>
<feGaussianBlur stdDeviation="1.3"/>
<feColorMatrix type="matrix" values="0 0 0 0 1 0 0 0 0 0.807843 0 0 0 0 0.360784 0 0 0 0.09 0"/>
<feBlend mode="normal" in2="effect2_dropShadow_2702_351" result="effect3_dropShadow_2702_351"/>
<feColorMatrix in="SourceAlpha" type="matrix" values="0 0 0 0 0 0 0 0 0 0 0 0 0 0 0 0 0 0 127 0" result="hardAlpha"/>
<feOffset dy="6"/>
<feGaussianBlur stdDeviation="1.8"/>
<feColorMatrix type="matrix" values="0 0 0 0 1 0 0 0 0 0.807843 0 0 0 0 0.360784 0 0 0 0.05 0"/>
<feBlend mode="normal" in2="effect3_dropShadow_2702_351" result="effect4_dropShadow_2702_351"/>
<feColorMatrix in="SourceAlpha" type="matrix" values="0 0 0 0 0 0 0 0 0 0 0 0 0 0 0 0 0 0 127 0" result="hardAlpha"/>
<feOffset dy="10.6"/>
<feGaussianBlur stdDeviation="2.1"/>
<feColorMatrix type="matrix" values="0 0 0 0 1 0 0 0 0 0.807843 0 0 0 0 0.360784 0 0 0 0.01 0"/>
<feBlend mode="normal" in2="effect4_dropShadow_2702_351" result="effect5_dropShadow_2702_351"/>
<feBlend mode="normal" in="SourceGraphic" in2="effect5_dropShadow_2702_351" result="shape"/>
</filter>
<filter id="filter2_ddddd_2702_351" x="31.8" y="292.2" width="56.4" height="63.6" filterUnits="userSpaceOnUse" color-interpolation-filters="sRGB">
<feFlood flood-opacity="0" result="BackgroundImageFix"/>
<feColorMatrix in="SourceAlpha" type="matrix" values="0 0 0 0 0 0 0 0 0 0 0 0 0 0 0 0 0 0 127 0" result="hardAlpha"/>
<feOffset/>
<feColorMatrix type="matrix" values="0 0 0 0 1 0 0 0 0 0.807843 0 0 0 0 0.360784 0 0 0 0.1 0"/>
<feBlend mode="normal" in2="BackgroundImageFix" result="effect1_dropShadow_2702_351"/>
<feColorMatrix in="SourceAlpha" type="matrix" values="0 0 0 0 0 0 0 0 0 0 0 0 0 0 0 0 0 0 127 0" result="hardAlpha"/>
<feOffset dy="0.6"/>
<feGaussianBlur stdDeviation="0.7"/>
<feColorMatrix type="matrix" values="0 0 0 0 1 0 0 0 0 0.807843 0 0 0 0 0.360784 0 0 0 0.1 0"/>
<feBlend mode="normal" in2="effect1_dropShadow_2702_351" result="effect2_dropShadow_2702_351"/>
<feColorMatrix in="SourceAlpha" type="matrix" values="0 0 0 0 0 0 0 0 0 0 0 0 0 0 0 0 0 0 127 0" result="hardAlpha"/>
<feOffset dy="2.6"/>
<feGaussianBlur stdDeviation="1.3"/>
<feColorMatrix type="matrix" values="0 0 0 0 1 0 0 0 0 0.807843 0 0 0 0 0.360784 0 0 0 0.09 0"/>
<feBlend mode="normal" in2="effect2_dropShadow_2702_351" result="effect3_dropShadow_2702_351"/>
<feColorMatrix in="SourceAlpha" type="matrix" values="0 0 0 0 0 0 0 0 0 0 0 0 0 0 0 0 0 0 127 0" result="hardAlpha"/>
<feOffset dy="6"/>
<feGaussianBlur stdDeviation="1.8"/>
<feColorMatrix type="matrix" values="0 0 0 0 1 0 0 0 0 0.807843 0 0 0 0 0.360784 0 0 0 0.05 0"/>
<feBlend mode="normal" in2="effect3_dropShadow_2702_351" result="effect4_dropShadow_2702_351"/>
<feColorMatrix in="SourceAlpha" type="matrix" values="0 0 0 0 0 0 0 0 0 0 0 0 0 0 0 0 0 0 127 0" result="hardAlpha"/>
<feOffset dy="10.6"/>
<feGaussianBlur stdDeviation="2.1"/>
<feColorMatrix type="matrix" values="0 0 0 0 1 0 0 0 0 0.807843 0 0 0 0 0.360784 0 0 0 0.01 0"/>
<feBlend mode="normal" in2="effect4_dropShadow_2702_351" result="effect5_dropShadow_2702_351"/>
<feBlend mode="normal" in="SourceGraphic" in2="effect5_dropShadow_2702_351" result="shape"/>
</filter>
</defs>
</svg>
