<svg width="167" height="153" viewBox="0 0 167 153" fill="none" xmlns="http://www.w3.org/2000/svg">
<path d="M21.1151 51.347C20.1534 50.7662 19.2137 50.1416 18.3294 49.4402C17.6882 48.9361 16.2954 48.0704 15.9748 47.3143C15.3116 45.7582 17.854 46.5143 18.7605 46.6568C19.8549 46.8321 20.9493 47.0293 22.0436 47.2375C22.3863 47.3033 22.6185 46.9855 22.4748 46.6896C21.1593 43.8733 20.2971 40.9364 19.8328 37.868C19.6449 38.0105 19.4569 38.153 19.2801 38.2954C21.502 39.9173 23.7018 41.572 25.8684 43.2596C26.1559 43.4788 26.6091 43.2925 26.4985 42.898C25.9127 40.6625 25.8684 38.4708 26.388 36.2243C26.178 36.2791 25.9679 36.3338 25.7579 36.3886C27.4161 38.142 29.0742 39.8844 30.7324 41.6378C31.064 41.9884 31.6056 41.4624 31.274 41.1008C29.6159 39.3474 27.9577 37.605 26.2996 35.8517C26.1116 35.6544 25.7247 35.7421 25.6695 36.0161C25.1167 38.394 25.1499 40.7392 25.78 43.0952C25.99 42.9747 26.2001 42.8542 26.4101 42.7336C24.1882 41.0022 21.9442 39.3146 19.667 37.6489C19.3685 37.4297 19.07 37.7913 19.1142 38.0762C19.5785 41.2104 20.485 44.202 21.8226 47.0732C21.9663 46.8869 22.11 46.7006 22.2537 46.5252C20.4297 46.1746 18.6057 45.8458 16.7707 45.6157C16.008 45.5171 14.9799 45.3308 14.7257 46.2622C14.4493 47.2923 15.8643 48.2896 16.4833 48.8594C17.7877 50.0539 19.2248 51.084 20.7392 52.0045C21.1482 52.2456 21.5351 51.599 21.1151 51.347Z" fill="#FFBD1A"/>
<path d="M154.663 36.4544C155.448 33.8791 156.719 31.5669 158.466 29.5176C158.244 29.43 158.034 29.3423 157.813 29.2546C158.012 31.7093 158.211 34.164 158.41 36.6187C158.432 36.9585 158.797 37.1009 159.062 36.8817C162.147 34.3723 165.474 32.1915 169.011 30.3505C168.823 30.208 168.636 30.0656 168.459 29.9231C168.083 32.6627 167.353 35.2928 166.237 37.8351C166.093 38.1529 166.403 38.5694 166.756 38.3502C169.056 36.9146 171.521 35.9503 174.174 35.4243C174.019 35.2709 173.864 35.1174 173.709 34.964C172.814 37.4516 171.62 39.7638 170.139 41.9555C169.863 42.361 170.526 42.7336 170.791 42.3391C172.317 40.0926 173.522 37.7146 174.439 35.1613C174.55 34.8654 174.229 34.6462 173.975 34.701C171.244 35.238 168.724 36.2352 166.369 37.7036C166.546 37.879 166.712 38.0434 166.889 38.2187C168.028 35.6215 168.801 32.9367 169.188 30.1313C169.232 29.8135 168.945 29.5396 168.636 29.7039C165.043 31.5778 161.671 33.7915 158.543 36.3448C158.764 36.4325 158.974 36.5201 159.195 36.6078C158.996 34.1531 158.797 31.6984 158.598 29.2437C158.576 28.9478 158.178 28.7067 157.946 28.9807C156.111 31.1285 154.773 33.5504 153.944 36.2462C153.79 36.7174 154.519 36.9146 154.663 36.4544Z" fill="#FFBD1A"/>
<path d="M89.4865 8.3677C89.1438 6.07737 89.1217 3.81992 89.387 1.51864C89.1659 1.60631 88.9559 1.69398 88.7348 1.78164C90.4925 3.68842 92.2391 5.60616 93.9967 7.51293C94.2067 7.74306 94.5273 7.58964 94.6268 7.34856C95.688 4.8281 97.1914 2.60353 99.1259 0.663877C98.9159 0.609085 98.7058 0.554292 98.4958 0.4995C98.8164 2.49395 99.137 4.49935 99.4575 6.4938C99.5128 6.85543 99.9771 6.81159 100.154 6.58146C101.724 4.46647 103.636 2.71312 105.891 1.32139C105.703 1.2118 105.515 1.10222 105.316 0.992632C105.184 3.1405 104.852 5.23357 104.332 7.31568C104.211 7.7869 104.94 7.98415 105.062 7.51293C105.604 5.36507 105.935 3.19529 106.079 0.981674C106.101 0.696753 105.747 0.510458 105.504 0.652919C103.139 2.1104 101.149 3.96238 99.5018 6.176C99.7339 6.20887 99.966 6.23079 100.198 6.26367C99.8776 4.26922 99.557 2.26382 99.2365 0.269372C99.1922 -0.0155491 98.7832 -0.0813001 98.6064 0.104994C96.5724 2.14327 95.0247 4.47743 93.9083 7.11843C94.1183 7.06364 94.3283 7.00884 94.5384 6.95405C92.7807 5.04727 91.0341 3.12954 89.2765 1.22276C89.0333 0.959756 88.6575 1.18988 88.6243 1.48576C88.359 3.8528 88.4032 6.176 88.7569 8.53207C88.8233 9.03616 89.5529 8.83891 89.4865 8.3677Z" fill="#FFBD1A"/>
<path d="M187.362 133.842C183.857 137.897 172.825 134.248 162.721 125.678C152.618 117.109 147.256 106.874 150.761 102.819C154.265 98.7644 165.297 102.414 175.401 110.983C185.504 119.553 190.866 129.788 187.362 133.842Z" fill="#4F3422"/>
<path d="M115.629 137.459C112.125 141.513 101.093 137.864 90.9893 129.295C80.8856 120.725 75.5243 110.49 79.0285 106.435C82.5327 102.381 93.565 106.03 103.669 114.599C113.772 123.158 119.134 133.393 115.629 137.459Z" fill="#4F3422"/>
<path d="M148.007 61.9875C152.584 56.311 161.903 49.8126 168.922 47.7414C175.953 45.6703 184.133 46.7113 189.66 51.4783C195.873 56.8479 197.708 65.6367 197.962 73.8007C198.537 91.422 193.363 114.205 188.433 131.147C186.112 124.013 178.716 113.449 172.471 109.219C166.225 104.978 157.824 103.564 150.904 106.61C145.985 108.78 142.182 112.977 139.739 117.733C137.296 122.478 137.849 96.4081 137.108 101.679C134.665 101.044 132.001 108.265 129.558 107.63C129.558 107.63 119.244 128.538 116.315 135.87C112.976 128.199 104.254 119.969 96.3837 116.944C88.5241 113.92 80.0233 113.021 71.6331 112.144C75.7342 104.846 79.8575 97.5368 83.1848 89.8659C84.9978 85.7017 86.5785 81.4278 88.7341 77.428C96.638 62.7546 113.065 52.5084 129.823 53.4618C137.727 53.9111 146.04 57.2315 149.887 64.0915L148.007 61.9875Z" fill="#FFBD1A"/>
<path d="M110.457 130.895C106.698 143.935 95.3232 154.521 81.9585 157.403C74.9279 158.926 67.411 157.907 62.7682 151.968C52.0565 138.291 58.9213 116.451 63.1551 101.701C68.3285 83.6744 75.3591 61.604 86.3581 46.3607C86.3581 46.3607 83.6166 42.8101 80.8531 36.1693C79.5597 33.0461 79.3939 29.4956 80.6099 26.3505C81.8258 23.2054 85.6727 20.926 88.7569 22.3287C87.6294 20.6959 89.0112 18.3179 90.8793 17.6604C92.7586 17.0029 94.8257 17.5289 96.7381 18.0659C95.489 16.981 96.1191 14.7564 97.5451 13.9126C98.9711 13.0688 100.773 13.2441 102.387 13.6167C106.809 14.6468 110.888 17.0358 114.005 20.3014C115.763 22.1424 113.994 25.1341 111.529 24.4766C108.279 23.6109 105.338 22.5479 102.995 21.4301C104.012 22.0986 107.03 24.2465 109.738 26.4929C111.894 28.2682 109.992 31.6763 107.317 30.8215C105.206 30.1531 103.282 29.3422 102.453 28.7942C106.422 32.8817 110.457 37.0898 112.778 42.2732C117.354 52.4646 114.547 64.2559 111.783 75.061C107.925 90.1837 104.664 108.693 101.259 123.925C101.27 123.925 107.472 126.906 110.457 130.895Z" fill="#F6A460"/>
<path d="M109.959 52.936C111.661 47.0951 113.275 40.5419 110.058 35.2819C107.704 31.4354 103.039 29.0903 98.2965 28.6191C93.5542 28.1479 88.7566 29.3424 84.4675 31.271C81.0628 32.8052 77.8791 34.7997 75.215 37.2982C67.8307 44.213 65.0671 54.2072 59.54 62.4808C56.9643 66.3382 52.5757 70.2285 47.8555 69.045C45.7663 68.519 44.1081 67.0724 42.1847 66.141C37.973 64.0917 32.689 64.6725 28.4552 66.6998C24.2214 68.7272 20.8719 72.0147 17.8209 75.4228C12.15 81.7678 7.10925 89.0442 6.05909 97.2302C5.00892 105.416 8.91111 114.599 17.025 117.964C19.7001 119.081 22.6516 119.509 25.5479 119.925C31.7825 120.835 38.802 122.259 42.0631 127.289C43.5886 129.634 44.0971 132.56 46.1642 134.522C47.4465 135.727 49.1931 136.429 50.9729 136.823C57.1965 138.182 63.7406 136.045 69.2015 132.966C72.7057 130.993 76.0331 128.539 78.0449 125.218C80.7422 120.78 80.7533 115.432 81.4939 110.38C82.0466 106.676 83.0194 103.016 84.4122 99.4986C85.0423 97.9096 85.783 96.3097 87.0653 95.1262C88.3476 93.9317 90.3042 93.2194 92.0287 93.7564C93.0567 94.0742 93.8969 94.7865 94.9028 95.181C97.1358 96.0576 99.7778 95.17 101.635 93.7344C106.93 89.6469 107.317 82.3486 107.04 75.9598C106.764 69.571 106.51 62.437 111.097 57.681L109.959 52.936Z" fill="#4F3422"/>
<path d="M87.5621 31.8848C76.7952 29.0794 66.6031 37.5284 61.5292 46.1746C58.9093 50.6567 56.8974 55.7524 52.94 59.3029C48.3192 63.4452 41.8525 63.9931 35.9605 62.9302C33.0311 62.4042 30.3117 61.2754 27.4376 60.5741C24.7956 59.9275 22.3305 60.2782 19.8764 61.407C14.8799 63.7082 10.0602 66.9629 7.15288 71.686C4.1461 76.5735 1.4599 82.6007 0.741365 88.2991C0.0781048 93.5811 1.2167 99.0713 3.93607 103.663C6.79914 108.485 11.3977 112.232 16.6817 114.15C23.2812 116.55 30.4112 115.662 37.2096 114.764C37.685 114.698 37.696 113.953 37.2096 114.008C31.2403 114.797 25.0277 115.619 19.1026 114.106C13.9513 112.791 9.27532 109.69 6.06956 105.482C2.67588 101.022 1.00667 95.3564 1.34935 89.7894C1.71415 83.9595 4.36719 78.0419 7.24132 73.012C10.0933 67.993 14.7914 64.6178 19.987 62.174C23.3143 60.607 26.2216 60.8809 29.6264 62.0097C32.1578 62.8425 34.7114 63.5439 37.3644 63.8945C41.8967 64.4863 46.7164 64.1247 50.7401 61.8124C54.6755 59.544 57.1517 55.6866 59.2741 51.8292C62.0929 46.7007 64.7792 41.7693 69.3446 37.9119C74.2527 33.7587 80.8632 30.9095 87.3521 32.5971C87.8275 32.7395 88.0375 32.0163 87.5621 31.8848Z" fill="#4F3422"/>
<path d="M21.646 115.202C25.6698 116.079 29.2625 118.259 31.9155 121.383C34.9334 124.944 35.6298 128.889 36.5141 133.305C37.2327 136.922 38.8798 139.902 42.185 141.754C45.2802 143.497 49.0387 144.242 52.554 144.483C59.1092 144.921 65.9629 143.058 71.0368 138.828C77.4594 133.459 78.8191 125.393 78.9186 117.47C78.9849 112.188 78.7196 106.928 79.2392 101.657C79.7587 96.3752 81.7485 90.2494 87.5741 88.7591C88.0495 88.6385 87.8505 87.9153 87.3752 88.0358C78.8744 90.2056 78.2774 100.594 78.1448 107.695C77.9679 116.451 79.416 126.478 74.2426 134.182C70.0862 140.374 62.5803 143.573 55.2402 143.793C51.4264 143.902 47.3695 143.31 43.8763 141.776C42.0302 140.965 40.3058 139.804 39.1451 138.149C37.7522 136.176 37.3543 133.766 36.9453 131.442C36.2267 127.322 34.9776 123.684 32.1366 120.506C29.4283 117.481 25.8246 115.366 21.845 114.49C21.3697 114.369 21.1707 115.103 21.646 115.202Z" fill="#4F3422"/>
<path d="M79.361 93.1426C82.8431 91.8605 85.1976 95.3782 86.6789 97.9205C87.8617 99.9369 89.1109 101.931 91.3328 102.918C95.6661 104.846 99.7672 102.359 102.033 98.6767C107.019 90.5783 107.152 78.9952 101.237 71.3681C100.939 70.9846 100.287 71.3681 100.585 71.7516C106.411 79.2582 106.3 90.8633 101.116 98.7205C99.6125 101 97.3464 102.863 94.4722 102.852C91.4102 102.841 89.3762 100.923 87.8838 98.4685C86.0709 95.4877 83.4732 90.8413 79.173 92.4303C78.7088 92.5837 78.9077 93.307 79.361 93.1426Z" fill="#4F3422"/>
<path d="M85.7719 33.1778C79.062 27.2711 69.4115 28.7944 62.2483 32.9805C58.0477 35.4352 54.2671 38.668 50.8071 42.0541C47.0818 45.7143 43.4891 51.6538 37.8293 52.3113C34.8336 52.662 31.2741 50.8538 31.4399 47.4676C31.5173 46.043 32.4237 44.4869 33.9161 44.1691C35.6184 43.8075 37.4977 45.0239 37.6082 46.7663C37.6414 47.2485 38.3931 47.2485 38.371 46.7663C38.1388 43.1171 33.087 42.2185 31.3183 45.3088C29.0522 49.2539 32.9212 53.0455 36.8455 53.1441C42.8811 53.2975 46.7723 47.2156 50.4976 43.4568C54.8861 39.0077 59.8716 34.701 65.631 32.0929C71.9098 29.2546 79.8137 28.9368 85.2524 33.7257C85.6061 34.0325 86.1478 33.5065 85.7719 33.1778Z" fill="#4F3422"/>
<path d="M101.017 30.3612C104.554 29.8681 107.903 31.9502 111.352 32.4324C113.972 32.794 116.647 32.6735 119.234 32.1146C124.529 30.9859 129.271 28.0052 132.831 23.9834C135.738 20.6959 139.729 15.6659 137.253 11.2168C135.197 7.53471 130.222 3.2061 125.646 3.69924C123.744 3.89649 122.197 5.43068 122.661 7.42512C123.136 9.4634 125.402 10.1209 127.138 9.21136C127.569 8.98123 127.182 8.33468 126.751 8.56481C123.844 10.0771 121.909 5.73751 124.905 4.61975C126.099 4.17045 127.492 4.51016 128.652 4.92659C131.228 5.85806 133.549 7.5895 135.274 9.68257C136.335 10.9757 137.463 12.6304 137.407 14.3728C137.363 15.8303 136.534 17.233 135.838 18.4713C134.589 20.7068 133.041 22.778 131.239 24.5971C127.337 28.5421 122.175 31.2379 116.592 31.7859C113.74 32.0708 110.91 31.7858 108.18 30.953C105.715 30.2078 103.448 29.2873 100.829 29.6489C100.331 29.7037 100.541 30.427 101.017 30.3612Z" fill="#4F3422"/>
<path d="M96.4384 60.5741C97.2896 62.2836 98.4061 63.9164 99.8763 65.3958L104.773 59.0618L111.616 73.0229C114.037 77.9652 120.471 79.4446 124.793 76.0036C124.859 75.9488 124.936 75.894 125.003 75.8283C129.104 72.5298 129.237 66.3602 125.334 62.8315L96.3389 36.6517C96.3389 36.6517 91.486 49.5827 96.1399 59.9275L96.4384 60.5741Z" fill="#F6A460"/>
<path d="M96.1414 59.9276C97.3242 56.114 99.4024 50.8211 102.84 53.1114C103.249 53.2868 102.763 55.4894 102 56.125C99.9551 57.4291 97.8769 58.8318 96.4398 60.5741L96.1414 59.9276Z" fill="#F6A460"/>
<path d="M96.1185 60.7602C97.047 62.5683 98.1967 64.1902 99.6117 65.6586C99.7996 65.8559 100.065 65.7682 100.209 65.5819C101.845 63.4669 103.47 61.3629 105.106 59.2479C104.885 59.2479 104.663 59.2479 104.453 59.2479C106.543 63.5108 108.632 67.7736 110.721 72.0255C111.838 74.2939 113.175 76.2664 115.574 77.3842C118.835 78.8965 122.516 78.3047 125.291 76.0911C125.667 75.7843 125.136 75.2583 124.749 75.5541C121.477 78.1732 116.724 78.1075 113.662 75.1706C112.247 73.8117 111.506 71.905 110.655 70.1735C108.809 66.4038 106.952 62.6341 105.106 58.8644C104.962 58.5794 104.608 58.6671 104.453 58.8644C102.817 60.9794 101.192 63.0834 99.5564 65.1984C99.7554 65.1765 99.9543 65.1436 100.153 65.1217C98.7826 63.6971 97.6771 62.13 96.7817 60.3766C96.5496 59.9493 95.8974 60.3328 96.1185 60.7602Z" fill="#4F3422"/>
<path d="M95.9747 36.553C93.2443 43.8842 92.6694 52.8702 95.8199 60.1137C96.0078 60.5521 96.6711 60.1795 96.4721 59.7302C93.4101 52.6729 94.0623 43.8733 96.7043 36.7502C96.8701 36.3009 96.1405 36.1037 95.9747 36.553Z" fill="#4F3422"/>
<path d="M96.1414 59.9274C96.2408 60.1466 96.3403 60.3548 96.4398 60.574C96.7936 60.1466 97.1805 59.7302 97.6116 59.3466C98.507 56.6399 100.22 54.3167 102.984 53.5057C102.973 53.3085 102.929 53.166 102.84 53.1222C99.4024 50.8209 97.3242 56.1138 96.1414 59.9274Z" fill="#4F3422"/>
<path d="M97.61 59.3467C98.9034 58.1522 100.462 57.1112 101.999 56.1249C102.596 55.6318 103.016 54.1962 102.982 53.4949C100.219 54.3168 98.5055 56.629 97.61 59.3467Z" fill="#ED7E1C"/>
<path d="M112.977 43.3801C112.866 45.6485 110.932 47.4018 108.644 47.3032C106.355 47.1936 104.587 45.2759 104.686 43.0075C104.797 40.7391 106.731 38.9857 109.02 39.0844C111.319 39.183 113.088 41.1007 112.977 43.3801Z" fill="#F6A460"/>
<path d="M108.411 45.0349C108.975 43.6322 109.539 42.2295 110.124 40.8378C110.312 40.3885 109.583 40.2022 109.395 40.6405C108.809 42.0322 108.245 43.4349 107.681 44.8376C107.493 45.2869 108.234 45.4842 108.411 45.0349Z" fill="#4F3422"/>
<path d="M104.774 59.0616L111.362 72.4529L108.057 54.1413L104.774 59.0616Z" fill="#4F3422"/>
<path d="M99.0262 47.0951C98.5288 48.2457 98.0424 49.3964 97.545 50.547C97.4123 50.8538 97.7108 51.3031 98.0645 51.0621C98.6614 50.6456 99.3026 50.3607 100.01 50.1963C100.485 50.0868 100.286 49.3635 99.8111 49.4731C99.0373 49.6484 98.3298 49.9662 97.6776 50.4155C97.8545 50.5908 98.0203 50.7552 98.1972 50.9306C98.6946 49.7799 99.181 48.6293 99.6784 47.4786C99.8664 47.0403 99.2142 46.6567 99.0262 47.0951Z" fill="#4F3422"/>
<path d="M95.0346 48.6511C94.7361 51.0948 94.4376 53.5276 94.1392 55.9713C94.1171 56.1686 94.3271 56.3659 94.515 56.3439C95.1783 56.2891 95.8968 55.8727 96.5048 55.6316C96.947 55.4563 96.7591 54.7221 96.3058 54.9084C95.7752 55.1166 95.0788 55.5549 94.515 55.5988C94.6366 55.7193 94.7693 55.8508 94.8909 55.9713C95.1893 53.5276 95.4878 51.0948 95.7863 48.6511C95.8526 48.1689 95.0899 48.1689 95.0346 48.6511Z" fill="#4F3422"/>
<path d="M96.8706 43.5445C97.6886 44.3007 98.772 44.6733 99.8885 44.5308C100.364 44.465 100.375 43.7199 99.8885 43.7747C98.9599 43.8952 98.0976 43.6432 97.4123 43.0076C97.0475 42.6898 96.5169 43.2158 96.8706 43.5445Z" fill="#4F3422"/>
<path d="M183.028 127.892C178.187 138.336 169.078 146.774 158.223 150.839C149.501 154.105 138.502 154.116 132.079 147.442C127.823 143.026 126.452 136.648 125.734 130.577C125.17 125.777 124.894 120.955 124.927 116.123C124.949 112.254 125.159 108.375 125.048 104.507C124.772 94.8413 123.976 84.8033 121.688 75.4009C118.88 63.8507 114.215 52.2347 105.714 43.8514C105.56 43.698 105.405 43.5665 105.261 43.435C103.924 42.2844 104.985 40.1146 106.731 40.3995C107.771 40.5748 108.832 40.9036 109.583 41.5392C113.176 44.5528 113.276 43.446 118.416 48.0924C114.713 45.1993 111.385 41.846 108.533 38.1311C107.748 37.101 108.644 35.6216 109.926 35.8846C113.408 36.6079 120.218 41.5063 124.153 43.9939C124.153 43.9939 113.895 35.4024 113.895 34.2737C113.895 32.3998 116.89 33.134 119.101 34.186C123.468 36.2791 129.713 40.1365 134.809 43.6213C135.882 44.3555 137.076 42.8652 136.103 41.9994C133.505 39.6872 130.145 37.8133 127.923 37.8023C127.503 37.8023 127.094 37.7476 126.718 37.5722C124.684 36.6079 125.778 34.734 127.127 34.4271C128.088 34.208 132.134 34.5258 133.052 34.8874C141.32 38.1421 143.951 41.5392 150.562 51.1498C154.486 56.8592 157.084 63.3466 159.206 69.9217C164.004 84.7814 168.735 98.9946 169.211 114.588C175.445 116.879 180.972 122.764 183.028 127.892Z" fill="#F6A460"/>
<path d="M125.533 124.308C125.069 116.681 125.622 109.043 125.301 101.416C125.003 94.085 124.373 86.7537 122.969 79.543C120.515 66.9298 115.861 53.8235 106.752 44.3772C106.022 43.6211 104.508 42.602 105.238 41.4294C106 40.2021 108.056 40.9911 108.985 41.5828C109.98 42.2184 110.842 43.0622 111.848 43.6978C114.092 45.1334 116.159 46.5799 118.149 48.3661C118.326 48.1908 118.503 48.0155 118.691 47.8292C116.38 46.0101 114.214 44.0375 112.213 41.8897C111.682 41.3198 111.163 40.739 110.654 40.1363C110.323 39.7528 108.863 38.3501 108.874 37.9336C109.295 37.3967 109.704 36.8488 110.124 36.3118C110.323 36.3666 110.533 36.4214 110.732 36.4871C111.284 36.6077 111.837 36.9145 112.346 37.1556C116.469 39.0952 120.161 41.8787 123.986 44.3115C124.339 44.5416 124.782 44.0046 124.45 43.7197C121.664 41.3856 118.901 39.0185 116.303 36.4871C115.794 35.994 114.833 35.2817 114.534 34.6132C113.76 32.8379 116.889 33.6927 117.729 33.9886C121.266 35.2488 124.605 37.4953 127.766 39.4569C129.447 40.4979 131.105 41.5609 132.741 42.6568C133.614 43.2376 134.885 44.6074 136.046 44.0375C138.776 42.7006 134.222 39.9719 133.227 39.3582C131.978 38.5912 130.618 37.8789 129.17 37.572C128.54 37.4405 127.833 37.5172 127.225 37.3419C124.959 36.6953 126.351 34.8762 127.799 34.7228C130.574 34.4379 133.227 35.2379 135.681 36.4104C142.292 39.5993 146.216 45.4621 150.24 51.314C150.516 51.7085 151.168 51.3359 150.892 50.9304C147.156 45.495 143.43 39.7418 137.472 36.4762C134.874 35.0516 132.487 34.1639 129.524 33.9886C127.987 33.9009 124.549 34.0215 125.29 36.5638C125.566 37.5282 126.617 37.9994 127.523 38.1309C129.889 38.4597 131.779 39.2158 133.758 40.5856C134.266 40.9363 134.753 41.3089 135.228 41.6924C135.549 41.9554 137.107 43.0841 135.018 43.2595C134.443 43.3143 132.663 41.6705 132.144 41.3308C130.176 40.0377 128.175 38.7774 126.152 37.5611C123.157 35.7748 119.641 33.2324 116.093 32.7612C114.501 32.553 112.81 33.4955 113.982 35.0954C115.474 37.1227 117.674 38.8103 119.553 40.4651C120.99 41.7362 122.449 42.9855 123.919 44.2238C124.074 44.0266 124.229 43.8293 124.384 43.6321C121.742 41.9445 119.166 40.1582 116.48 38.5364C115.209 37.7693 113.915 37.0131 112.567 36.3885C111.704 35.994 110.544 35.3584 109.56 35.4461C108.764 35.5118 108.09 36.1145 107.935 36.8926C107.714 38.0213 108.753 38.9418 109.394 39.7308C111.992 42.9088 114.954 45.769 118.182 48.3113C118.558 48.6072 119.089 48.1141 118.724 47.7744C116.889 46.1306 115.021 44.6622 112.909 43.38C110.931 42.1746 109.206 40.1473 106.763 39.961C105.028 39.8404 103.723 41.539 104.607 43.128C105.293 44.3553 106.807 45.3964 107.747 46.4593C109.051 47.9497 110.245 49.5277 111.351 51.1605C120.106 64.1683 123.245 80.3978 124.295 95.7287C124.947 105.241 124.24 114.742 124.826 124.243C124.804 124.791 125.567 124.791 125.533 124.308Z" fill="#4F3422"/>
<path d="M182.696 127.706C177.965 137.755 169.453 145.93 159.062 150.105C149.379 153.995 136.058 154.105 130.034 144.154C126.485 138.303 125.977 130.949 125.534 124.298C125.501 123.815 124.739 123.815 124.772 124.298C125.181 130.467 125.689 137.042 128.398 142.708C130.73 147.606 134.92 151.091 140.193 152.516C151.081 155.464 162.909 150.565 171.222 143.694C176.362 139.442 180.519 134.095 183.349 128.078C183.559 127.651 182.907 127.267 182.696 127.706Z" fill="#4F3422"/>
<path d="M104.951 42.876C106.167 43.0184 107.316 42.2294 107.681 41.0788C107.825 40.6185 107.095 40.4213 106.952 40.8815C106.686 41.7363 105.835 42.2294 104.951 42.1308C104.464 42.065 104.464 42.8212 104.951 42.876Z" fill="#4F3422"/>
<path d="M108.432 38.0983C109.825 38.7339 111.406 38.3284 112.323 37.112C112.622 36.7285 111.959 36.3449 111.671 36.7285C111.019 37.5942 109.803 37.8901 108.808 37.4408C108.377 37.2545 107.99 37.901 108.432 38.0983Z" fill="#4F3422"/>
<path d="M114.668 35.1721C115.839 35.3803 116.956 34.931 117.663 33.9776C117.951 33.5941 117.298 33.2106 117.011 33.5941C116.525 34.2516 115.673 34.5804 114.867 34.4379C114.391 34.3612 114.181 35.0845 114.668 35.1721Z" fill="#4F3422"/>
<path d="M126.053 35.8736C127.292 36.29 128.596 36.0161 129.58 35.1832C129.956 34.8654 129.414 34.3394 129.038 34.6462C128.253 35.3038 127.214 35.4681 126.252 35.1394C125.788 34.9969 125.589 35.7202 126.053 35.8736Z" fill="#4F3422"/>
<path d="M87.6403 23.0194C94.2729 23.4577 100.353 27.0192 103.945 32.5533C104.211 32.9587 104.863 32.5861 104.598 32.1697C100.85 26.3946 94.5493 22.7235 87.6403 22.2632C87.1539 22.2304 87.1539 22.9865 87.6403 23.0194Z" fill="#4F3422"/>
<path d="M96.0854 18.7453C98.5948 19.4686 100.971 20.4877 103.227 21.8027C103.647 22.0548 104.034 21.3973 103.613 21.1562C101.303 19.8083 98.8711 18.7563 96.2844 18.0221C95.8201 17.8796 95.6101 18.6029 96.0854 18.7453Z" fill="#4F3422"/>
<path d="M108.08 25.8026C107.704 27.4244 108.953 29.0572 110.623 29.1449C111.109 29.1668 111.109 28.4216 110.623 28.3888C109.451 28.323 108.544 27.1285 108.81 25.9998C108.92 25.5286 108.191 25.3313 108.08 25.8026Z" fill="#4F3422"/>
<path d="M112.413 19.14C111.816 20.6632 112.811 22.4714 114.414 22.8111C114.889 22.9097 115.088 22.1864 114.613 22.0878C113.386 21.8248 112.689 20.4879 113.143 19.3372C113.32 18.8879 112.59 18.7016 112.413 19.14Z" fill="#4F3422"/>
<path d="M101.933 121.744C101.005 125.317 100.441 128.933 100.242 132.615C100.22 133.097 100.972 133.097 101.005 132.615C101.193 128.999 101.756 125.448 102.663 121.942C102.784 121.481 102.055 121.284 101.933 121.744Z" fill="#4F3422"/>
<path d="M119.367 55.9274C120.218 55.4014 121.069 54.8754 121.931 54.3604C122.351 54.1083 121.965 53.4508 121.545 53.7138C120.693 54.2398 119.842 54.7549 118.98 55.2809C118.571 55.5329 118.958 56.1795 119.367 55.9274Z" fill="#FFBD1A"/>
<path d="M125.136 52.0373C125.81 51.5113 126.484 50.9743 127.159 50.4483C127.546 50.1525 127.004 49.6155 126.617 49.9114C125.943 50.4374 125.268 50.9743 124.594 51.5003C124.218 51.8072 124.76 52.3332 125.136 52.0373Z" fill="#FFBD1A"/>
<path d="M130.188 48.9689C130.962 48.5415 131.736 48.1142 132.51 47.6868C132.941 47.4457 132.554 46.7991 132.123 47.0402C131.349 47.4676 130.575 47.895 129.802 48.3224C129.381 48.5525 129.757 49.199 130.188 48.9689Z" fill="#FFBD1A"/>
<path d="M139.806 43.9062C140.414 43.9062 141.011 43.9062 141.619 43.9062C142.106 43.9062 142.106 43.1501 141.619 43.1501C141.011 43.1501 140.414 43.1501 139.806 43.1501C139.32 43.1501 139.32 43.9062 139.806 43.9062Z" fill="#FFBD1A"/>
<path d="M82.7538 26.6466C83.2512 26.1973 83.7597 25.759 84.2572 25.3097C84.622 24.9809 84.0803 24.4549 83.7155 24.7727C83.2181 25.222 82.7096 25.6603 82.2121 26.1096C81.8473 26.4384 82.389 26.9644 82.7538 26.6466Z" fill="#FFBD1A"/>
<path d="M90.4918 20.4985C91.0445 19.8629 91.7077 19.3698 92.4815 19.0191C92.9237 18.8109 92.5368 18.1643 92.0946 18.3726C91.2766 18.7561 90.547 19.2931 89.9501 19.9725C89.6406 20.3232 90.1712 20.8601 90.4918 20.4985Z" fill="#FFBD1A"/>
<path d="M99.7445 15.7429C100.662 15.184 101.58 14.6251 102.497 14.0772C102.917 13.8252 102.53 13.1786 102.11 13.4306C101.193 13.9895 100.275 14.5484 99.3576 15.0963C98.9486 15.3484 99.3355 15.9949 99.7445 15.7429Z" fill="#FFBD1A"/>
<path d="M101.37 50.0646C102.078 51.7851 103.294 53.3084 104.819 54.3933C105.936 55.1823 107.848 55.5329 108.368 54.2837C108.887 53.0344 107.329 51.9605 106.057 51.4783C104.554 50.9084 103.04 50.3386 101.536 49.7578L101.37 50.0646Z" fill="white"/>
<path d="M93.1448 82.8525C91.6193 84.4196 90.337 86.2168 89.331 88.1564C89.0768 88.6605 88.8225 89.2304 88.9883 89.7673C89.2647 90.7098 90.6575 90.8961 91.4534 90.3153C92.2494 89.7345 92.5478 88.7044 92.7136 87.74C92.9568 86.1949 93.3769 84.3977 93.1448 82.8525Z" fill="white"/>
<path d="M88.3477 67.5437C86.7448 69.1327 85.3741 70.9518 84.3018 72.9353C84.0254 73.4503 83.7601 74.0311 83.9149 74.59C84.1802 75.5653 85.6062 75.7954 86.4463 75.2146C87.2754 74.6338 87.6181 73.5818 87.795 72.5846C88.0824 70.9956 88.5577 69.1436 88.3477 67.5437Z" fill="white"/>
<path d="M70.064 99.2246C68.4612 100.814 67.0904 102.633 66.0182 104.616C65.7418 105.131 65.4765 105.712 65.6313 106.271C65.8966 107.246 67.3226 107.476 68.1627 106.896C68.9918 106.315 69.3344 105.263 69.5113 104.266C69.7987 102.677 70.2741 100.825 70.064 99.2246Z" fill="white"/>
</svg>
