<svg width="319" height="318" viewBox="0 0 319 318" fill="none" xmlns="http://www.w3.org/2000/svg">
<g clip-path="url(#clip0_2886_4914)">
<rect x="6" y="17" width="300" height="300" rx="150" fill="white"/>
<path d="M177.383 26.9439C179.496 34.9654 188.075 38.7663 194.87 34.6856C203.58 29.439 214.098 37.1807 212.683 47.7673C211.572 56.022 217.952 63.2274 225.705 62.4346C235.656 61.4319 242.32 73.0911 237.007 82.1386C232.847 89.2041 235.961 98.5548 243.343 101.213C252.794 104.641 254.493 118.189 246.174 124.135C239.707 128.776 238.988 138.662 244.715 144.329C252.054 151.581 248.439 164.686 238.596 166.505C230.931 167.927 226.51 176.648 229.581 184.32C233.544 194.137 225.247 204.537 215.579 201.925C208.022 199.873 200.684 205.936 200.575 214.261C200.466 224.964 188.946 230.864 181.085 224.241C174.966 219.088 165.951 221.42 162.706 228.998C158.547 238.722 145.764 239.095 141.104 229.628C137.467 222.259 128.343 220.44 122.507 225.967C115.016 233.032 103.214 227.809 102.538 217.129C102.016 208.804 94.3724 203.185 86.9467 205.68C77.4087 208.874 68.6111 198.941 72.0735 188.914C74.7738 181.079 69.9177 172.614 62.1653 171.658C52.2572 170.422 47.9672 157.527 54.9356 149.855C60.3579 143.886 59.1384 134.022 52.4531 129.778C43.8733 124.322 44.8532 110.68 54.1299 106.716C61.3596 103.615 63.9945 94.101 59.4869 87.292C53.7162 78.5709 59.7917 66.5386 69.7652 66.9583C77.5393 67.2848 83.5714 59.7296 82.0252 51.5448C80.0654 41.0515 90.1913 32.7269 99.1414 37.4372C106.132 41.1215 114.494 36.8309 116.214 28.6928C118.413 18.2694 130.826 15.0515 137.206 23.2596C142.193 29.6722 151.47 29.3923 156.108 22.6999C162.096 14.1654 174.661 16.6605 177.383 26.9439Z" fill="#4F3422"/>
<path d="M300.201 278.596C292.035 248.003 266.884 226.177 237.246 223.938C169.413 218.785 53.5856 216.919 29.0002 245.041C20.9648 254.229 37.3623 237.533 29.0002 245.041C-8.60729 278.783 -14.4651 360.631 -14.4651 360.631L73.3802 359.978L318.036 360.724C319.386 353.262 309.26 312.595 300.201 278.596Z" fill="#9BB168"/>
<path d="M185.789 189.963L179.735 169.35C184.809 170.632 190.384 169.28 194.5 165.199C201.098 158.67 201.511 147.663 195.414 140.598C189.317 133.532 179.038 133.089 172.44 139.619C172.048 140.015 171.678 140.411 171.33 140.831L164.187 116.533C163.294 113.525 160.507 111.66 157.589 112.126C143.129 114.435 102.756 125.278 99.8165 174.246C99.5988 177.954 102.321 181.125 105.805 181.125L123.618 181.102L122.202 194.347C143.674 198.754 165.058 196.352 185.789 189.963Z" fill="#CFD9B5"/>
<path d="M185.789 189.963C165.08 196.376 143.674 198.754 122.224 194.347L118 233.918C115.866 253.856 126.71 273.117 144.458 279.576C145.285 279.879 146.135 280.159 146.984 280.439C177.732 289.999 205.889 258.356 196.263 225.64L185.789 189.963Z" fill="#9BB168"/>
<path d="M130.63 127.236C121.832 132.11 113.013 136.96 104.215 141.834C103.061 142.463 102.952 144.259 103.801 145.192C106.415 148.036 109.006 150.858 111.619 153.703C113.427 155.662 116.236 152.654 114.428 150.695C111.815 147.85 109.224 145.028 106.611 142.184C106.48 143.303 106.349 144.422 106.197 145.541C114.994 140.668 123.814 135.818 132.611 130.944C134.92 129.662 132.895 125.977 130.63 127.236Z" fill="#4F3422"/>
<path d="M128.126 160.255C128.365 162.447 125.97 164.453 124.097 163.217C121.898 161.794 119.894 165.479 122.094 166.901C126.34 169.676 132.699 165.712 132.132 160.255C132.002 159.113 131.305 158.133 130.129 158.133C129.149 158.11 128.017 159.089 128.126 160.255Z" fill="#4F3422"/>
<path d="M186.529 148.293C183.11 149.529 179.692 150.765 176.273 152.001C173.855 152.887 174.901 156.991 177.34 156.105C180.759 154.869 184.177 153.633 187.596 152.397C190.013 151.534 188.968 147.407 186.529 148.293Z" fill="#4F3422"/>
<path d="M138.404 139.992C142.215 149.202 154.105 151.558 161.095 145.168C163.055 143.373 160.224 140.365 158.286 142.16C153.059 146.94 144.567 144.375 141.866 137.846C140.821 135.328 137.38 137.497 138.404 139.992Z" fill="#4F3422"/>
<path d="M141.67 141.694C140.211 143.28 138.731 144.842 137.272 146.428C135.464 148.363 138.273 151.394 140.081 149.436C141.54 147.85 143.02 146.288 144.479 144.702C146.309 142.767 143.5 139.758 141.67 141.694Z" fill="#4F3422"/>
<path d="M147.964 147.85C147.985 149.436 148.007 150.998 148.029 152.584C148.051 155.335 152.057 155.335 152.014 152.584C151.992 150.998 151.97 149.436 151.949 147.85C151.905 145.122 147.92 145.098 147.964 147.85Z" fill="#4F3422"/>
<path d="M155.803 147.803C156.282 149.202 156.74 150.625 157.219 152.024C157.589 153.097 158.569 153.843 159.679 153.516C160.659 153.237 161.443 151.977 161.073 150.881C160.594 149.482 160.137 148.06 159.658 146.661C159.287 145.565 158.307 144.842 157.197 145.168C156.217 145.472 155.455 146.731 155.803 147.803Z" fill="#4F3422"/>
<path d="M169.522 304.457C169.522 308.537 166.43 311.872 162.597 311.872C158.786 311.872 155.672 308.561 155.672 304.457C155.672 300.376 158.765 297.041 162.597 297.041C166.43 297.041 169.522 300.353 169.522 304.457Z" fill="#4F3422"/>
<path d="M69.308 281.045C47.118 293.24 24.9281 305.436 2.71634 317.632C-2.3793 320.43 -7.47493 323.228 -12.5706 326.026C-20.9326 330.643 -27.7268 336.729 -31.407 346.29C-34.6734 354.754 -35.0654 366.437 -31.3634 374.878C-27.5308 383.623 -21.194 391.644 -12.4617 395.049C-4.16495 398.267 6.06988 399.479 14.236 395.002C28.151 387.354 42.0877 379.705 56.0027 372.033C76.0151 361.027 96.0275 350.044 116.04 339.038C104.585 317.492 93.2183 295.875 82.4826 273.816C78.0838 276.241 73.685 278.643 69.308 281.045Z" fill="#9BB168"/>
<path d="M137.86 327.052C146.222 322.458 153.016 316.372 156.696 306.812C159.962 298.347 160.354 286.665 156.652 278.223C152.82 269.479 146.483 261.457 137.751 258.053C129.454 254.835 136.705 242.033 128.539 246.534C119.001 251.78 91.9988 268.593 82.4608 273.816C93.1965 295.899 104.542 317.515 116.018 339.038C118.196 337.849 120.395 336.636 122.573 335.447C127.668 332.649 132.764 329.85 137.86 327.052Z" fill="#CFD9B5"/>
<path d="M141.605 274.912C144.24 256.001 146.875 237.066 149.51 218.155C150.272 212.652 146.57 206.589 141.213 205.96C135.878 205.33 130.652 208.944 129.824 214.844C127.189 233.755 124.554 252.69 121.919 271.601C121.157 277.104 124.859 283.167 130.216 283.797C135.551 284.449 140.778 280.812 141.605 274.912Z" fill="#CFD9B5"/>
<path d="M142.563 275.192C144.545 260.897 146.548 246.58 148.53 232.286C149.706 223.798 153.93 210.413 144.109 205.726C140.647 204.07 136.379 204.747 133.308 207.032C129.498 209.853 128.91 214.097 128.278 218.714C126.296 233.032 124.293 247.326 122.311 261.644C122.115 262.996 124.053 263.556 124.228 262.203C125.839 250.661 127.429 239.118 129.04 227.575C129.432 224.8 129.802 222.025 130.194 219.274C130.543 216.779 130.63 214.051 131.828 211.789C134.288 207.172 140.473 205.423 144.61 208.454C149.553 212.092 148.552 217.898 147.79 223.378C147.027 228.904 146.243 234.454 145.481 239.981C143.87 251.523 142.28 263.043 140.669 274.585C140.451 275.984 142.367 276.544 142.563 275.192Z" fill="#4F3422"/>
<path d="M146.374 310.799C150.882 279.949 155.389 249.075 159.897 218.225C160.703 212.722 157.044 206.636 151.666 205.96C146.331 205.283 141.082 208.874 140.211 214.774C135.704 245.624 131.196 276.498 126.688 307.348C125.883 312.851 129.541 318.937 134.92 319.614C140.255 320.29 145.503 316.699 146.374 310.799Z" fill="#CFD9B5"/>
<path d="M152.384 280.322C154.039 268.383 155.716 256.444 157.371 244.528C158.199 238.559 159.026 232.589 159.854 226.62C160.442 222.329 161.857 217.502 160.659 213.188C158.787 206.426 152.145 203.068 146.091 205.656C143.042 206.962 140.625 209.667 139.689 213.048C138.186 218.482 137.969 224.684 137.185 230.304C135.29 243.852 133.417 257.377 131.523 270.925C131.327 272.277 133.265 272.837 133.439 271.484C135.225 258.636 137.01 245.787 138.796 232.939C139.624 226.993 140.168 220.93 141.279 215.03C142.346 209.364 147.768 205.33 153.168 207.289C159.636 209.644 159.2 216.779 158.373 222.586C157.502 228.788 156.653 234.991 155.782 241.17C153.996 254.019 152.21 266.867 150.425 279.739C150.272 281.092 152.188 281.675 152.384 280.322Z" fill="#4F3422"/>
<path d="M147.485 225.943C144.283 248.935 141.082 271.927 137.881 294.919C137.119 300.423 140.821 306.485 146.178 307.115C151.513 307.745 156.739 304.13 157.567 298.231C160.768 275.239 163.969 252.247 167.17 229.255C167.932 223.752 164.23 217.689 158.873 217.059C153.538 216.43 148.312 220.044 147.485 225.943Z" fill="#CFD9B5"/>
<path d="M156.848 310.613C160.398 285.172 163.926 259.732 167.475 234.291C168.15 229.511 168.956 225.034 166.19 220.79C163.664 216.919 159.418 215.217 155.106 216.22C145.046 218.552 145.677 231.726 144.48 240.354C142.694 253.249 140.887 266.144 139.101 279.063C138.905 280.415 140.843 280.975 141.017 279.622C142.346 270.015 143.696 260.408 145.024 250.801C145.743 245.554 146.483 240.308 147.202 235.084C147.79 230.84 147.681 224.941 150.403 221.56C154.497 216.499 162.097 217.082 165.123 223.052C167.497 227.762 165.45 234.268 164.753 239.258C163.164 250.684 161.574 262.134 159.984 273.56C158.286 285.709 156.609 297.881 154.91 310.03C154.736 311.382 156.653 311.965 156.848 310.613Z" fill="#4F3422"/>
<path d="M243.692 282.141C265.882 294.336 288.072 306.532 310.284 318.727C315.379 321.526 320.475 324.324 325.57 327.122C333.933 331.716 340.727 337.802 344.407 347.362C347.673 355.827 348.065 367.509 344.363 375.951C340.531 384.695 334.194 392.74 325.462 396.121C317.165 399.339 306.93 400.552 298.764 396.075C284.849 388.426 270.912 380.778 256.997 373.106C236.985 362.1 216.972 351.117 196.96 340.11C208.414 318.564 219.782 296.948 230.517 274.889C234.916 277.314 239.315 279.739 243.692 282.141Z" fill="#9BB168"/>
<path d="M175.14 328.125C166.778 323.531 159.984 317.445 156.304 307.884C153.038 299.42 152.646 287.737 156.347 279.296C160.18 270.552 166.517 262.507 175.249 259.125C183.546 255.908 176.295 243.106 184.461 247.606C193.999 252.853 221.001 269.665 230.539 274.912C219.803 296.995 208.458 318.611 196.982 340.134C194.804 338.944 192.605 337.732 190.427 336.543C185.332 333.744 180.236 330.946 175.14 328.125Z" fill="#CFD9B5"/>
<path d="M171.395 276.008C168.76 257.097 166.125 238.162 163.49 219.251C162.728 213.748 166.43 207.685 171.787 207.055C177.122 206.426 182.348 210.04 183.176 215.94C185.811 234.851 188.446 253.786 191.081 272.697C191.843 278.2 188.141 284.263 182.784 284.892C177.449 285.522 172.222 281.908 171.395 276.008Z" fill="#CFD9B5"/>
<path d="M172.353 275.728C170.742 264.186 169.152 252.666 167.54 241.124C166.778 235.597 165.994 230.047 165.232 224.521C164.47 219.041 163.447 213.235 168.411 209.597C172.549 206.542 178.712 208.315 181.194 212.932C182.392 215.147 182.479 217.922 182.827 220.417C183.219 223.192 183.59 225.967 183.981 228.718C185.593 240.261 187.183 251.804 188.794 263.346C188.99 264.699 190.906 264.116 190.71 262.787C188.729 248.469 186.725 234.175 184.744 219.857C184.09 215.24 183.524 210.996 179.713 208.175C176.643 205.89 172.375 205.213 168.912 206.869C159.069 211.556 163.316 224.917 164.492 233.429C166.473 247.723 168.477 262.04 170.458 276.335C170.611 277.64 172.549 277.057 172.353 275.728Z" fill="#4F3422"/>
<path d="M166.626 311.895C162.118 281.045 157.611 250.171 153.103 219.321C152.297 213.818 155.956 207.732 161.334 207.055C166.67 206.379 171.918 209.97 172.789 215.87C177.296 246.72 181.804 277.594 186.312 308.444C187.117 313.947 183.459 320.033 178.08 320.709C172.745 321.386 167.497 317.795 166.626 311.895Z" fill="#CFD9B5"/>
<path d="M162.532 280.835C160.746 267.987 158.961 255.138 157.175 242.266C156.347 236.297 155.52 230.327 154.692 224.358C153.865 218.388 153.059 210.833 159.81 208.385C164.884 206.542 170.48 210.157 171.613 215.637C172.832 221.653 173.355 227.925 174.182 234.012C175.968 246.86 177.753 259.709 179.539 272.557C179.735 273.909 181.651 273.326 181.455 271.997C179.8 260.058 178.124 248.119 176.469 236.204C175.641 230.234 174.814 224.264 173.986 218.295C173.442 214.447 172.745 211.113 169.805 208.548C164.666 204.047 156.87 205.26 153.451 211.439C151.404 215.147 151.883 218.785 152.45 222.842C153.277 228.812 154.105 234.781 154.932 240.751C156.827 254.299 158.699 267.823 160.594 281.371C160.79 282.77 162.728 282.187 162.532 280.835Z" fill="#4F3422"/>
<path d="M165.515 227.039C168.716 250.031 171.918 273.023 175.119 296.015C175.881 301.518 172.179 307.581 166.822 308.211C161.487 308.84 156.26 305.226 155.433 299.327C152.232 276.335 149.031 253.343 145.83 230.351C145.067 224.847 148.769 218.785 154.126 218.155C159.462 217.525 164.688 221.14 165.515 227.039Z" fill="#CFD9B5"/>
<path d="M158.068 311.126C154.976 288.95 151.883 266.751 148.813 244.575C148.116 239.515 146.744 234.058 146.744 228.952C146.722 222.119 152.907 217.409 158.895 219.857C164.165 222.026 164.579 227.343 165.298 232.543C165.994 237.579 166.691 242.616 167.41 247.653C168.934 258.659 170.48 269.666 172.005 280.695C172.201 282.048 174.117 281.465 173.921 280.136C172.331 268.779 170.763 257.423 169.174 246.044C168.412 240.517 167.628 234.991 166.865 229.465C166.19 224.684 164.884 220.557 160.572 218.295C151.753 213.678 143.761 222.003 145.002 231.54C146.635 243.992 148.465 256.397 150.185 268.826C152.166 283.12 154.17 297.391 156.152 311.685C156.326 313.061 158.264 312.478 158.068 311.126Z" fill="#4F3422"/>
<path d="M-6.4733 323.904C19.092 309.307 44.679 294.709 70.2443 280.112C73.8592 278.037 77.474 275.985 81.0889 273.909C82.2212 273.256 81.2195 271.414 80.0872 272.067C54.5219 286.665 28.9348 301.262 3.36956 315.859C-0.245297 317.935 -3.86015 319.987 -7.475 322.062C-8.62914 322.715 -7.60566 324.557 -6.4733 323.904Z" fill="#4F3422"/>
<path d="M306.364 315.393C284.348 303.151 262.354 290.885 240.338 278.643C237.268 276.941 234.198 275.215 231.105 273.513C229.973 272.883 228.95 274.726 230.104 275.355C252.119 287.597 274.113 299.863 296.129 312.105C299.2 313.807 302.27 315.533 305.362 317.235C306.495 317.865 307.496 316.023 306.364 315.393Z" fill="#4F3422"/>
<path d="M8.46523 302.964C13.1689 304.34 17.8726 305.692 22.598 307.068C23.8392 307.418 24.3619 305.366 23.1206 305.016C18.417 303.64 13.7133 302.288 8.98786 300.912C7.74661 300.539 7.22398 302.591 8.46523 302.964Z" fill="#4F3422"/>
<path d="M286.351 305.203C290.119 303.944 293.799 302.428 297.392 300.656C298.546 300.096 297.544 298.254 296.39 298.813C292.95 300.492 289.422 301.938 285.829 303.151C284.609 303.547 285.132 305.622 286.351 305.203Z" fill="#4F3422"/>
<path d="M243.453 106.856C247.111 115.367 257.172 114.901 263.291 109.958C269.845 104.641 276.444 93.2382 273.569 84.1673C271.435 77.4283 261.81 73.3476 258.173 81.1359C256.605 84.4705 257.847 88.4579 260.264 90.953C263.356 94.1243 268.082 94.6606 272.154 94.8005C281.801 95.1503 293.081 90.51 294.561 78.9673C294.91 76.2857 291.077 75.1198 290.729 77.8247C289.64 86.196 282.236 90.1602 274.985 90.51C271.544 90.6732 267.276 90.6965 264.205 88.7611C262.529 87.7117 261.135 85.7763 261.614 83.6543C262.093 81.4624 264.467 80.7395 266.296 81.3691C270.041 82.675 270.586 87.7117 269.954 91.2095C269.192 95.4068 266.993 99.5575 264.467 102.822C260.351 108.115 250.661 113.432 246.915 104.664C245.804 102.216 242.386 104.384 243.453 106.856Z" fill="#4F3422"/>
<path d="M28.6735 50.0058C27.9549 60.0794 35.7943 68.8005 45.2887 67.7978C54.5654 66.7951 60.8805 57.0247 58.5069 47.3475C57.6358 43.8265 54.8703 39.6758 51.0812 41.961C47.2921 44.2462 46.4864 50.3323 47.009 54.4597C48.4681 65.8857 58.398 71.7386 67.8053 74.7234C70.266 75.5162 71.3113 71.3888 68.8724 70.6193C62.9928 68.7539 56.6995 66.0023 53.2153 60.2893C51.4732 57.4211 50.4279 53.7601 50.9505 50.309C51.0594 49.6327 51.2119 48.9332 51.4514 48.3036C51.7127 47.5341 52.8233 45.6919 53.8686 46.2283C54.8267 46.7179 55.0227 50.6821 55.0227 51.4283C55.0662 58.3305 49.84 63.8103 43.3942 63.6238C36.6653 63.4373 32.1794 56.9081 32.6585 50.0058C32.8545 47.2776 28.8695 47.2776 28.6735 50.0058Z" fill="#4F3422"/>
<path d="M32.136 212.349C37.2099 217.479 45.2671 218.435 51.212 214.377C54.4566 212.162 56.4165 208.664 57.7666 204.91C59.1168 201.063 60.7717 195.886 58.6159 191.992C57.1133 189.264 53.5856 187.491 50.8418 189.17C48.0544 190.873 47.6625 194.72 48.5335 197.705C50.6676 205.097 58.6812 208.781 65.4101 208.408C74.9698 207.872 82.1995 200.13 87.3605 192.202C88.8195 189.94 85.3789 187.818 83.9199 190.056C80.1526 195.839 75.2747 201.529 68.7418 203.534C63.4284 205.167 56.4601 203.744 53.2807 198.498C52.6928 197.518 51.7564 195.746 52.083 194.51C53.0412 190.849 55.0446 193.927 55.4148 195.21C55.7632 196.422 55.589 197.542 55.3495 198.754C54.6962 202.252 53.3896 206.286 51.0813 208.944C46.8785 213.771 39.3222 213.748 34.9452 209.294C33.0942 207.429 30.2633 210.46 32.136 212.349Z" fill="#4F3422"/>
<path d="M198.398 45.2022C194.783 39.0462 195.284 30.4883 200.488 25.4748C204.974 21.1609 215.71 19.1556 219.325 25.8946C220.544 28.1798 219.651 31.2811 216.733 30.6049C214.468 30.0686 213.445 27.5735 213.271 25.3116C212.988 21.7672 214.251 18.0829 215.927 15.0981C219.325 9.08199 225.313 4.95463 231.846 4.27839C234.372 4.02189 234.394 -0.245384 231.846 0.0111183C223.854 0.803945 216.646 5.53759 212.487 12.9295C209.003 19.1089 206.629 31.2578 214.926 34.4524C217.844 35.5717 221.35 34.8489 223.048 31.8874C225.182 28.2031 223.571 23.7026 220.696 21.091C214.577 15.5878 204.843 16.4739 198.768 21.4874C191.429 27.5502 190.123 39.1161 194.957 47.3475C196.329 49.6794 199.769 47.5341 198.398 45.2022Z" fill="#4F3422"/>
</g>
<path d="M232.746 317.931C249.824 317.931 263.668 304.067 263.668 286.965C263.668 269.864 249.824 256 232.746 256C215.669 256 201.825 269.864 201.825 286.965C201.825 304.067 215.669 317.931 232.746 317.931Z" fill="#ED7E1C"/>
<path fill-rule="evenodd" clip-rule="evenodd" d="M218.639 270H246.755C248.31 270 249.569 271.257 249.569 272.809V276.08C249.569 277.632 248.31 278.889 246.755 278.889H218.639C217.084 278.889 215.825 277.632 215.825 276.08V272.809C215.825 271.257 217.084 270 218.639 270Z" fill="#4F3422"/>
<path fill-rule="evenodd" clip-rule="evenodd" d="M219.873 278.889H245.869V301.811C245.869 303.363 244.609 304.62 243.054 304.62H222.687C221.132 304.62 219.873 303.363 219.873 301.811V278.889Z" fill="white"/>
<path fill-rule="evenodd" clip-rule="evenodd" d="M224.73 283.096H242.065C242.836 283.096 243.466 283.725 243.466 284.494V293.383C243.466 294.153 242.836 294.782 242.065 294.782H224.73C223.959 294.782 223.329 294.153 223.329 293.383V284.494C223.329 283.725 223.959 283.096 224.73 283.096Z" fill="white"/>
<path d="M240.15 289.959H228.701C227.93 289.959 227.3 289.33 227.3 288.561C227.3 287.791 227.93 287.162 228.701 287.162H240.15C240.921 287.162 241.551 287.791 241.551 288.561C241.564 289.33 240.934 289.959 240.15 289.959Z" fill="#4F3422"/>
<path d="M65.5931 74.6867C77.6685 62.5941 77.6685 42.9882 65.5931 30.8956C53.5177 18.803 33.9396 18.803 21.8642 30.8956C9.78876 42.9882 9.78876 62.5941 21.8642 74.6867C33.9396 86.7793 53.5177 86.7793 65.5931 74.6867Z" fill="#ED7E1C"/>
<path d="M46.9891 58.5701H41.5454V68.7047H46.9891V58.5701Z" fill="#4F3422"/>
<path fill-rule="evenodd" clip-rule="evenodd" d="M27.9877 34.962H60.5613C61.6678 34.962 62.5529 35.8632 62.5529 36.9564V57.8905C62.5529 58.9985 61.653 59.8849 60.5613 59.8849H27.9877C26.8812 59.8849 25.9961 58.9838 25.9961 57.8905V36.9564C25.9961 35.8632 26.8812 34.962 27.9877 34.962Z" fill="white"/>
<path d="M54.203 70.9059H34.9657C33.8593 70.9059 32.9741 70.0047 32.9741 68.9115C32.9741 67.8183 33.874 66.9171 34.9657 66.9171H54.203C55.3095 66.9171 56.1946 67.8183 56.1946 68.9115C56.1946 70.0047 55.3095 70.9059 54.203 70.9059Z" fill="#4F3422"/>
<path d="M34.1838 54.3596C33.6675 54.3596 33.1659 54.1676 32.7676 53.7687C31.9857 52.9857 31.9857 51.7299 32.7676 50.9469L40.1733 43.5306C40.9552 42.7476 42.2092 42.7476 42.9911 43.5306L46.6202 47.1649L52.7868 40.9896C53.5687 40.2066 54.8226 40.2066 55.6045 40.9896C56.3864 41.7726 56.3864 43.0283 55.6045 43.8113L48.0217 51.4049C47.2398 52.1879 45.9858 52.1879 45.204 51.4049L41.5896 47.7854L35.6001 53.7834C35.2165 54.1676 34.7001 54.3596 34.1838 54.3596Z" fill="#4F3422"/>
<path d="M309.593 102.687C321.669 90.5941 321.669 70.9882 309.593 58.8956C297.518 46.803 277.94 46.803 265.864 58.8956C253.789 70.9882 253.789 90.5941 265.864 102.687C277.94 114.779 297.518 114.779 309.593 102.687Z" fill="#ED7E1C"/>
<path fill-rule="evenodd" clip-rule="evenodd" d="M279.342 90.9745C275.241 86.9413 273.648 82.1843 274.533 76.7328C275.861 68.5483 284.476 64.9879 290.982 67.0414C297.488 69.0949 300.217 72.8326 300.999 78.4909C301.516 82.2729 299.908 86.4243 296.146 90.9745L294.774 93.2644V97.6226C294.774 101.478 291.661 104.596 287.81 104.596C283.96 104.596 280.847 101.478 280.847 97.6226V93.7667L279.342 90.9745Z" fill="white"/>
<path fill-rule="evenodd" clip-rule="evenodd" d="M285.848 82.4501H282.854C282.485 82.4501 282.19 82.1547 282.19 81.7853C282.19 81.6524 282.234 81.5194 282.308 81.416L287.574 73.7042C287.781 73.394 288.194 73.3201 288.504 73.5269C288.681 73.6451 288.799 73.852 288.799 74.0736V77.6635C288.799 78.0329 289.094 78.3283 289.463 78.3283H291.971C292.339 78.3283 292.634 78.6238 292.634 78.9931C292.634 79.1261 292.605 79.2443 292.531 79.3477L287.751 86.9265C287.56 87.2368 287.147 87.3254 286.837 87.1334C286.645 87.0152 286.527 86.7936 286.527 86.572V83.1297C286.512 82.7604 286.217 82.4501 285.848 82.4501Z" fill="#4F3422"/>
<path fill-rule="evenodd" clip-rule="evenodd" d="M304.127 76.6884L307.107 76.1714C307.918 76.0236 308.7 76.5703 308.833 77.3828C308.98 78.1953 308.434 78.9636 307.623 79.1113L304.643 79.6284C303.832 79.7761 303.05 79.2295 302.917 78.4169C302.769 77.6044 303.315 76.8362 304.127 76.6884Z" fill="#4F3422"/>
<path fill-rule="evenodd" clip-rule="evenodd" d="M299.258 66.0073L301.029 63.5992C301.516 62.9344 302.46 62.7719 303.138 63.2594C303.802 63.747 303.95 64.6777 303.478 65.3425C303.478 65.3425 303.478 65.3425 303.478 65.3573L301.707 67.7653C301.22 68.4302 300.276 68.5927 299.598 68.1051C298.934 67.6176 298.772 66.6869 299.258 66.0073C299.258 66.0221 299.258 66.0221 299.258 66.0073Z" fill="#4F3422"/>
<path fill-rule="evenodd" clip-rule="evenodd" d="M286.468 62.2252V59.8319C286.468 58.8273 287.279 58 288.297 58C289.315 58 290.127 58.8125 290.127 59.8319V62.2252C290.127 63.2298 289.315 64.0571 288.297 64.0571C287.279 64.0571 286.468 63.2298 286.468 62.2252Z" fill="#4F3422"/>
<path fill-rule="evenodd" clip-rule="evenodd" d="M273.279 67.3074L271.155 65.1948C270.565 64.6186 270.565 63.6731 271.14 63.0822C271.14 63.0822 271.14 63.0822 271.155 63.0674C271.745 62.4765 272.689 62.4765 273.279 63.0674L275.404 65.18C275.994 65.7562 275.994 66.7017 275.418 67.2926C275.418 67.2926 275.418 67.2926 275.404 67.3074C274.813 67.8836 273.869 67.8836 273.279 67.3074Z" fill="#4F3422"/>
<path fill-rule="evenodd" clip-rule="evenodd" d="M270.388 78.2693L267.363 78.0033C266.537 77.9295 265.932 77.2056 266.006 76.393C266.08 75.5657 266.803 74.96 267.629 75.0339L270.653 75.2998C271.479 75.3736 272.084 76.0976 272.01 76.9101C271.937 77.7374 271.214 78.3431 270.388 78.2693Z" fill="#4F3422"/>
<path d="M293.166 95.3474C293.151 95.3474 293.151 95.3474 293.166 95.3474L282.499 95.2883C281.393 95.2883 280.508 94.3872 280.523 93.2791C280.523 92.1859 281.422 91.2995 282.514 91.2995C282.514 91.2995 282.514 91.2995 282.529 91.2995L293.18 91.3586C294.287 91.3586 295.172 92.2598 295.157 93.3678C295.142 94.461 294.257 95.3474 293.166 95.3474Z" fill="#4F3422"/>
<path d="M290.731 102.542H284.875C283.768 102.542 282.883 101.641 282.883 100.548C282.883 99.4544 283.783 98.5532 284.875 98.5532H290.731C291.838 98.5532 292.723 99.4544 292.723 100.548C292.723 101.641 291.823 102.542 290.731 102.542Z" fill="#4F3422"/>
<path d="M244.035 24.7801C241.122 26.4619 237.335 26.1577 234.718 23.7791C234.536 23.6113 234.328 23.4582 234.123 23.3381C233.258 22.8138 232.237 22.6694 231.254 22.9131C230.27 23.1569 229.448 23.7682 228.925 24.633L228.751 24.9212C228.618 25.1342 228.486 25.3472 228.333 25.5548C226.961 27.456 224.933 28.6948 222.616 29.0773C220.304 29.4398 217.977 28.89 216.088 27.5069L215.14 26.809C214.967 26.6869 214.789 26.585 214.611 26.4831C213.669 26.0031 212.6 25.9211 211.602 26.2584C210.597 26.5828 209.793 27.2856 209.315 28.2272C209.114 28.6163 208.885 28.9872 208.641 29.3325C207.396 31.0409 205.566 32.1488 203.483 32.4645C201.399 32.7803 199.319 32.2754 197.61 31.0271L194.546 28.7876C193.66 28.1389 193.465 26.8867 194.112 26.0013C194.76 25.1159 196.011 24.9224 196.896 25.5711L199.961 27.8106C200.799 28.4357 201.832 28.6919 202.86 28.5249C203.896 28.3707 204.801 27.814 205.424 26.9763C205.546 26.8037 205.66 26.6182 205.755 26.4274C206.704 24.5315 208.345 23.1238 210.355 22.475C212.37 21.806 214.517 21.9827 216.412 22.9353C216.774 23.1189 217.145 23.3483 217.49 23.5925L218.451 24.283C219.482 25.0356 220.743 25.3312 222.007 25.1303C223.27 24.9295 224.373 24.242 225.123 23.2114C225.196 23.1012 225.281 22.9837 225.354 22.8735L225.528 22.5852C226.597 20.8079 228.286 19.543 230.312 19.0388C232.325 18.542 234.426 18.8472 236.203 19.9193C236.642 20.1777 237.057 20.4838 237.429 20.8323C239.045 22.3043 241.55 22.1885 243.019 20.5727C243.161 20.4054 243.303 20.2382 243.43 20.0454L245.321 17.0944C245.913 16.1726 247.153 15.9004 248.075 16.494C248.997 17.0876 249.283 18.3212 248.678 19.2504L246.788 22.2013C246.546 22.5796 246.277 22.9397 245.973 23.2687C245.368 23.8737 244.725 24.3818 244.035 24.7801Z" fill="#FFCE5C"/>
<path d="M9.63341 132.294C4.3225 132.294 0 127.966 0 122.647C0 117.329 4.3225 113 9.63341 113C14.9443 113 19.2668 117.329 19.2668 122.647C19.2816 127.951 14.9443 132.294 9.63341 132.294ZM9.63341 116.974C6.52063 116.974 3.98319 119.515 3.98319 122.632C3.98319 125.75 6.52063 128.291 9.63341 128.291C12.7462 128.291 15.2836 125.75 15.2836 122.632C15.2836 119.515 12.7462 116.974 9.63341 116.974Z" fill="#C2B1FF"/>
<path d="M31.1736 285.965C30.5983 285.965 30.0377 285.728 29.6394 285.256C28.9313 284.414 29.0345 283.143 29.8902 282.449L61.0918 256.226C62.6261 254.94 63.5555 253.138 63.7325 251.144C63.9095 249.149 63.2899 247.214 62.0065 245.677C60.723 244.141 58.9232 243.21 56.9316 243.033C54.94 242.856 53.0074 243.476 51.4731 244.761L20.2715 270.984C19.4306 271.694 18.1766 271.59 17.4685 270.733C16.7604 269.891 16.8637 268.621 17.7193 267.926L48.921 241.689C51.2666 239.724 54.2319 238.778 57.2856 239.044C60.3394 239.31 63.0982 240.758 65.0602 243.092C67.0223 245.441 67.9665 248.41 67.7009 251.469C67.4354 254.527 65.9897 257.289 63.644 259.254L32.4424 285.492C32.0735 285.817 31.6162 285.965 31.1736 285.965Z" fill="#7D944D"/>
<path d="M155.964 311.642C149.37 311.642 144 306.117 144 299.321C144 292.525 149.37 287 155.964 287C157.071 287 157.956 287.901 157.956 288.994C157.956 290.102 157.056 290.989 155.964 290.989C151.568 290.989 147.983 294.727 147.983 299.306C147.983 303.901 151.568 307.624 155.964 307.624C157.071 307.624 157.956 308.525 157.956 309.618C157.956 310.711 157.071 311.642 155.964 311.642Z" fill="#FFCE5C"/>
<defs>
<clipPath id="clip0_2886_4914">
<rect x="6" y="17" width="300" height="300" rx="150" fill="white"/>
</clipPath>
</defs>
</svg>
