<svg width="270" height="270" viewBox="0 0 270 270" fill="none" xmlns="http://www.w3.org/2000/svg">
<g clip-path="url(#clip0_2988_3971)">
<rect width="270" height="270" rx="135" fill="#FFC89E"/>
<path d="M150.067 355.072C149.729 352.432 147.131 350.246 144.12 349.082C141.109 347.904 137.702 347.578 134.371 347.265C126.786 346.542 119.22 345.818 111.635 345.108C106.628 344.625 101.377 344.072 97.3684 341.659C93.3595 339.246 91.3268 334.32 94.4699 331.211C98.6294 327.109 108.209 328.884 112.105 324.625C115.06 321.403 112.613 316.676 108.718 314.15C104.822 311.623 99.8151 310.459 95.5427 308.344C89.2753 305.236 84.7582 299.984 83.422 294.235C83.1773 293.213 83.0455 292.134 83.4596 291.14C84.4195 288.869 88.0519 287.918 91.0068 288.415C93.9806 288.912 96.465 290.431 98.9494 291.807C103.071 294.079 108.191 296.094 112.971 294.859C117.62 293.667 120.255 289.82 121.666 286.144C123.078 282.453 123.774 278.479 126.541 275.313C129.534 271.864 134.898 269.778 140.186 270.019C145.475 270.246 150.519 272.787 153.041 276.477C155.262 279.756 155.488 283.603 156.467 287.251C157.426 290.885 159.61 294.746 163.939 296.194C167.119 297.258 170.752 296.79 174.215 296.747C177.678 296.705 181.63 297.358 183.343 299.742C184.341 301.147 184.322 302.851 184.19 304.455C183.55 311.864 181.028 319.089 180.087 326.485C179.127 333.866 179.955 341.801 185.319 347.904L150.067 355.072Z" fill="#4F3422"/>
<path opacity="0.48" d="M102.535 218.259C73.2141 216.676 44.132 211.533 16.196 203.014C8.43745 200.639 0.653667 197.956 -5.92098 193.406C-12.4956 188.856 -17.8108 182.154 -18.8436 174.476C-19.2844 171.162 -18.8561 167.577 -16.7528 164.881C-12.609 159.552 -4.23323 159.836 2.60591 161.06C19.3826 164.053 35.6807 169.468 50.7444 177.073C26.6122 167.008 3.1475 150.551 -4.11988 126.477C-5.05192 123.398 -5.69427 120.158 -5.25344 116.981C-4.03171 108.301 5.36424 102.217 14.5713 101.649C23.7657 101.08 32.6326 104.802 40.6179 109.154C54.3718 116.659 66.8284 126.316 77.3075 137.617C54.0947 126.403 40.3786 102.526 34.3708 78.4403C33.6403 75.5346 33.0105 72.4682 33.7788 69.5625C35.4036 63.4791 42.8977 60.153 49.4471 60.8455C55.9966 61.5379 61.7273 65.2349 66.9417 69.0432C85.5573 82.6319 102.095 99.7939 110.13 120.777C93.1395 103.38 87.8118 76.4743 96.9684 54.2922C99.4623 48.2459 103.153 42.348 108.896 38.8241C114.652 35.3002 122.801 34.7809 128.015 38.9478C132.121 42.2367 133.62 47.5535 134.716 52.5612C139.615 75.1018 140.522 98.4462 137.399 121.308C136.958 101.55 144.112 81.6798 157.211 66.2611C163.974 58.2984 172.312 51.5596 181.595 46.3789C195.198 38.7994 210.942 52.3386 204.228 65.8902C204.178 65.9891 204.14 66.0757 204.09 66.1746C194.152 86.0692 179.328 103.751 161.14 117.401C172.312 100.523 188.233 86.502 206.785 77.2038C213.939 73.6181 222.516 70.7 229.91 73.7664C239.507 77.7478 242.064 90.3845 238.008 99.5961C233.953 108.808 225.287 115.349 216.975 121.457C203.158 131.62 189.354 141.784 175.537 151.948C195.827 136.813 217.315 121.148 242.757 117.265C247.82 116.486 253.576 116.387 257.417 119.59C261.977 123.398 261.788 130.557 258.664 135.54C255.541 140.523 250.226 143.837 245.087 146.977C228.172 157.326 211.256 167.676 194.354 178.025C213.133 166.105 234.734 153.617 256.75 158.155C263.753 159.601 271.008 163.558 272.658 170.186C274.572 177.889 268.136 185.221 261.398 189.919C246.044 200.639 227.177 205.486 208.788 210.123C174.416 218.791 137.89 227.446 103.934 217.678L102.535 218.259Z" fill="#FEDABF"/>
<path d="M102.99 169.65C99.4109 168.856 96.3588 168.242 95.6846 168.194C88.3421 167.641 80.8771 168.411 73.8657 170.697C35.3639 183.304 39.078 233.339 45.9792 264.389C46.2366 265.532 48.2346 275.77 49.1172 275.806C49.1172 275.806 65.3465 276.504 87.7047 277.466C88.1338 241.014 90.0705 204.454 102.99 169.65Z" fill="#E2791D"/>
<path d="M164.328 186.805C160.761 190.174 156.851 193.229 152.598 195.72C144.299 200.58 132.85 203.046 123.473 202.012C109.622 200.496 110.468 183.016 116.462 173.307C116.744 172.862 109.107 170.985 102.978 169.638C90.0706 204.454 88.1339 241.014 87.7048 277.466C105.552 278.236 127.298 279.162 147.829 280.053C155.723 248.16 163.483 216.28 167.319 183.569C165.897 185.145 164.721 186.444 164.328 186.805Z" fill="white"/>
<path d="M236 213.669C236.024 205.38 234.578 196.514 231.44 188.802C222.283 166.305 191.639 156.982 173.938 176.062C173.644 176.387 170.053 180.489 167.319 183.557C163.482 216.279 155.723 248.16 147.829 280.041C184.259 281.604 216.828 283 216.841 283C217.037 283 221.327 271.258 221.866 270.043C224.232 264.69 226.34 259.228 228.179 253.67C231.611 243.288 234.431 232.304 235.583 221.428C235.84 218.914 235.987 216.316 236 213.669Z" fill="#E2791D"/>
<path d="M101.115 127.531C101.63 128.903 102.144 130.262 102.672 131.634C102.917 132.296 104.008 132.007 103.75 131.345C103.235 129.974 102.721 128.614 102.194 127.243C101.948 126.581 100.87 126.858 101.115 127.531Z" fill="#4F3422"/>
<path d="M112.233 192.532C113.483 200.64 121.512 202.83 128.842 202.601C138.109 202.3 147.094 199.353 154.804 194.36C158.494 191.966 161.901 189.163 165.039 186.119C166.069 185.121 173.289 175.93 173.926 176.062C163.85 174.029 153.345 173.608 143.355 173.476C133.598 173.355 124.748 173.091 116.462 173.319C112.931 179.07 111.166 185.578 112.233 192.532Z" fill="#F6A460"/>
<path d="M177.567 230.5C175.802 243.962 172.271 257.135 167.062 269.719C166.792 270.38 167.871 270.657 168.141 270.007C173.387 257.339 176.905 244.07 178.682 230.5C178.78 229.802 177.653 229.802 177.567 230.5Z" fill="#4F3422"/>
<path d="M108.518 181.897C106.03 188.79 106.006 196.273 108.457 203.19C108.69 203.852 109.781 203.575 109.536 202.902C107.145 196.153 107.17 188.934 109.597 182.197C109.83 181.512 108.751 181.235 108.518 181.897Z" fill="#4F3422"/>
<path d="M115.003 208.087C122.039 210.806 130.411 209.819 137.569 208.147C145.329 206.33 153.284 203.226 159.29 197.957C159.83 197.488 159.033 196.706 158.494 197.175C152.634 202.324 144.826 205.32 137.263 207.088C130.288 208.712 122.149 209.687 115.297 207.028C114.635 206.763 114.341 207.822 115.003 208.087Z" fill="#4F3422"/>
<path d="M93.7234 138.696C93.5027 136.458 91.8112 134.605 89.8499 133.619C87.8887 132.62 85.67 132.344 83.5004 132.079C78.5605 131.465 73.6328 130.852 68.6929 130.25C65.4324 129.841 62.0124 129.372 59.4015 127.327C56.7906 125.282 55.4668 121.107 57.5138 118.473C60.2228 114.996 66.462 116.5 68.9994 112.89C70.9239 110.16 69.3304 106.153 66.793 104.012C64.2556 101.871 60.995 100.884 58.2125 99.0916C54.1307 96.4569 51.1888 92.0057 50.3185 87.1334C50.1591 86.2672 50.0733 85.3529 50.343 84.5107C50.9682 82.5859 53.3339 81.7798 55.2584 82.2009C57.1951 82.622 58.8132 83.9092 60.4312 85.0762C63.1156 87.001 66.4498 88.7093 69.5632 87.6627C72.5909 86.6521 74.307 83.3919 75.2264 80.276C76.1457 77.1481 76.5992 73.7796 78.4011 71.0969C80.3501 68.1735 83.8436 66.405 87.288 66.6095C90.7325 66.802 94.0176 68.9554 95.6601 72.0833C97.1065 74.8624 97.2536 78.1226 97.891 81.2144C98.5162 84.2942 99.9381 87.5665 102.757 88.7936C104.829 89.6958 107.195 89.2988 109.45 89.2627C111.706 89.2267 114.28 89.78 115.395 91.8012C116.045 92.9922 116.033 94.4358 115.947 95.7952C115.53 102.075 113.887 108.199 113.275 114.466C112.649 120.722 113.189 127.447 116.682 132.62L93.7234 138.696Z" fill="#4F3422"/>
<path d="M157.795 173.74L110.002 124.067C103.26 126.124 96.0524 123.982 91.1738 119.194C86.81 131.393 82.3482 152.242 94.4589 168.278L106.324 156.825C106.324 156.825 110.982 171.178 115.579 185.277C119.882 198.475 136.356 203.311 147.339 194.613C147.486 194.493 147.633 194.384 147.768 194.264C156.863 187.022 165.836 182.101 157.795 173.74Z" fill="#F6A460"/>
<path d="M110.002 124.067L95.562 109.065C95.562 109.065 93.3801 113.023 91.1737 119.194C96.0646 123.994 103.26 126.124 110.002 124.067Z" fill="#F6A460"/>
<path d="M127.665 127.375C126.783 131.946 122.309 134.954 117.651 134.088C112.993 133.222 109.928 128.831 110.811 124.259C111.693 119.688 116.167 116.68 120.825 117.546C125.483 118.4 128.548 122.803 127.665 127.375Z" fill="#F6A460"/>
<path d="M117.589 129.42C119.146 126.737 120.715 124.067 122.321 121.408C122.689 120.794 121.72 120.241 121.352 120.855C119.747 123.501 118.178 126.184 116.621 128.867C116.265 129.492 117.234 130.046 117.589 129.42Z" fill="#4F3422"/>
<path d="M106.324 156.825L115.91 185.831L114.464 147.802L106.324 156.825Z" fill="#4F3422"/>
<path d="M88.4647 128.193C86.4912 133.222 84.7996 138.659 83.8803 143.965C83.7945 144.458 84.248 144.783 84.7016 144.59C86.6996 143.712 88.7099 142.834 90.7079 141.956C91.3698 141.667 90.7937 140.717 90.144 141.005C88.146 141.884 86.1357 142.762 84.1377 143.64C84.4074 143.845 84.6893 144.049 84.959 144.266C85.8783 138.948 87.5699 133.51 89.5434 128.494C89.8131 127.832 88.7221 127.543 88.4647 128.193Z" fill="#4F3422"/>
<path d="M100.171 126.942C100.796 128.686 101.433 130.431 102.059 132.175C102.304 132.837 103.382 132.548 103.137 131.886C102.512 130.142 101.875 128.397 101.25 126.653C101.017 125.991 99.9258 126.28 100.171 126.942Z" fill="#4F3422"/>
<path d="M101.384 133.306C102.488 132.692 103.591 132.067 104.706 131.453C105.331 131.104 104.767 130.154 104.142 130.503C103.039 131.116 101.936 131.742 100.82 132.356C100.183 132.704 100.747 133.655 101.384 133.306Z" fill="#4F3422"/>
<path d="M96.2852 122.057C98.7122 124.62 101.997 125.991 105.564 125.931C106.288 125.919 106.288 124.812 105.564 124.836C102.279 124.897 99.3251 123.657 97.0819 121.287C96.5794 120.758 95.7826 121.54 96.2852 122.057Z" fill="#4F3422"/>
<path d="M92.2155 154.78C92.2155 154.78 92.6813 148.669 94.4709 146.142C97.5108 141.848 98.7243 141.583 101.433 140.031C102.561 139.381 104.13 139.129 105.442 139.165C106.741 139.189 108.126 140.163 108.089 141.438C108.065 142.69 106.827 143.544 105.711 144.145C100.784 146.84 95.2064 149.306 92.5955 154.227L92.2155 154.78Z" fill="#4F3422"/>
<path d="M108.984 138.792C109.732 140.392 109.708 142.184 108.948 143.784C108.641 144.422 109.61 144.975 109.916 144.338C110.872 142.353 110.872 140.235 109.953 138.238C109.646 137.601 108.69 138.154 108.984 138.792Z" fill="#4F3422"/>
<path d="M62.2208 218.661C61.0441 234.109 61.9634 250.061 64.9666 265.279C65.1014 265.977 66.1801 265.676 66.0453 264.991C63.0544 249.88 62.1718 234.012 63.3363 218.661C63.3976 217.952 62.2699 217.952 62.2208 218.661Z" fill="#4F3422"/>
<path d="M124.527 147.009C124.319 147.057 126.194 150.882 127.506 153.685C127.874 154.455 128.217 155.273 128.891 155.815C129.553 156.356 130.607 156.585 131.49 156.104C132.63 155.49 132.961 153.974 132.507 152.964C132.041 151.953 131.036 151.327 130.068 150.75C128.254 149.655 124.527 147.009 124.527 147.009Z" fill="#C2B1FF"/>
<path d="M157.488 151.375C157.28 151.424 159.155 155.249 160.467 158.052C160.835 158.822 161.178 159.64 161.852 160.182C162.514 160.723 163.568 160.952 164.451 160.47C165.591 159.857 165.922 158.341 165.468 157.331C165.002 156.32 163.997 155.694 163.029 155.117C161.227 154.022 157.488 151.375 157.488 151.375Z" fill="#C2B1FF"/>
<path d="M72.7501 148.043C72.6153 147.887 69.9186 151.195 67.9206 153.565C67.369 154.227 66.7806 154.888 66.56 155.707C66.3516 156.537 66.609 157.559 67.418 158.137C68.4844 158.883 70.0167 158.51 70.7399 157.667C71.4631 156.825 71.6102 155.658 71.7205 154.552C71.9411 152.482 72.7501 148.043 72.7501 148.043Z" fill="#C2B1FF"/>
<path d="M106.018 130.214C105.81 130.202 106.471 134.401 106.901 137.445C107.023 138.287 107.121 139.165 107.599 139.875C108.077 140.584 109.021 141.09 110.002 140.885C111.277 140.621 112.037 139.261 111.902 138.166C111.755 137.072 110.982 136.181 110.222 135.351C108.813 133.811 106.018 130.214 106.018 130.214Z" fill="#C2B1FF"/>
<path d="M113.495 118.1C111.767 112.445 113.9 107.332 118.006 103.326C121.12 100.283 125.299 97.648 127.359 93.7141C129.148 90.3095 127.15 86.965 123.804 85.4853C121.732 84.571 119.416 84.4867 117.197 84.3063C115.42 84.1619 113.152 84.4025 113.704 81.9122C114.01 80.5288 114.733 78.9648 116.376 78.8204C117.087 78.7603 117.099 77.6535 116.376 77.7257C114.66 77.87 113.593 78.9648 112.98 80.4927C112.453 81.7919 111.853 84.0176 113.434 84.8356C114.316 85.2928 115.567 85.2808 116.535 85.365C118.288 85.5214 120.065 85.5575 121.769 85.9785C124.858 86.7364 127.984 89.2628 126.611 92.6915C125.606 95.1818 123.179 97.2149 121.205 98.9713C119.256 100.704 117.209 102.376 115.518 104.373C112.135 108.355 110.897 113.396 112.429 118.4C112.613 119.062 113.704 118.773 113.495 118.1Z" fill="#4F3422"/>
<path d="M63.1156 119.363C64.9666 119.206 66.2169 118.136 67.3691 116.776C68.6807 115.248 70.0903 113.48 70.3232 111.435C70.74 107.681 66.9156 105.359 63.5324 105.215C59.8183 105.071 54.2655 106.394 51.8998 109.486C51.0172 110.641 50.3553 112.433 51.2746 113.769C51.9978 114.827 53.432 115.128 54.4739 114.358C55.0378 113.937 54.4862 112.975 53.91 113.408C52.0101 114.815 52.0591 111.29 52.5372 110.52C52.9417 109.883 53.5178 109.329 54.1307 108.896C54.9642 108.307 55.9326 107.898 56.9009 107.561C59.4873 106.647 62.6621 105.805 65.3711 106.599C68.1659 107.405 70.0045 109.955 68.791 112.758C67.8962 114.839 65.6162 118.064 63.1156 118.268C62.4047 118.328 62.4047 119.423 63.1156 119.363Z" fill="#4F3422"/>
<rect x="154" y="130" width="56" height="56" rx="28" fill="white"/>
<g filter="url(#filter0_ddddd_2988_3971)">
<rect x="157" y="133" width="50" height="50" rx="25" fill="#C0A091"/>
<path fill-rule="evenodd" clip-rule="evenodd" d="M194.5 147.583C195.651 147.583 196.584 148.516 196.584 149.667L196.584 155.917C196.584 157.067 195.651 158 194.5 158C193.35 158 192.417 157.067 192.417 155.917L192.417 149.667C192.417 148.516 193.35 147.583 194.5 147.583Z" fill="#4F3422"/>
<path fill-rule="evenodd" clip-rule="evenodd" d="M169.5 147.583C170.651 147.583 171.584 148.516 171.584 149.667L171.584 155.917C171.584 157.067 170.651 158 169.5 158C168.35 158 167.417 157.067 167.417 155.917L167.417 149.667C167.417 148.516 168.35 147.583 169.5 147.583Z" fill="#4F3422"/>
<path fill-rule="evenodd" clip-rule="evenodd" d="M167.417 166.333C167.417 165.183 168.35 164.25 169.5 164.25H194.5C195.651 164.25 196.584 165.183 196.584 166.333C196.584 167.484 195.651 168.417 194.5 168.417H169.5C168.35 168.417 167.417 167.484 167.417 166.333Z" fill="#4F3422"/>
</g>
<rect x="128" y="77" width="37" height="37" rx="18.5" fill="white"/>
<g filter="url(#filter1_ddddd_2988_3971)">
<rect x="130.5" y="79.5" width="32" height="32" rx="16" fill="#C2B1FF"/>
<path fill-rule="evenodd" clip-rule="evenodd" d="M150.891 87.8905C151.411 87.3698 152.255 87.3698 152.776 87.8905L156.776 91.8905C157.297 92.4112 157.297 93.2554 156.776 93.7761C156.255 94.2968 155.411 94.2968 154.891 93.7761L150.891 89.7761C150.37 89.2554 150.37 88.4112 150.891 87.8905Z" fill="#3C357C"/>
<path fill-rule="evenodd" clip-rule="evenodd" d="M156.776 87.8905C157.297 88.4112 157.297 89.2554 156.776 89.7761L152.776 93.7761C152.255 94.2968 151.411 94.2968 150.89 93.7761C150.37 93.2554 150.37 92.4112 150.89 91.8905L154.89 87.8905C155.411 87.3698 156.255 87.3698 156.776 87.8905Z" fill="#3C357C"/>
<path fill-rule="evenodd" clip-rule="evenodd" d="M136.224 87.8905C136.745 87.3698 137.589 87.3698 138.11 87.8905L142.11 91.8905C142.63 92.4112 142.63 93.2554 142.11 93.7761C141.589 94.2968 140.745 94.2968 140.224 93.7761L136.224 89.7761C135.703 89.2554 135.703 88.4112 136.224 87.8905Z" fill="#3C357C"/>
<path fill-rule="evenodd" clip-rule="evenodd" d="M142.109 87.8905C142.63 88.4112 142.63 89.2554 142.109 89.7761L138.109 93.7761C137.589 94.2968 136.745 94.2968 136.224 93.7761C135.703 93.2554 135.703 92.4112 136.224 91.8905L140.224 87.8905C140.745 87.3698 141.589 87.3698 142.109 87.8905Z" fill="#3C357C"/>
<path fill-rule="evenodd" clip-rule="evenodd" d="M141.63 98.4865C143.027 97.4145 144.739 96.8334 146.5 96.8334C148.261 96.8334 149.973 97.4145 151.37 98.4865C152.767 99.5586 153.772 101.062 154.228 102.763C154.418 103.474 153.996 104.205 153.285 104.396C152.573 104.586 151.842 104.164 151.652 103.453C151.348 102.319 150.678 101.317 149.747 100.602C148.815 99.8874 147.674 99.5 146.5 99.5C145.326 99.5 144.185 99.8874 143.253 100.602C142.322 101.317 141.652 102.319 141.348 103.453C141.158 104.164 140.427 104.586 139.716 104.396C139.004 104.205 138.582 103.474 138.773 102.763C139.228 101.062 140.233 99.5586 141.63 98.4865Z" fill="#3C357C"/>
</g>
<rect x="52" y="169" width="29" height="29" rx="14.5" fill="white"/>
<g filter="url(#filter2_ddddd_2988_3971)">
<rect x="54.5" y="171.5" width="24" height="24" rx="12" fill="#ED7E1C"/>
<path fill-rule="evenodd" clip-rule="evenodd" d="M62.8475 185.74C63.8953 184.936 65.1792 184.5 66.5 184.5C67.8208 184.5 69.1047 184.936 70.1526 185.74C71.2005 186.544 71.9537 187.671 72.2956 188.947C72.4385 189.481 72.122 190.029 71.5885 190.172C71.055 190.315 70.5067 189.998 70.3637 189.465C70.1358 188.614 69.6337 187.863 68.9351 187.327C68.2365 186.791 67.3806 186.5 66.5 186.5C65.6195 186.5 64.7636 186.791 64.065 187.327C63.3664 187.863 62.8642 188.614 62.6363 189.465C62.4934 189.998 61.9451 190.315 61.4116 190.172C60.8781 190.029 60.5615 189.481 60.7045 188.947C61.0463 187.671 61.7996 186.544 62.8475 185.74Z" fill="#663600"/>
<path fill-rule="evenodd" clip-rule="evenodd" d="M60.5 178.5C61.0523 178.5 61.5 178.948 61.5 179.5V182.5C61.5 183.052 61.0523 183.5 60.5 183.5C59.9477 183.5 59.5 183.052 59.5 182.5V179.5C59.5 178.948 59.9477 178.5 60.5 178.5Z" fill="#663600"/>
<path fill-rule="evenodd" clip-rule="evenodd" d="M72.5 178.5C73.0523 178.5 73.5 178.948 73.5 179.5V182.5C73.5 183.052 73.0523 183.5 72.5 183.5C71.9477 183.5 71.5 183.052 71.5 182.5V179.5C71.5 178.948 71.9477 178.5 72.5 178.5Z" fill="#663600"/>
</g>
</g>
<defs>
<filter id="filter0_ddddd_2988_3971" x="152.8" y="132.2" width="58.4" height="65.6" filterUnits="userSpaceOnUse" color-interpolation-filters="sRGB">
<feFlood flood-opacity="0" result="BackgroundImageFix"/>
<feColorMatrix in="SourceAlpha" type="matrix" values="0 0 0 0 0 0 0 0 0 0 0 0 0 0 0 0 0 0 127 0" result="hardAlpha"/>
<feOffset/>
<feColorMatrix type="matrix" values="0 0 0 0 1 0 0 0 0 0.807843 0 0 0 0 0.360784 0 0 0 0.1 0"/>
<feBlend mode="normal" in2="BackgroundImageFix" result="effect1_dropShadow_2988_3971"/>
<feColorMatrix in="SourceAlpha" type="matrix" values="0 0 0 0 0 0 0 0 0 0 0 0 0 0 0 0 0 0 127 0" result="hardAlpha"/>
<feOffset dy="0.6"/>
<feGaussianBlur stdDeviation="0.7"/>
<feColorMatrix type="matrix" values="0 0 0 0 1 0 0 0 0 0.807843 0 0 0 0 0.360784 0 0 0 0.1 0"/>
<feBlend mode="normal" in2="effect1_dropShadow_2988_3971" result="effect2_dropShadow_2988_3971"/>
<feColorMatrix in="SourceAlpha" type="matrix" values="0 0 0 0 0 0 0 0 0 0 0 0 0 0 0 0 0 0 127 0" result="hardAlpha"/>
<feOffset dy="2.6"/>
<feGaussianBlur stdDeviation="1.3"/>
<feColorMatrix type="matrix" values="0 0 0 0 1 0 0 0 0 0.807843 0 0 0 0 0.360784 0 0 0 0.09 0"/>
<feBlend mode="normal" in2="effect2_dropShadow_2988_3971" result="effect3_dropShadow_2988_3971"/>
<feColorMatrix in="SourceAlpha" type="matrix" values="0 0 0 0 0 0 0 0 0 0 0 0 0 0 0 0 0 0 127 0" result="hardAlpha"/>
<feOffset dy="6"/>
<feGaussianBlur stdDeviation="1.8"/>
<feColorMatrix type="matrix" values="0 0 0 0 1 0 0 0 0 0.807843 0 0 0 0 0.360784 0 0 0 0.05 0"/>
<feBlend mode="normal" in2="effect3_dropShadow_2988_3971" result="effect4_dropShadow_2988_3971"/>
<feColorMatrix in="SourceAlpha" type="matrix" values="0 0 0 0 0 0 0 0 0 0 0 0 0 0 0 0 0 0 127 0" result="hardAlpha"/>
<feOffset dy="10.6"/>
<feGaussianBlur stdDeviation="2.1"/>
<feColorMatrix type="matrix" values="0 0 0 0 1 0 0 0 0 0.807843 0 0 0 0 0.360784 0 0 0 0.01 0"/>
<feBlend mode="normal" in2="effect4_dropShadow_2988_3971" result="effect5_dropShadow_2988_3971"/>
<feBlend mode="normal" in="SourceGraphic" in2="effect5_dropShadow_2988_3971" result="shape"/>
</filter>
<filter id="filter1_ddddd_2988_3971" x="126.3" y="78.7" width="40.4" height="47.6" filterUnits="userSpaceOnUse" color-interpolation-filters="sRGB">
<feFlood flood-opacity="0" result="BackgroundImageFix"/>
<feColorMatrix in="SourceAlpha" type="matrix" values="0 0 0 0 0 0 0 0 0 0 0 0 0 0 0 0 0 0 127 0" result="hardAlpha"/>
<feOffset/>
<feColorMatrix type="matrix" values="0 0 0 0 1 0 0 0 0 0.807843 0 0 0 0 0.360784 0 0 0 0.1 0"/>
<feBlend mode="normal" in2="BackgroundImageFix" result="effect1_dropShadow_2988_3971"/>
<feColorMatrix in="SourceAlpha" type="matrix" values="0 0 0 0 0 0 0 0 0 0 0 0 0 0 0 0 0 0 127 0" result="hardAlpha"/>
<feOffset dy="0.6"/>
<feGaussianBlur stdDeviation="0.7"/>
<feColorMatrix type="matrix" values="0 0 0 0 1 0 0 0 0 0.807843 0 0 0 0 0.360784 0 0 0 0.1 0"/>
<feBlend mode="normal" in2="effect1_dropShadow_2988_3971" result="effect2_dropShadow_2988_3971"/>
<feColorMatrix in="SourceAlpha" type="matrix" values="0 0 0 0 0 0 0 0 0 0 0 0 0 0 0 0 0 0 127 0" result="hardAlpha"/>
<feOffset dy="2.6"/>
<feGaussianBlur stdDeviation="1.3"/>
<feColorMatrix type="matrix" values="0 0 0 0 1 0 0 0 0 0.807843 0 0 0 0 0.360784 0 0 0 0.09 0"/>
<feBlend mode="normal" in2="effect2_dropShadow_2988_3971" result="effect3_dropShadow_2988_3971"/>
<feColorMatrix in="SourceAlpha" type="matrix" values="0 0 0 0 0 0 0 0 0 0 0 0 0 0 0 0 0 0 127 0" result="hardAlpha"/>
<feOffset dy="6"/>
<feGaussianBlur stdDeviation="1.8"/>
<feColorMatrix type="matrix" values="0 0 0 0 1 0 0 0 0 0.807843 0 0 0 0 0.360784 0 0 0 0.05 0"/>
<feBlend mode="normal" in2="effect3_dropShadow_2988_3971" result="effect4_dropShadow_2988_3971"/>
<feColorMatrix in="SourceAlpha" type="matrix" values="0 0 0 0 0 0 0 0 0 0 0 0 0 0 0 0 0 0 127 0" result="hardAlpha"/>
<feOffset dy="10.6"/>
<feGaussianBlur stdDeviation="2.1"/>
<feColorMatrix type="matrix" values="0 0 0 0 1 0 0 0 0 0.807843 0 0 0 0 0.360784 0 0 0 0.01 0"/>
<feBlend mode="normal" in2="effect4_dropShadow_2988_3971" result="effect5_dropShadow_2988_3971"/>
<feBlend mode="normal" in="SourceGraphic" in2="effect5_dropShadow_2988_3971" result="shape"/>
</filter>
<filter id="filter2_ddddd_2988_3971" x="50.3" y="170.7" width="32.4" height="39.6" filterUnits="userSpaceOnUse" color-interpolation-filters="sRGB">
<feFlood flood-opacity="0" result="BackgroundImageFix"/>
<feColorMatrix in="SourceAlpha" type="matrix" values="0 0 0 0 0 0 0 0 0 0 0 0 0 0 0 0 0 0 127 0" result="hardAlpha"/>
<feOffset/>
<feColorMatrix type="matrix" values="0 0 0 0 1 0 0 0 0 0.807843 0 0 0 0 0.360784 0 0 0 0.1 0"/>
<feBlend mode="normal" in2="BackgroundImageFix" result="effect1_dropShadow_2988_3971"/>
<feColorMatrix in="SourceAlpha" type="matrix" values="0 0 0 0 0 0 0 0 0 0 0 0 0 0 0 0 0 0 127 0" result="hardAlpha"/>
<feOffset dy="0.6"/>
<feGaussianBlur stdDeviation="0.7"/>
<feColorMatrix type="matrix" values="0 0 0 0 1 0 0 0 0 0.807843 0 0 0 0 0.360784 0 0 0 0.1 0"/>
<feBlend mode="normal" in2="effect1_dropShadow_2988_3971" result="effect2_dropShadow_2988_3971"/>
<feColorMatrix in="SourceAlpha" type="matrix" values="0 0 0 0 0 0 0 0 0 0 0 0 0 0 0 0 0 0 127 0" result="hardAlpha"/>
<feOffset dy="2.6"/>
<feGaussianBlur stdDeviation="1.3"/>
<feColorMatrix type="matrix" values="0 0 0 0 1 0 0 0 0 0.807843 0 0 0 0 0.360784 0 0 0 0.09 0"/>
<feBlend mode="normal" in2="effect2_dropShadow_2988_3971" result="effect3_dropShadow_2988_3971"/>
<feColorMatrix in="SourceAlpha" type="matrix" values="0 0 0 0 0 0 0 0 0 0 0 0 0 0 0 0 0 0 127 0" result="hardAlpha"/>
<feOffset dy="6"/>
<feGaussianBlur stdDeviation="1.8"/>
<feColorMatrix type="matrix" values="0 0 0 0 1 0 0 0 0 0.807843 0 0 0 0 0.360784 0 0 0 0.05 0"/>
<feBlend mode="normal" in2="effect3_dropShadow_2988_3971" result="effect4_dropShadow_2988_3971"/>
<feColorMatrix in="SourceAlpha" type="matrix" values="0 0 0 0 0 0 0 0 0 0 0 0 0 0 0 0 0 0 127 0" result="hardAlpha"/>
<feOffset dy="10.6"/>
<feGaussianBlur stdDeviation="2.1"/>
<feColorMatrix type="matrix" values="0 0 0 0 1 0 0 0 0 0.807843 0 0 0 0 0.360784 0 0 0 0.01 0"/>
<feBlend mode="normal" in2="effect4_dropShadow_2988_3971" result="effect5_dropShadow_2988_3971"/>
<feBlend mode="normal" in="SourceGraphic" in2="effect5_dropShadow_2988_3971" result="shape"/>
</filter>
<clipPath id="clip0_2988_3971">
<rect width="270" height="270" rx="135" fill="white"/>
</clipPath>
</defs>
</svg>
