<svg width="270" height="270" viewBox="0 0 270 270" fill="none" xmlns="http://www.w3.org/2000/svg">
<g clip-path="url(#clip0_2988_3830)">
<rect width="270" height="270" rx="135" fill="#FFEBC2"/>
<path d="M150.067 355.072C149.729 352.432 147.131 350.246 144.12 349.082C141.109 347.904 137.702 347.578 134.371 347.265C126.786 346.542 119.22 345.818 111.635 345.108C106.628 344.625 101.377 344.072 97.3684 341.659C93.3595 339.246 91.3268 334.32 94.4699 331.211C98.6294 327.109 108.209 328.884 112.105 324.625C115.06 321.403 112.613 316.676 108.718 314.15C104.822 311.623 99.8151 310.459 95.5427 308.344C89.2753 305.236 84.7582 299.984 83.422 294.235C83.1773 293.213 83.0455 292.134 83.4596 291.14C84.4195 288.869 88.0519 287.918 91.0068 288.415C93.9806 288.912 96.465 290.431 98.9494 291.807C103.071 294.079 108.191 296.094 112.971 294.859C117.62 293.667 120.255 289.82 121.666 286.144C123.078 282.453 123.774 278.479 126.541 275.313C129.534 271.864 134.898 269.778 140.186 270.019C145.475 270.246 150.519 272.787 153.041 276.477C155.262 279.756 155.488 283.603 156.467 287.251C157.426 290.885 159.61 294.746 163.939 296.194C167.119 297.258 170.752 296.79 174.215 296.747C177.678 296.705 181.63 297.358 183.343 299.742C184.341 301.147 184.322 302.851 184.19 304.455C183.55 311.864 181.028 319.089 180.087 326.485C179.127 333.866 179.955 341.801 185.319 347.904L150.067 355.072Z" fill="#4F3422"/>
<path d="M160.975 15C152.071 16.4975 143.113 17.8615 134.007 18.7955C108.393 21.5087 84.4066 29.1888 60.8533 41.3908C26.9058 58.9303 -4.68371 80.5174 -40 93.5201V174.679C-2.89486 154.367 24.5071 120.059 56.2999 90.199C113.76 35.9644 189.393 42.2952 259.66 23.3176C267.696 21.064 275.394 18.2173 282.874 15L160.975 15Z" fill="#FFF4E0"/>
<path d="M248.927 68.5081C211.727 86.5813 174.527 100.592 136.08 114.603C102.187 127.25 74.9067 150.305 45.5668 175.154C19.2896 197.022 -7.00109 220.937 -40 224.08V286.321H-22.247C-11.9069 268.204 5.56153 256.12 23.6533 248.366C40.1867 241.59 56.2999 235.26 72.0066 225.326C76.1399 223.072 79.4466 219.455 83.5799 216.282C104.247 201.826 122.433 189.624 143.1 175.154C155.093 167.014 165.84 159.794 178.647 156.176C217.92 144.434 249.32 121.379 284.053 99.6878C299.204 90.2583 315.426 85.3063 332 83.4975V53.4297C303.555 52.4215 275.312 55.4758 248.927 68.5081Z" fill="#FFF4E0"/>
<path d="M255.54 218.091C230.74 233.451 202.634 233.006 176.6 242.94C164.2 247.906 148.412 251.198 132.679 264.393C125.252 270.62 121.01 278.893 114.844 286.321H332V182.419C328.856 182.685 325.685 183.115 322.487 183.738C296.874 188.26 277.44 204.984 255.54 218.091Z" fill="#FFF4E0"/>
<path d="M203.372 225.475C207.196 230.082 213.111 226.156 214.948 221.517C216.401 217.868 216.668 213.667 217.172 209.774C217.75 205.394 218.269 201.015 218.743 196.635C220.477 180.496 222.493 163.626 219.039 147.584C218.283 144.113 215.097 129.093 209.361 132.937C208.619 133.44 209.301 134.721 210.042 134.219C215.289 130.715 218.787 153.716 219.084 156.846C219.855 165.07 219.514 173.375 218.862 181.599C218.135 190.569 217.172 199.522 216.016 208.427C215.512 212.337 215.26 216.521 213.985 220.236C212.651 224.145 207.834 228.638 204.351 224.437C203.743 223.723 202.794 224.761 203.372 225.475Z" fill="#FFCE5C"/>
<path d="M55.2247 184.681C51.8601 177.252 52.5123 168.849 54.4392 161.064C56.3068 153.521 59.1526 146.108 62.621 139.279C69.3948 125.962 80.3632 114.235 94.7259 112.24C95.5855 112.126 95.5855 110.634 94.7259 110.764C79.8592 112.84 68.4906 124.713 61.4501 138.55C57.6852 145.946 54.5726 154.105 52.7494 162.329C51.0301 170.05 50.7633 178.176 54.0686 185.443C54.4392 186.286 55.6101 185.524 55.2247 184.681Z" fill="#FFCE5C"/>
<path d="M324.707 197.446C319.045 197.024 313.101 196.489 308.773 197.041C299.42 198.225 290.675 202.653 281.589 205.329C272.251 208.071 262.557 208.979 252.923 209.855C245.897 210.504 238.872 211.152 231.831 211.152C225.383 211.169 218.936 210.666 212.518 210.033C202.335 209.044 191.959 207.989 181.554 206.578C158.031 203.399 134.434 198.436 112.957 188.509C107.74 186.092 102.582 183.513 97.4976 180.771C73.5449 167.86 51.1634 151.38 31.1535 131.899C23.6238 124.567 16.4351 116.83 9.61686 108.688L9.58721 108.655C8.22357 107.017 9.85401 104.486 11.692 105.379L21.6969 110.229C23.2829 110.991 25.1801 110.748 26.4549 109.45C27.9964 107.877 27.4628 105.914 26.8551 104.195C24.8689 98.5498 22.112 93.2457 20.2592 87.5523C19.2216 84.3406 18.4361 79.2961 18.3027 74.4786C18.2285 71.7697 21.5784 70.9749 22.4973 73.4729C24.2315 78.1768 28.9153 86.8872 33.2138 92.9537C33.9252 93.9594 35.3185 92.9213 34.7553 91.802C31.0942 84.6326 27.0033 75.322 26.7068 70.1315C26.6179 68.5256 27.6555 67.0496 29.108 66.9036C30.9608 66.7089 31.7612 68.9474 32.2948 70.7479C34.2661 77.3172 37.4233 83.5945 42.4332 87.6983C40.1209 83.7891 37.616 78.3066 36.3561 73.8135C35.6446 71.2831 38.6683 69.5638 40.0764 71.6886C41.5587 73.9271 42.9668 77.2685 43.9747 79.1987C49.7257 90.1638 57.3295 99.9285 66.2821 107.812C71.7959 112.678 77.7989 116.814 83.7722 120.95C94.9482 128.655 107.888 135.808 121.05 141.242C128.55 144.308 136.109 146.838 143.446 148.606C153.644 151.056 164.049 152.613 174.543 153.618C190.566 155.159 206.767 155.435 222.686 155.678C244.934 156.019 267.819 156.068 288.585 147.179C292.913 145.33 301.495 142.037 309.218 140.009C311.515 139.409 312.612 143.043 310.448 144.097C304.415 147.065 297.478 150.261 291.757 152.499C290.927 152.824 290.275 153.586 290.127 154.543C289.786 156.765 292.958 156.311 294.988 155.743L319.875 148.801C322.498 148.071 324.232 151.721 322.217 153.716C321.061 154.851 319.623 155.808 318.274 156.473C313.131 159.004 305.038 161.939 298.027 164.729C295.759 165.638 296.648 169.417 299.02 168.947C305.942 167.6 316.036 164.356 324.499 161.826C327.138 161.031 328.694 164.989 326.397 166.627C320.497 170.796 314.302 174.17 307.824 177.057C300.072 180.528 301.614 187.584 307.068 188.606C310.166 189.19 313.071 189.498 314.983 189.514C317.755 189.547 322.024 190.439 325.759 192.045C328.457 193.229 327.553 197.657 324.707 197.446Z" fill="#F6A460"/>
<path d="M125.022 162.037C128.105 172.418 137.71 175.386 145.018 171.931C152.621 168.525 158.55 160.69 162.849 152.256C155.541 151.266 147.641 150.634 140.512 148.606C135.353 147.146 130.077 145.151 124.8 142.767C123.199 149.012 123.511 155.824 125.022 162.037Z" fill="#F6A460"/>
<path d="M182.473 209.741C182.162 208.703 181.851 207.649 181.539 206.578C178.842 197.316 176.292 187.422 175.67 177.852C175.003 167.6 174.662 159.685 174.528 153.618C172.646 153.44 164.701 152.467 162.834 152.24C157.794 160.674 154.993 167.406 146.055 170.796C137.473 174.251 128.847 172.402 125.23 162.02C123.451 155.808 123.081 148.995 124.978 142.767C123.659 142.264 122.354 141.745 121.035 141.21C113.357 148.201 107.369 157.414 102.923 167.114C100.877 171.558 99.0688 176.116 97.4828 180.771C90.7239 200.479 87.7594 221.761 86.9887 242.653C85.9215 271.671 87.1072 301.403 91.7911 330L255.991 323.09C224.524 290.552 196.11 255.629 182.473 209.741Z" fill="#FFCE5C"/>
<path d="M146.841 126.449C143.713 123.172 143.921 117.009 147.256 113.927C149.079 112.24 151.569 111.461 153.214 109.596C157.024 105.281 154.415 98.4038 154.489 92.5158C154.548 86.8062 157.972 81.794 162.271 78.3066C170.082 71.932 175.225 75.4518 181.48 73.035C196.406 67.2767 193.901 58.177 199.874 51.3319C205.848 44.5031 215.008 41.9403 223.753 41.9241C230.245 41.9241 236.337 45.6872 242.829 45.4763C250.403 45.233 251.011 35.9063 265.477 34.9979C275.542 34.3815 285.295 40.3182 289.978 49.7748C294.677 59.2313 292.246 74.8841 284.05 81.1939C278.076 85.7843 265.967 87.7145 258.689 86.7413C251.07 85.7194 246.624 79.4096 240.309 84.0811C233.061 89.4339 232.883 101.502 225.932 107.26C220.492 111.769 212.844 110.91 206.011 110.034C199.193 109.158 191.367 108.817 186.416 113.927C183.051 117.414 181.436 123.091 177.033 124.811C170.867 127.211 163.634 120.009 157.942 123.513C156.416 124.454 155.334 126.044 153.911 127.163C152.488 128.282 150.339 128.833 149.049 127.568L146.841 126.449Z" fill="#4F3422"/>
<path d="M148.1 116.457C152.088 113.083 152.888 107.487 152.517 102.264C151.999 94.8353 149.953 87.017 155.349 81.0316C163.782 71.6886 177.597 74.2839 186.89 66.563C191.989 62.3294 193.605 55.3059 197.873 50.2938C202.261 45.1357 208.412 41.8592 214.845 41.3563C225.532 40.5291 240.443 47.2281 248.476 35.9225C250.966 32.4026 252.345 24.3248 246.742 23.3029C245.008 22.9947 242.903 23.7571 242.192 25.6549C241.465 27.6014 243.407 28.8665 244.978 28.3151C245.808 28.0231 245.453 26.5957 244.623 26.8876C244.267 26.5795 243.926 26.2551 243.57 25.9469C243.941 25.3791 244.43 25.0223 245.038 24.8439C245.69 24.6168 246.475 24.6492 247.113 24.9087C248.713 25.5576 249.366 27.5202 249.38 29.2396C249.41 32.1431 247.869 34.8519 245.927 36.7173C242.073 40.3993 236.589 41.3239 231.653 41.113C225.546 40.8535 219.469 39.199 213.348 40.0262C208.857 40.6426 204.529 42.5404 200.867 45.4439C196.969 48.542 194.361 52.516 192.019 57.074C190.61 59.799 189.173 62.5078 186.994 64.5678C184.845 66.5954 182.28 67.9904 179.627 69.0285C171.06 72.4023 160.536 72.597 153.985 80.4477C150.25 84.9408 149.909 90.5693 150.531 96.36C151.183 102.54 152.681 110.748 147.433 115.16C146.737 115.743 147.404 117.025 148.1 116.457Z" fill="#4F3422"/>
<path d="M168.436 121.729C172.898 124.129 178.189 123.805 182.236 120.545C184.43 118.777 186.134 116.263 188.535 114.786C191.9 112.726 195.754 113.408 199.326 114.413C204.973 115.987 210.339 117.706 216.238 116.879C221.233 116.181 225.65 113.781 229.03 109.661C232.587 105.314 235.018 99.7501 239.42 96.2951C244.756 92.1102 251.767 92.5158 257.888 93.8945C268.605 96.2789 281.752 102.378 290.779 92.2076C293.21 89.4663 297.078 81.7291 292.483 79.3285C290.986 78.5499 289 78.631 287.992 80.2368C287.044 81.7616 287.37 83.854 288.837 84.7624C289.593 85.2328 290.275 83.9513 289.519 83.4809C287.473 82.2157 289.83 79.9935 291.386 80.4477C292.32 80.7235 292.898 81.3885 293.091 82.5239C293.284 83.7242 292.972 85.1679 292.617 86.2871C291.801 88.9635 290.038 91.2343 287.992 92.905C283.798 96.3276 278.654 96.8953 273.585 96.214C263.788 94.8839 254.035 89.2879 244.015 92.3049C235.196 94.965 232.528 104.535 226.243 110.618C222.434 114.3 217.394 115.695 212.399 115.63C207.3 115.549 202.72 113.586 197.784 112.483C192.849 111.38 188.758 112.175 184.993 115.889C182.903 117.933 181.035 120.139 178.308 121.161C175.27 122.297 171.994 121.988 169.133 120.447C168.333 120.026 167.651 121.307 168.436 121.729Z" fill="#4F3422"/>
<path d="M97.2752 187.844C92.0726 182.004 83.4016 182.767 76.1091 184.486C68.8166 186.205 60.7385 188.346 54.3057 184.226C53.861 182.296 55.447 180.463 57.1219 179.685C58.8116 178.906 60.7088 178.711 62.2652 177.657C67.3492 174.186 65.1407 164.843 69.2612 160.074C72.5814 156.246 79.0291 156.603 81.4451 152.029C84.3058 146.611 79.1328 138.339 83.2386 133.992C84.2909 132.872 85.7435 132.353 87.0479 131.656C93.9402 128.006 97.4975 118.241 94.8147 110.391C97.957 110.277 100.803 112.613 102.596 115.435C104.39 118.258 105.383 121.583 106.672 124.713C109.37 131.218 115.936 136.765 121.035 141.226C121.702 141.81 119.968 142.669 120.264 143.545C120.546 144.389 120.398 145.313 120.235 146.189C118.619 155.305 116.974 164.486 113.772 173.083C110.571 181.68 105.635 189.741 98.6092 194.964L97.2752 187.844Z" fill="#FFCE5C"/>
<path d="M171.149 156.895C181.169 144.632 195.28 136.019 210.532 132.856C205.314 137.495 199.622 143.351 200.423 150.407C200.66 152.467 201.46 154.494 201.238 156.57C200.571 162.815 191.263 165.832 191.87 172.077C192.271 176.23 197.147 179.052 196.88 183.221C196.614 187.308 191.411 190.131 192.137 194.153C192.597 196.7 195.265 198.127 196.554 200.35C198.451 203.61 197.088 207.762 197.355 211.542C197.71 216.765 202.172 224.632 207.093 225.864C192.434 226.351 177.271 214.705 170.156 201.501C163.026 188.298 163.708 171.007 171.846 158.436L171.149 156.895Z" fill="#FFCE5C"/>
<path d="M184.993 216.862C174.751 209.563 164.731 201.517 162.063 187.649C159.543 174.575 164.553 161.047 174.41 153.261C174.929 152.84 174.425 151.883 173.891 152.304C164.079 160.058 158.847 173.213 160.803 186.351C163.026 201.307 173.565 210.066 184.474 217.819C185.037 218.208 185.541 217.251 184.993 216.862Z" fill="#4F3422"/>
<path d="M95.9115 188.135C101.396 171.169 109.637 154.754 120.976 141.615C121.421 141.096 120.709 140.301 120.25 140.837C108.792 154.137 100.477 170.698 94.9333 187.844C94.7109 188.509 95.6892 188.801 95.9115 188.135Z" fill="#4F3422"/>
<path d="M88.2485 177.56C89.3454 177.495 90.3236 177.819 91.2278 178.501C91.7614 178.906 92.2802 177.949 91.7466 177.544C90.7238 176.765 89.5084 176.376 88.2634 176.457C87.5964 176.473 87.5963 177.592 88.2485 177.56Z" fill="#4F3422"/>
<path d="M91.1684 169.271C92.3097 170.488 93.5252 171.591 94.8147 172.596C95.3483 173.018 95.8523 172.045 95.3335 171.639C94.1032 170.682 92.9619 169.628 91.8947 168.476C91.4056 167.99 90.6941 168.768 91.1684 169.271Z" fill="#4F3422"/>
<path d="M106.228 146.4C107.74 147.13 109.266 147.844 110.778 148.574C111.371 148.849 111.89 147.892 111.297 147.617C109.785 146.887 108.259 146.173 106.747 145.443C106.154 145.167 105.635 146.124 106.228 146.4Z" fill="#4F3422"/>
<path d="M110.586 143.14C111.015 144.584 111.89 145.784 113.105 146.514C113.683 146.854 114.187 145.897 113.624 145.557C112.646 144.957 111.92 144.016 111.564 142.848C111.371 142.167 110.393 142.459 110.586 143.14Z" fill="#4F3422"/>
<path d="M112.853 137.609C113.491 139.377 114.513 140.82 115.907 141.94C116.44 142.361 116.944 141.404 116.425 140.983C115.269 140.042 114.365 138.777 113.846 137.317C113.594 136.652 112.601 136.944 112.853 137.609Z" fill="#4F3422"/>
<path d="M170.126 161.501C171.505 161.128 172.883 160.755 174.262 160.382C174.899 160.204 174.632 159.133 173.995 159.312C172.616 159.685 171.238 160.058 169.859 160.431C169.222 160.593 169.489 161.664 170.126 161.501Z" fill="#4F3422"/>
<path d="M168.125 167.487C169.652 167.276 171.134 167.406 172.616 167.909C173.239 168.119 173.506 167.049 172.883 166.838C171.327 166.303 169.741 166.157 168.125 166.368C167.488 166.465 167.473 167.584 168.125 167.487Z" fill="#4F3422"/>
<path d="M164.938 191.59C165.991 192.791 167.043 193.991 168.096 195.208C168.555 195.727 169.267 194.932 168.822 194.429C167.769 193.229 166.717 192.028 165.665 190.812C165.205 190.277 164.494 191.071 164.938 191.59Z" fill="#4F3422"/>
<path d="M165.205 188.768C166.599 189.044 167.992 189.32 169.385 189.612C170.023 189.741 170.304 188.671 169.652 188.541C168.259 188.265 166.865 187.99 165.472 187.698C164.835 187.568 164.553 188.638 165.205 188.768Z" fill="#4F3422"/>
<path d="M164.657 184.016C165.887 184.745 167.206 185.135 168.585 185.167C169.237 185.183 169.237 184.08 168.585 184.048C167.369 184.016 166.228 183.675 165.161 183.042C164.583 182.718 164.079 183.675 164.657 184.016Z" fill="#4F3422"/>
<path d="M9.57244 106.173C10.9509 107.147 11.5141 108.979 11.0398 110.683C10.8471 111.364 11.8254 111.656 12.0181 110.975C12.6406 108.785 11.8254 106.449 10.0912 105.2C9.5428 104.811 9.02402 105.784 9.57244 106.173Z" fill="#4F3422"/>
<path d="M20.1406 72.824C19.0438 75.3544 20.6001 78.4201 23.1347 78.7769C23.7869 78.8743 23.772 77.755 23.1347 77.6577C21.4005 77.4144 20.274 75.0949 21.0299 73.3755C21.3116 72.7429 20.4222 72.1914 20.1406 72.824Z" fill="#4F3422"/>
<path d="M29.197 68.8339C28.6041 70.7317 29.612 72.8403 31.3462 73.4567C31.9687 73.6838 32.2355 72.6132 31.613 72.3862C30.3827 71.9482 29.7602 70.4397 30.1752 69.1258C30.3827 68.4608 29.4045 68.1688 29.197 68.8339Z" fill="#4F3422"/>
<path d="M37.0527 71.6075C37.5715 73.5378 38.7869 75.1274 40.4322 76.0357C41.0102 76.3601 41.529 75.4031 40.9509 75.0787C39.528 74.3001 38.4905 72.9863 38.0458 71.3156C37.8383 70.6181 36.86 70.91 37.0527 71.6075Z" fill="#4F3422"/>
<path d="M35.3037 104.892C36.534 104.373 37.7642 103.87 38.9944 103.351C39.6022 103.092 39.3354 102.021 38.7276 102.28C37.4974 102.8 36.2672 103.302 35.0369 103.821C34.4292 104.065 34.696 105.152 35.3037 104.892Z" fill="#FFCE5C"/>
<path d="M44.5676 100.902C45.7831 100.366 47.0133 99.8312 48.2287 99.2959C48.8216 99.0364 48.5696 97.9496 47.9619 98.2254C46.7465 98.7606 45.5163 99.2959 44.3008 99.8312C43.6931 100.091 43.9599 101.161 44.5676 100.902Z" fill="#FFCE5C"/>
<path d="M52.8383 98.3064C53.609 97.982 54.3798 97.6414 55.1505 97.317C55.7582 97.0574 55.4914 95.9869 54.8837 96.2464C54.113 96.5708 53.3422 96.9115 52.5715 97.2359C51.9638 97.4792 52.2306 98.566 52.8383 98.3064Z" fill="#FFCE5C"/>
<path d="M160.077 92.8888C161.144 86.8386 165.19 81.9887 170.63 80.3504C171.475 80.0909 171.119 78.6635 170.274 78.923C164.405 80.691 159.929 85.9465 158.772 92.4995C158.609 93.4403 159.914 93.8296 160.077 92.8888Z" fill="#251404"/>
<path d="M190.121 76.5547C193.249 74.4136 196.48 72.1427 198.333 68.5256C199.37 66.5142 200.067 64.3245 201.238 62.3942C202.542 60.2531 204.158 58.4364 205.981 56.8306C206.663 56.2304 205.699 55.1923 205.018 55.7763C201.994 58.4202 199.771 61.6643 198.155 65.5086C196.243 70.0827 193.249 72.6618 189.425 75.2733C188.698 75.7761 189.38 77.0575 190.121 76.5547Z" fill="#251404"/>
<path d="M214.385 52.0619C219.944 47.358 227.132 49.7586 233.12 51.9484C233.951 52.2565 234.306 50.8129 233.476 50.521C226.895 48.1365 219.425 45.9306 213.422 51.0238C212.725 51.5915 213.703 52.6296 214.385 52.0619Z" fill="#251404"/>
<path d="M258.066 46.6441C261.372 43.1567 266.041 41.9888 270.413 43.546C271.243 43.838 271.599 42.4106 270.769 42.1186C265.937 40.4155 260.749 41.7618 257.103 45.606C256.466 46.2548 257.429 47.3092 258.066 46.6441Z" fill="#FFCE5C"/>
<path d="M148.96 154.218L155.186 109.563C155.186 109.563 134.998 114.17 131.44 130.715L139.845 131.558L131.025 147.081C127.794 152.775 130.24 160.301 136.035 162.475C136.139 162.507 136.228 162.556 136.332 162.588C142.009 164.681 148.056 160.69 148.96 154.218Z" fill="#F6A460"/>
<path d="M158.461 129.855C156.371 131.153 153.718 130.342 152.532 128.055C151.347 125.768 152.088 122.864 154.178 121.567C156.268 120.269 158.921 121.08 160.107 123.367C161.278 125.654 160.551 128.558 158.461 129.855Z" fill="#F6A460"/>
<path d="M154.43 126.563C156.001 126.238 157.572 125.93 159.143 125.638C159.78 125.525 159.514 124.454 158.876 124.568C157.305 124.859 155.734 125.168 154.163 125.492C153.525 125.622 153.792 126.692 154.43 126.563Z" fill="#4F3422"/>
<path d="M139.83 131.559L131.529 146.206L146.07 131.705L139.83 131.559Z" fill="#4F3422"/>
<path d="M137.28 122.183C137.28 122.183 142.72 123.74 147.3 124.13C147.3 124.13 138.763 129.239 134.153 127.374L137.28 122.183Z" fill="white"/>
<path d="M145.27 113.278C142.587 114.3 139.86 115.581 137.414 117.155C137.103 117.349 137.058 117.933 137.414 118.112C138.422 118.647 139.415 119.166 140.423 119.701C141.016 120.01 141.52 119.053 140.942 118.744C139.934 118.209 138.941 117.69 137.933 117.155C137.933 117.479 137.933 117.787 137.933 118.112C140.304 116.587 142.943 115.354 145.536 114.349C146.159 114.121 145.892 113.051 145.27 113.278Z" fill="#4F3422"/>
<path d="M147.048 119.62C148.219 118.761 150.339 119.896 150.917 121.129C151.213 121.761 152.088 121.21 151.791 120.561C150.961 118.809 148.145 117.447 146.529 118.647C145.996 119.053 146.514 120.026 147.048 119.62Z" fill="#4F3422"/>
</g>
<defs>
<clipPath id="clip0_2988_3830">
<rect width="270" height="270" rx="135" fill="white"/>
</clipPath>
</defs>
</svg>
