<svg width="375" height="587" viewBox="0 0 375 587" fill="none" xmlns="http://www.w3.org/2000/svg">
<mask id="mask0_2869_2224" style="mask-type:luminance" maskUnits="userSpaceOnUse" x="-106" y="44" width="729" height="498">
<path d="M307.087 73.4403C205.222 27.0909 64.6583 34.5854 29.7094 102.988C7.48603 146.42 35.9799 203.12 5.24216 240.716C-14.6759 265.073 -25.096 268.022 -49.5018 287.864C-70.4035 304.849 -88.5695 321.466 -98.4056 347.666C-112.084 384.033 -106.336 425.96 -84.9425 457.965C-66.5306 485.517 -34.5325 499.769 -4.68614 511.195C37.732 527.412 84.146 534.293 129.361 532.296C191.79 529.562 253.665 508.123 315.602 516.416C345.663 520.44 374.403 531.375 404.157 537.303C461.514 548.698 532.426 539.33 566.76 485.271C581.207 462.511 586.371 435.604 583.143 408.913C579.578 379.488 571.125 349.202 577.149 319.501C583.85 286.512 607.887 259.698 618.092 227.662C635.551 172.896 604.291 107.135 550.93 86.3714C529.967 78.2011 507.067 76.4811 484.567 76.3582C424.444 75.9896 361.893 98.3811 307.087 73.4403Z" fill="white"/>
</mask>
<g mask="url(#mask0_2869_2224)">
<path d="M678 0H-149V562.458H678V0Z" fill="#F5F5F5"/>
</g>
<mask id="mask1_2869_2224" style="mask-type:luminance" maskUnits="userSpaceOnUse" x="-106" y="44" width="729" height="498">
<path d="M307.087 73.4403C205.222 27.0909 64.6583 34.5854 29.7094 102.988C7.48603 146.42 35.9799 203.12 5.24216 240.716C-14.6759 265.073 -25.096 268.022 -49.5018 287.864C-70.4035 304.849 -88.5695 321.466 -98.4056 347.666C-112.084 384.033 -106.336 425.96 -84.9425 457.965C-66.5306 485.517 -34.5325 499.769 -4.68614 511.195C37.732 527.412 84.146 534.293 129.361 532.296C191.79 529.562 253.665 508.123 315.602 516.416C345.663 520.44 374.403 531.375 404.157 537.303C461.514 548.698 532.426 539.33 566.76 485.271C581.207 462.511 586.371 435.604 583.143 408.913C579.578 379.488 571.125 349.202 577.149 319.501C583.85 286.512 607.887 259.698 618.092 227.662C635.551 172.896 604.291 107.135 550.93 86.3714C529.967 78.2011 507.067 76.4811 484.567 76.3582C424.444 75.9896 361.893 98.3811 307.087 73.4403Z" fill="white"/>
</mask>
<g mask="url(#mask1_2869_2224)">
<path d="M80.4575 439.751C65.2423 478.145 54.5763 525.631 45.2628 562.458L549.362 570.967C561.996 528.272 566.576 467.825 558.369 423.84C555.909 410.694 551.36 397.794 546.719 385.6C494.495 427.956 420.54 457.996 351.811 466.903C260.796 478.913 164.433 475.872 80.4575 439.751Z" fill="#736B66"/>
</g>
<path d="M88.1727 128.544L78.3059 133.919C72.312 138.403 73.1112 139.847 71.728 147.218L68.2546 169.118C68.1316 169.856 67.0558 169.856 66.9329 169.118L63.521 147.341C62.1685 140 62.2915 138.403 56.3591 133.919L47.0148 128.544C46.6459 128.267 46.6459 127.745 47.0148 127.468L57.5886 122.431C63.4902 117.947 63.1521 114.967 64.5046 107.657L66.9329 86.955C67.0558 86.2178 68.1316 86.2178 68.2546 86.955L71.1132 108.394C72.4349 115.643 73.1727 118.684 79.0436 123.168L88.2034 127.438C88.5415 127.745 88.5415 128.298 88.1727 128.544Z" fill="#C9C7C5"/>
<path d="M127.333 180.913L120.478 184.66C116.298 187.763 116.882 188.776 115.898 193.906L113.501 209.11C113.408 209.632 112.671 209.601 112.579 209.11L110.212 193.998C109.259 188.899 109.382 187.793 105.232 184.66L98.7773 180.913C98.5314 180.729 98.5314 180.36 98.7773 180.176L106.124 176.674C110.212 173.541 109.997 171.484 110.919 166.415L112.609 152.041C112.701 151.519 113.439 151.519 113.531 152.041L115.499 166.938C116.421 171.975 116.943 174.064 121.001 177.197L127.363 180.176C127.579 180.36 127.579 180.729 127.333 180.913Z" fill="#C9C7C5"/>
<path d="M223.388 200.479C202.855 187.425 196.185 157.999 209.034 137.021C221.882 116.042 252.251 106.674 274.597 116.841C283.511 120.895 291.626 127.683 301.616 127.745C311.452 127.806 319.997 121.264 328.942 117.025C346.093 108.916 368.225 109.684 381.841 121.817C388.542 127.776 392.969 136.069 400.53 141.014C410.243 147.372 423.276 147.034 435.11 144.976C446.944 142.918 458.778 139.386 470.674 140.215C482.538 141.045 493.85 146.389 501.596 154.867C512.139 166.385 516.903 183.739 531.596 189.913C537.528 192.401 544.26 192.616 550.776 193.353C576.658 196.24 602.447 209.601 612.344 232.484C622.58 256.135 621.166 298.491 595.069 304.696C536.76 318.518 591.504 350.4 528.246 374.051C515.766 378.72 497.262 349.448 486.104 342.967C479.065 338.882 474.608 331.787 468.399 326.626C459.362 319.04 446.452 315.845 434.403 318.18C404.403 324.046 384.792 360.413 354.423 359.215C347.446 358.939 339.546 355.13 339.3 348.434C339.177 345.363 340.714 342.445 342.251 339.711C349.444 326.903 357.774 313.88 358.542 299.536C359.28 285.407 336.565 290.536 324.362 282.98C311.698 275.148 282.835 299.689 273.399 288.417C268.019 281.997 260.212 260.681 256.032 253.463C247.364 238.443 260.304 198.083 242.599 202.567L223.388 200.479Z" fill="#3F3C36"/>
<path d="M206.329 171.023C200.98 167.368 192.989 169.641 187.548 172.159C180.939 175.231 178.019 180.913 179.648 188.07C180.693 192.646 183.275 197.131 182.353 201.953C181.093 208.618 174.822 206.56 170.15 208.68C167.691 209.785 166.062 211.843 165.109 214.301C164.341 216.266 162.988 221.427 163.88 223.116C163.019 221.519 160.591 222.932 161.452 224.529C162.159 225.88 163.726 226.832 165.263 226.065C167.384 225.02 166.523 222.072 166.708 220.137C166.923 217.925 167.353 215.437 168.613 213.563C170.488 210.799 173.439 210.799 176.39 210.338C179.249 209.878 181.831 209.14 183.552 206.683C187.948 200.356 183.306 193.046 182.169 186.595C181.093 180.422 184.566 176.429 189.976 174.248C194.402 172.466 200.704 170.623 204.915 173.511C206.421 174.463 207.835 172.036 206.329 171.023Z" fill="#3F3C36"/>
<path d="M205.007 167.828C197.569 165.095 189.792 160.365 181.616 163.129C179.003 164.02 176.544 165.678 175.13 168.074C174.269 169.548 173.9 171.207 173.655 172.866C173.47 173.971 173.624 176.122 172.948 177.074C171.288 178.087 169.597 179.07 167.937 180.084C167.476 179.777 166.984 179.592 166.462 179.531C159.976 179.316 156.995 183.923 155.273 189.667C154.136 193.506 153.583 197.714 151.093 200.97C147.773 205.301 142.025 206.56 137.015 204.748C136.247 204.472 135.57 205.086 135.294 205.731C134.648 207.298 134.802 208.373 135.786 209.755C136.831 211.198 139.29 209.816 138.214 208.342C138.152 207.728 138.091 207.113 138.029 206.499C137.445 206.837 136.861 207.144 136.308 207.482C142.271 209.601 149.279 207.943 153.275 202.875C157.456 197.561 156.318 186.012 162.804 183.032C166.4 181.374 169.689 184.845 173.193 181.957C175.898 179.715 175.898 176.244 176.544 173.111C179.495 158.982 196.062 167.583 204.3 170.593C205.991 171.146 206.698 168.443 205.007 167.828Z" fill="#3F3C36"/>
<path d="M279.515 341.001C282.989 361.918 303.46 367.293 322.026 366.403C345.54 365.297 368.225 357.342 387.62 344.165C396.903 337.868 405.417 330.497 413.286 322.511C415.868 319.9 433.85 295.88 435.479 296.188C409.844 291.304 383.163 290.567 357.805 290.597C333.03 290.628 310.591 290.29 289.567 291.181C280.776 306.17 276.565 323.063 279.515 341.001Z" fill="#C9C7C5"/>
<path d="M481.34 310.869C466.831 303.836 451.34 299.228 435.479 296.218C433.819 295.911 414.331 321.558 411.503 324.323C402.559 333.169 392.784 341.186 382.057 347.789C361.155 360.659 332.2 367.416 308.409 365.113C273.214 361.673 274.72 316.521 289.567 291.212C252.681 292.778 220.222 298.153 187.579 316.091C148.419 337.623 117.712 374.051 95.7649 414.81C91.6461 422.489 87.8038 430.874 84.2075 439.751C169.904 475.872 268.204 478.913 361.063 466.903C431.206 457.996 493.42 427.956 546.719 385.6C534.393 353.84 513.86 326.596 481.34 310.869Z" fill="#736B66"/>
<path d="M377.2 294.314L254.71 183.125C239.095 189.298 221.636 185.459 209.157 174.77C201.073 204.994 194.372 256.135 226.032 292.625L252.036 262.831C252.036 262.831 265.714 296.618 279.239 329.821C291.903 360.905 331.831 369.566 356.268 346.591C356.575 346.284 356.913 345.977 357.221 345.67C377.446 326.534 397.825 313.02 377.2 294.314Z" fill="#F6A360"/>
<path d="M254.71 183.125L217.702 149.522C217.702 149.522 213.276 159.474 209.187 174.77C221.636 185.459 239.095 189.298 254.71 183.125Z" fill="#F6A360"/>
<path d="M297.19 187.885C295.96 199.066 285.878 207.144 274.69 205.915C263.501 204.687 255.417 194.612 256.646 183.432C257.876 172.251 267.958 164.173 279.146 165.402C290.335 166.63 298.419 176.705 297.19 187.885Z" fill="#F6A360"/>
<path d="M273.706 194.796C276.903 188.039 280.13 181.282 283.45 174.616C284.249 172.989 281.821 171.576 281.022 173.204C277.702 179.899 274.474 186.657 271.278 193.383C270.478 195.011 272.907 196.424 273.706 194.796Z" fill="#3F3C36"/>
<path d="M252.036 262.861L280.161 331.08L269.649 239.579L252.036 262.861Z" fill="#3F3C36"/>
<path d="M204.362 196.885C200.581 209.509 197.599 223.024 196.37 236.17C196.278 237.276 197.63 237.859 198.491 237.368C203.071 234.88 207.65 232.423 212.23 229.935C213.829 229.075 212.415 226.648 210.816 227.508C206.237 229.996 201.657 232.453 197.077 234.941C197.784 235.341 198.491 235.74 199.198 236.17C200.396 223.3 203.378 210 207.097 197.653C207.589 195.902 204.884 195.134 204.362 196.885Z" fill="#3F3C36"/>
<path d="M227.507 207.728C231.964 202.629 238.142 199.957 244.935 200.264C246.749 200.356 246.749 197.53 244.935 197.469C237.466 197.131 230.458 200.141 225.54 205.762C224.341 207.083 226.308 209.079 227.507 207.728Z" fill="#3F3C36"/>
<path d="M232.921 236.7C225.586 233.092 217.567 240.823 221.396 248.239C222.209 249.835 224.873 248.872 224.03 247.278C221.412 242.165 226.407 236.63 231.718 239.267C233.326 240.057 234.532 237.521 232.921 236.7Z" fill="#3F3C36"/>
<path d="M225.724 199.527C226.401 201.124 227.077 202.721 227.784 204.318C228.091 205.025 229.105 205.178 229.72 204.81C230.458 204.41 230.519 203.581 230.212 202.875C229.536 201.277 228.86 199.68 228.153 198.083C227.845 197.376 226.831 197.223 226.216 197.591C225.478 197.991 225.417 198.82 225.724 199.527Z" fill="#3F3C36"/>
<path d="M237.435 198.697C236.821 196.793 236.175 194.889 235.56 192.984C235.007 191.264 232.271 192.001 232.855 193.721C233.47 195.626 234.116 197.53 234.73 199.434C235.284 201.154 237.989 200.417 237.435 198.697Z" fill="#3F3C36"/>
<path d="M243.952 198.298C243.706 197.008 244.044 195.626 244.905 194.612C246.073 193.23 244.075 191.233 242.907 192.616C241.37 194.459 240.786 196.67 241.247 199.035C241.585 200.817 244.29 200.079 243.952 198.298Z" fill="#3F3C36"/>
<path d="M223.942 174.678C228.306 172.989 233.009 174.125 236.052 177.688C237.22 179.07 239.218 177.074 238.05 175.691C234.392 171.453 228.429 169.917 223.204 171.944C221.544 172.62 222.251 175.323 223.942 174.678Z" fill="#3F3C36"/>
<path d="M245.673 400.343C230.151 413.919 203.163 429.676 185.181 440.212C191.052 440.672 203.562 444.604 200.888 449.518C198.214 454.433 192.528 457.197 187.241 459.624C178.019 463.832 168.798 468.07 159.577 472.278C155.489 474.152 151.216 476.056 146.667 476.148C142.118 476.241 137.2 473.937 136.001 469.852C135.232 467.302 143.531 457.873 141.257 456.306C139.075 454.801 128.286 462.204 125.888 463.432C101.083 476.364 76.2465 489.325 51.4411 502.256C48.8899 503.577 46.1235 504.959 43.2649 504.591C40.1911 504.192 37.855 501.949 35.7648 499.799C-1.70452 461.313 -39.1739 422.796 -76.6125 384.31C-56.0489 367.017 -31.9812 353.379 -6.10002 344.411C9.51477 338.974 26.021 335.135 40.0374 326.688L245.673 400.343Z" fill="#ACA9A5"/>
<path d="M248.409 396.258C220.96 406.179 195.571 421.383 174.238 440.734C179.341 440.212 184.597 441.194 189.116 443.529C181.523 449.18 173.47 454.218 165.017 458.579C159.577 461.405 153.183 463.985 147.374 461.989C141.564 459.992 138.859 451.054 144.269 448.167C111.503 460.084 78.767 472.002 46.0005 483.95C44.0333 484.657 41.9124 485.394 39.8529 484.902C37.7935 484.38 36.2874 482.722 34.9349 481.155C-3.08775 436.771 -36.9301 387.013 -87.4015 356.082C-78.3031 352.581 -69.174 349.11 -60.0756 345.608C-73.8154 335.38 -45.967 331.387 -61.6125 324.077C-19.1636 318.548 24.8529 313.726 71.5436 329.207C71.5436 329.207 101.574 270.141 144.454 261.971L248.409 396.258Z" fill="white"/>
<path d="M125.734 242.62C99.1769 260.988 55.4677 291.519 39.0538 317.197C-5.48528 311.054 -51.469 311.207 -96.5306 317.719C-43.1391 355.898 4.28934 400.22 44.2792 449.242C45.355 450.563 46.5231 451.945 48.2444 452.621C50.7341 453.603 53.7157 452.805 56.3899 452.068C91.2773 442.362 127.763 439.29 163.911 436.28C188.777 409.496 220.345 387.32 255.632 371.87L125.734 242.62Z" fill="white"/>
<mask id="mask2_2869_2224" style="mask-type:luminance" maskUnits="userSpaceOnUse" x="-97" y="242" width="353" height="212">
<path d="M125.734 242.62C99.1769 260.988 55.4677 291.519 39.0538 317.197C-5.48528 311.054 -51.469 311.207 -96.5306 317.719C-43.1391 355.898 4.28934 400.22 44.2792 449.242C45.355 450.563 46.5231 451.945 48.2444 452.621C50.7341 453.603 53.7157 452.805 56.3899 452.068C91.2773 442.362 127.763 439.29 163.911 436.28C188.777 409.496 220.345 387.32 255.632 371.87L125.734 242.62Z" fill="white"/>
</mask>
<g mask="url(#mask2_2869_2224)">
<path d="M-31.305 350.861C-7.14509 342.414 18.3058 338.913 43.8489 340.51C45.6624 340.633 45.6624 337.807 43.8489 337.684C18.0906 336.056 -7.66763 339.619 -32.0427 348.127C-33.764 348.741 -33.0263 351.444 -31.305 350.861Z" fill="#C9C7C5"/>
</g>
<mask id="mask3_2869_2224" style="mask-type:luminance" maskUnits="userSpaceOnUse" x="-97" y="242" width="353" height="212">
<path d="M125.734 242.62C99.1769 260.988 55.4677 291.519 39.0538 317.197C-5.48528 311.054 -51.469 311.207 -96.5306 317.719C-43.1391 355.898 4.28934 400.22 44.2792 449.242C45.355 450.563 46.5231 451.945 48.2444 452.621C50.7341 453.603 53.7157 452.805 56.3899 452.068C91.2773 442.362 127.763 439.29 163.911 436.28C188.777 409.496 220.345 387.32 255.632 371.87L125.734 242.62Z" fill="white"/>
</mask>
<g mask="url(#mask3_2869_2224)">
<path d="M-20.6082 361.488C2.35289 352.581 27.1583 349.755 51.6256 348.864C53.4391 348.803 53.4391 345.977 51.6256 346.069C26.9431 346.991 1.83034 349.816 -21.3459 358.816C-23.0365 359.43 -22.2988 362.133 -20.6082 361.488Z" fill="#C9C7C5"/>
</g>
<mask id="mask4_2869_2224" style="mask-type:luminance" maskUnits="userSpaceOnUse" x="-97" y="242" width="353" height="212">
<path d="M125.734 242.62C99.1769 260.988 55.4677 291.519 39.0538 317.197C-5.48528 311.054 -51.469 311.207 -96.5306 317.719C-43.1391 355.898 4.28934 400.22 44.2792 449.242C45.355 450.563 46.5231 451.945 48.2444 452.621C50.7341 453.603 53.7157 452.805 56.3899 452.068C91.2773 442.362 127.763 439.29 163.911 436.28C188.777 409.496 220.345 387.32 255.632 371.87L125.734 242.62Z" fill="white"/>
</mask>
<g mask="url(#mask4_2869_2224)">
<path d="M-3.85616 371.471C18.0599 362.103 41.9739 360.014 65.4575 358.11C67.2403 357.956 67.2711 355.161 65.4575 355.284C41.4206 357.25 17.1377 359.43 -5.2701 369.044C-6.92994 369.751 -5.48527 372.177 -3.85616 371.471Z" fill="#C9C7C5"/>
</g>
<mask id="mask5_2869_2224" style="mask-type:luminance" maskUnits="userSpaceOnUse" x="-97" y="242" width="353" height="212">
<path d="M125.734 242.62C99.1769 260.988 55.4677 291.519 39.0538 317.197C-5.48528 311.054 -51.469 311.207 -96.5306 317.719C-43.1391 355.898 4.28934 400.22 44.2792 449.242C45.355 450.563 46.5231 451.945 48.2444 452.621C50.7341 453.603 53.7157 452.805 56.3899 452.068C91.2773 442.362 127.763 439.29 163.911 436.28C188.777 409.496 220.345 387.32 255.632 371.87L125.734 242.62Z" fill="white"/>
</mask>
<g mask="url(#mask5_2869_2224)">
<path d="M10.3139 386.736C32.8755 378.351 56.3899 373.037 80.3653 370.949C82.1481 370.795 82.1789 367.969 80.3653 368.123C56.144 370.242 32.3529 375.525 9.5455 384.003C7.88566 384.648 8.62337 387.351 10.3139 386.736Z" fill="#C9C7C5"/>
</g>
<mask id="mask6_2869_2224" style="mask-type:luminance" maskUnits="userSpaceOnUse" x="-97" y="242" width="353" height="212">
<path d="M125.734 242.62C99.1769 260.988 55.4677 291.519 39.0538 317.197C-5.48528 311.054 -51.469 311.207 -96.5306 317.719C-43.1391 355.898 4.28934 400.22 44.2792 449.242C45.355 450.563 46.5231 451.945 48.2444 452.621C50.7341 453.603 53.7157 452.805 56.3899 452.068C91.2773 442.362 127.763 439.29 163.911 436.28C188.777 409.496 220.345 387.32 255.632 371.87L125.734 242.62Z" fill="white"/>
</mask>
<g mask="url(#mask6_2869_2224)">
<path d="M26.2976 400.251C45.9083 393.033 65.8264 385.846 86.974 385.2C88.7875 385.139 88.7875 382.344 86.974 382.375C65.5805 383.02 45.4165 390.207 25.5599 397.517C23.8693 398.162 24.607 400.896 26.2976 400.251Z" fill="#C9C7C5"/>
</g>
<mask id="mask7_2869_2224" style="mask-type:luminance" maskUnits="userSpaceOnUse" x="-97" y="242" width="353" height="212">
<path d="M125.734 242.62C99.1769 260.988 55.4677 291.519 39.0538 317.197C-5.48528 311.054 -51.469 311.207 -96.5306 317.719C-43.1391 355.898 4.28934 400.22 44.2792 449.242C45.355 450.563 46.5231 451.945 48.2444 452.621C50.7341 453.603 53.7157 452.805 56.3899 452.068C91.2773 442.362 127.763 439.29 163.911 436.28C188.777 409.496 220.345 387.32 255.632 371.87L125.734 242.62Z" fill="white"/>
</mask>
<g mask="url(#mask7_2869_2224)">
<path d="M40.2218 413.397C47.5066 407.807 58.9718 407.285 67.7014 405.473C78.3366 403.261 89.1871 400.374 100.068 402.309C101.851 402.616 102.589 399.913 100.806 399.606C89.9555 397.671 79.351 400.19 68.7465 402.401C63.06 403.568 57.3427 404.735 51.6562 405.933C47.0148 406.916 42.6193 408.022 38.8079 410.971C37.3939 412.076 38.7771 414.503 40.2218 413.397Z" fill="#C9C7C5"/>
</g>
<mask id="mask8_2869_2224" style="mask-type:luminance" maskUnits="userSpaceOnUse" x="-97" y="242" width="353" height="212">
<path d="M125.734 242.62C99.1769 260.988 55.4677 291.519 39.0538 317.197C-5.48528 311.054 -51.469 311.207 -96.5306 317.719C-43.1391 355.898 4.28934 400.22 44.2792 449.242C45.355 450.563 46.5231 451.945 48.2444 452.621C50.7341 453.603 53.7157 452.805 56.3899 452.068C91.2773 442.362 127.763 439.29 163.911 436.28C188.777 409.496 220.345 387.32 255.632 371.87L125.734 242.62Z" fill="white"/>
</mask>
<g mask="url(#mask8_2869_2224)">
<path d="M50.7649 428.356C72.0047 417.298 95.8879 414.073 119.31 411.063C121.093 410.848 121.093 408.022 119.31 408.237C95.3346 411.309 71.0211 414.626 49.3202 425.929C47.7526 426.758 49.1665 429.185 50.7649 428.356Z" fill="#C9C7C5"/>
</g>
<mask id="mask9_2869_2224" style="mask-type:luminance" maskUnits="userSpaceOnUse" x="-97" y="242" width="353" height="212">
<path d="M125.734 242.62C99.1769 260.988 55.4677 291.519 39.0538 317.197C-5.48528 311.054 -51.469 311.207 -96.5306 317.719C-43.1391 355.898 4.28934 400.22 44.2792 449.242C45.355 450.563 46.5231 451.945 48.2444 452.621C50.7341 453.603 53.7157 452.805 56.3899 452.068C91.2773 442.362 127.763 439.29 163.911 436.28C188.777 409.496 220.345 387.32 255.632 371.87L125.734 242.62Z" fill="white"/>
</mask>
<g mask="url(#mask9_2869_2224)">
<path d="M74.4637 325.183C92.2916 306.201 111.257 286.389 136.892 278.618C138.613 278.096 137.876 275.393 136.154 275.915C110.027 283.84 90.6625 303.866 72.4657 323.217C71.2362 324.507 73.2034 326.504 74.4637 325.183Z" fill="#C9C7C5"/>
</g>
<mask id="mask10_2869_2224" style="mask-type:luminance" maskUnits="userSpaceOnUse" x="-97" y="242" width="353" height="212">
<path d="M125.734 242.62C99.1769 260.988 55.4677 291.519 39.0538 317.197C-5.48528 311.054 -51.469 311.207 -96.5306 317.719C-43.1391 355.898 4.28934 400.22 44.2792 449.242C45.355 450.563 46.5231 451.945 48.2444 452.621C50.7341 453.603 53.7157 452.805 56.3899 452.068C91.2773 442.362 127.763 439.29 163.911 436.28C188.777 409.496 220.345 387.32 255.632 371.87L125.734 242.62Z" fill="white"/>
</mask>
<g mask="url(#mask10_2869_2224)">
<path d="M87.2506 333.845C101.421 313.726 124.167 302.699 145.806 292.41C147.435 291.642 146.021 289.215 144.392 289.983C122.23 300.518 99.3306 311.852 84.8224 332.401C83.7773 333.906 86.2056 335.319 87.2506 333.845Z" fill="#C9C7C5"/>
</g>
<mask id="mask11_2869_2224" style="mask-type:luminance" maskUnits="userSpaceOnUse" x="-97" y="242" width="353" height="212">
<path d="M125.734 242.62C99.1769 260.988 55.4677 291.519 39.0538 317.197C-5.48528 311.054 -51.469 311.207 -96.5306 317.719C-43.1391 355.898 4.28934 400.22 44.2792 449.242C45.355 450.563 46.5231 451.945 48.2444 452.621C50.7341 453.603 53.7157 452.805 56.3899 452.068C91.2773 442.362 127.763 439.29 163.911 436.28C188.777 409.496 220.345 387.32 255.632 371.87L125.734 242.62Z" fill="white"/>
</mask>
<g mask="url(#mask11_2869_2224)">
<path d="M100.867 343.919C106.892 334.09 116.113 327.21 125.734 321.159C135.847 314.832 146.359 309.211 157.21 304.204C158.839 303.436 157.425 301.01 155.796 301.778C144.054 307.214 132.589 313.357 121.708 320.391C112.609 326.289 104.156 333.138 98.4392 342.506C97.4863 344.073 99.9146 345.486 100.867 343.919Z" fill="#C9C7C5"/>
</g>
<mask id="mask12_2869_2224" style="mask-type:luminance" maskUnits="userSpaceOnUse" x="-97" y="242" width="353" height="212">
<path d="M125.734 242.62C99.1769 260.988 55.4677 291.519 39.0538 317.197C-5.48528 311.054 -51.469 311.207 -96.5306 317.719C-43.1391 355.898 4.28934 400.22 44.2792 449.242C45.355 450.563 46.5231 451.945 48.2444 452.621C50.7341 453.603 53.7157 452.805 56.3899 452.068C91.2773 442.362 127.763 439.29 163.911 436.28C188.777 409.496 220.345 387.32 255.632 371.87L125.734 242.62Z" fill="white"/>
</mask>
<g mask="url(#mask12_2869_2224)">
<path d="M111.134 354.485C130.437 339.035 151.769 326.35 174.546 316.675C176.206 315.968 174.761 313.542 173.132 314.248C150.109 324.016 128.654 336.885 109.136 352.489C107.722 353.625 109.72 355.622 111.134 354.485Z" fill="#C9C7C5"/>
</g>
<mask id="mask13_2869_2224" style="mask-type:luminance" maskUnits="userSpaceOnUse" x="-97" y="242" width="353" height="212">
<path d="M125.734 242.62C99.1769 260.988 55.4677 291.519 39.0538 317.197C-5.48528 311.054 -51.469 311.207 -96.5306 317.719C-43.1391 355.898 4.28934 400.22 44.2792 449.242C45.355 450.563 46.5231 451.945 48.2444 452.621C50.7341 453.603 53.7157 452.805 56.3899 452.068C91.2773 442.362 127.763 439.29 163.911 436.28C188.777 409.496 220.345 387.32 255.632 371.87L125.734 242.62Z" fill="white"/>
</mask>
<g mask="url(#mask13_2869_2224)">
<path d="M123.429 367.447C141.503 354.577 160.13 341.554 182.138 336.609C183.89 336.21 183.153 333.507 181.4 333.906C159.146 338.913 140.304 352.028 122.015 365.021C120.54 366.065 121.923 368.491 123.429 367.447Z" fill="#C9C7C5"/>
</g>
<mask id="mask14_2869_2224" style="mask-type:luminance" maskUnits="userSpaceOnUse" x="-97" y="242" width="353" height="212">
<path d="M125.734 242.62C99.1769 260.988 55.4677 291.519 39.0538 317.197C-5.48528 311.054 -51.469 311.207 -96.5306 317.719C-43.1391 355.898 4.28934 400.22 44.2792 449.242C45.355 450.563 46.5231 451.945 48.2444 452.621C50.7341 453.603 53.7157 452.805 56.3899 452.068C91.2773 442.362 127.763 439.29 163.911 436.28C188.777 409.496 220.345 387.32 255.632 371.87L125.734 242.62Z" fill="white"/>
</mask>
<g mask="url(#mask14_2869_2224)">
<path d="M142.21 380.409C160.437 366.556 180.909 356.113 202.825 349.509C204.546 348.987 203.808 346.284 202.087 346.806C179.925 353.472 159.208 363.976 140.796 377.982C139.351 379.057 140.765 381.515 142.21 380.409Z" fill="#C9C7C5"/>
</g>
<mask id="mask15_2869_2224" style="mask-type:luminance" maskUnits="userSpaceOnUse" x="-97" y="242" width="353" height="212">
<path d="M125.734 242.62C99.1769 260.988 55.4677 291.519 39.0538 317.197C-5.48528 311.054 -51.469 311.207 -96.5306 317.719C-43.1391 355.898 4.28934 400.22 44.2792 449.242C45.355 450.563 46.5231 451.945 48.2444 452.621C50.7341 453.603 53.7157 452.805 56.3899 452.068C91.2773 442.362 127.763 439.29 163.911 436.28C188.777 409.496 220.345 387.32 255.632 371.87L125.734 242.62Z" fill="white"/>
</mask>
<g mask="url(#mask15_2869_2224)">
<path d="M-53.4362 334.182C-33.5796 331.295 -13.5693 329.483 6.47172 328.746C15.6316 328.408 24.8222 328.316 34.0128 328.439C40.8058 328.531 49.0128 330.65 54.2997 325.336C60.4473 319.163 66.0415 312.375 72.1891 306.201C78.06 300.303 84.1154 294.621 90.3551 289.092C103.972 277.052 118.419 265.994 133.542 255.889C135.048 254.876 133.634 252.449 132.128 253.463C103.91 272.322 78.0293 294.621 55.3755 319.931C54.1153 321.343 52.9165 323.094 51.4104 324.261C48.8284 326.289 46.1849 325.92 43.2034 325.828C38.9308 325.705 34.6275 325.613 30.355 325.582C20.5804 325.521 10.775 325.705 1.0004 326.135C-17.473 326.995 -35.8542 328.777 -54.1739 331.449C-55.9567 331.725 -55.1883 334.428 -53.4362 334.182Z" fill="#ACA9A5"/>
</g>
<path d="M173.193 445.833C168.859 447.092 164.525 448.474 160.161 449.641C159.7 449.764 157.702 450.593 157.271 450.317C156.042 449.426 157.548 447.983 158.04 447.491C159.638 445.833 163.48 445.433 165.663 445.31C167.015 445.218 167.015 443.13 165.663 443.191C162.927 443.345 150.632 446.14 153.675 451.054C154.689 452.713 157.21 452.528 158.839 452.221C163.849 451.208 168.829 449.334 173.747 447.89C175.038 447.491 174.484 445.464 173.193 445.833Z" fill="#3F3C36"/>
<path d="M125.949 446.877C99.2076 451.576 73.2957 459.869 48.7976 471.572C49.3509 471.633 49.9349 471.726 50.4882 471.787C14.9861 434.499 -22.2988 398.961 -61.2436 365.297C-62.5961 364.13 -64.594 366.096 -63.2416 367.294C-24.2968 400.957 12.9881 436.495 48.4903 473.783C48.9513 474.275 49.6276 474.275 50.1808 473.998C74.4637 462.388 100.16 454.248 126.656 449.58C128.501 449.273 127.732 446.57 125.949 446.877Z" fill="#3F3C36"/>
<path d="M153.152 424.793C122.261 385.323 84.9453 351.26 43.1727 323.586C42.0354 322.848 40.9903 324.661 42.0968 325.398C83.7158 352.98 120.878 386.951 151.677 426.267C152.476 427.373 153.982 425.868 153.152 424.793Z" fill="#3F3C36"/>
<path d="M-63.4567 345.824C-23.6513 378.259 14.6787 412.414 51.5026 448.198C52.7936 449.457 54.7915 447.46 53.5005 446.201C16.7074 410.418 -21.6534 376.262 -61.4588 343.827C-62.842 342.691 -64.8707 344.687 -63.4567 345.824Z" fill="#3F3C36"/>
<path d="M54.2382 448.781C65.5497 447.123 76.892 445.863 88.2957 444.972C90.0785 444.819 90.1092 442.024 88.2957 442.147C76.6461 443.037 65.0579 444.358 53.4698 446.048C51.7177 446.355 52.4554 449.058 54.2382 448.781Z" fill="#3F3C36"/>
<path d="M212.2 141.505C206.667 133.519 216.749 122.769 222.251 117.517C228.306 111.742 235.591 107.258 243.399 104.278C258.091 98.6575 274.72 98.2275 289.413 104.125C298.081 107.596 305.827 111.865 315.417 109.316C323.563 107.135 331.032 102.282 338.163 97.9511C353.009 88.9208 368.163 80.4434 386.083 84.9278C413.747 91.8695 433.389 118.561 462.774 120.527C480.909 121.755 500.766 108.609 517.795 118.991C530.182 126.516 535.776 141.29 547.242 149.952C560.059 159.597 580.438 158.184 590.459 144.976C594.24 140 596.699 131.646 591.104 126.946C587.078 123.568 580.254 123.506 577.641 128.544C576.811 130.141 579.24 131.584 580.069 129.956C582.19 125.871 588.369 126.946 590.551 130.479C593.809 135.669 589.444 142.611 585.602 146.082C579.086 152.01 569.68 154.529 561.043 153.024C545.705 150.321 538.297 135.454 528.799 124.888C524.711 120.312 519.916 116.227 514.075 114.046C506.299 111.159 497.969 112.142 490.038 113.739C481.032 115.551 472.057 118.315 462.743 117.67C455.458 117.179 448.45 114.814 441.903 111.681C418.819 100.654 397.21 77.4025 369.516 81.0577C353.378 83.177 340.376 93.9888 326.483 101.453C322.241 103.726 317.815 105.968 313.05 106.951C306.934 108.21 301.37 106.244 295.837 103.848C289.198 100.961 282.681 98.5347 275.427 97.5825C259.782 95.5246 243.46 99.3333 230.151 107.78C220.96 113.616 201.011 130.356 209.71 142.918C210.816 144.393 213.245 142.98 212.2 141.505Z" fill="#3F3C36"/>
<path d="M372.897 274.718C389.495 281.567 400.223 296.341 403.327 313.726C404.587 320.791 405.755 328.715 411.841 333.415C417.067 337.469 423.921 337.623 430.223 337.715C439.598 337.868 448.112 338.79 454.721 346.254C460.899 353.195 462.743 361.826 463.266 370.826C463.665 377.89 464.126 385.907 469.813 390.944C473.87 394.538 479.588 395.951 484.905 395.275C491.206 394.477 497.2 390.484 499.014 384.156C500.827 377.829 496.432 370.826 489.362 372.546C487.61 372.976 488.348 375.679 490.1 375.249C498.614 373.16 496.954 384.648 493.358 388.334C490.868 390.883 487.364 392.296 483.829 392.572C477.067 393.156 470.674 389.839 468.092 383.45C465.233 376.385 466.585 368.399 465.049 361.058C463.85 355.315 461.329 349.786 457.579 345.24C453.768 340.602 448.665 337.162 442.764 335.841C436.432 334.428 429.915 335.227 423.522 334.612C414.762 333.722 409.598 328.807 407.507 320.361C405.848 313.665 405.294 306.938 402.62 300.549C397.18 287.557 386.667 277.359 373.696 271.984C371.975 271.308 371.237 274.011 372.897 274.718Z" fill="#3F3C36"/>
<path d="M-8.25167 310.194C-14.7681 304.45 -11.7558 292.502 -4.47092 288.109C2.84467 283.717 12.189 284.977 20.3345 287.649C12.8037 283.809 10.6828 272.322 15.7238 265.534C20.7648 258.746 31.1542 257.486 38.2853 262.094C33.2136 259.114 32.1378 250.913 36.2566 246.797C40.0681 242.958 46.2157 243.234 51.5333 244.217C67.5477 247.227 82.7936 254.722 95.181 265.687C96.2568 266.64 97.3941 267.93 97.0252 269.312C96.7486 270.295 95.765 270.878 94.8736 271.308C82.1174 277.39 66.3797 276.53 54.1153 269.097C61.2464 271.615 68.3161 274.288 75.3551 277.052C80.8264 279.202 87.435 284.147 85.099 289.584C83.8387 292.532 80.4268 293.669 77.3838 294.437C60.8469 298.491 43.5415 299.413 26.605 297.171C39.5763 299.382 52.3018 303.436 64.228 309.242C66.1645 310.194 68.3161 311.484 68.685 313.634C69.1461 316.337 66.5641 318.456 64.1665 319.593C52.855 324.876 39.6378 322.756 27.3119 320.514C15.9697 318.456 1.33852 312.651 -8.25167 310.194Z" fill="#F6A360"/>
<path d="M12.4655 287.987C18.5516 291.765 24.8836 295.051 31.4615 297.877C33.1213 298.583 34.5353 296.157 32.8754 295.45C26.2975 292.655 19.9656 289.338 13.8795 285.56C12.3426 284.577 10.9286 287.004 12.4655 287.987Z" fill="#3F3C36"/>
<path d="M31.7689 259.974C47.7218 268.575 64.7813 274.748 82.5784 278.25C84.3612 278.588 85.0989 275.885 83.3161 275.547C65.7649 272.076 48.9513 266.056 33.1828 257.548C31.5845 256.688 30.1705 259.114 31.7689 259.974Z" fill="#3F3C36"/>
<path d="M66.2566 275.731C67.4247 283.656 75.6931 288.908 83.3776 287.004C85.1296 286.574 84.3919 283.871 82.6399 284.301C76.3079 285.867 69.9452 281.352 68.9923 274.994C68.6849 273.182 65.98 273.95 66.2566 275.731Z" fill="#3F3C36"/>
<path d="M78.7055 257.978C81.6563 264.827 89.0026 269.005 96.4104 268.022C98.1932 267.776 98.1932 264.981 96.4104 265.227C89.8633 266.087 83.7465 262.646 81.1337 256.565C80.4268 254.876 77.9985 256.319 78.7055 257.978Z" fill="#3F3C36"/>
<path d="M48.398 308.013C53.2854 313.757 60.6932 316.214 68.0702 314.77C69.853 314.432 69.0846 311.699 67.3325 312.067C60.8776 313.327 54.6378 311.023 50.396 306.047C49.1972 304.665 47.23 306.662 48.398 308.013Z" fill="#3F3C36"/>
<path d="M409.659 546.21C404.649 540.128 335.489 455.999 330.448 449.887C305.489 419.602 276.319 393.647 246.564 368.061C216.441 342.168 172.333 335.073 136.462 351.014C134.833 351.721 130.99 355.683 130.068 357.188C128.132 360.321 130.652 364.683 134.126 365.942C137.599 367.201 141.441 366.28 144.945 365.205C150.847 363.423 156.749 361.243 162.896 361.335C169.044 361.427 175.652 364.406 177.927 370.119C176.144 376.57 167.107 376.662 160.499 375.494C136.615 371.225 112.056 365.973 87.8039 365.113C82.0866 364.928 74.6173 369.536 74.9862 375.249C75.2321 378.842 78.8899 381.085 82.1481 382.651C101.82 392.05 123.091 396.197 144.208 401.572C127.117 396.412 109.382 394.538 92.2916 389.378C87.6809 387.996 81.6256 385.354 76.8919 385.999C72.1276 386.644 67.394 389.961 66.687 394.722C66.0722 398.93 68.8079 403.046 72.3735 405.38C75.9391 407.715 81.5026 409.896 85.6522 410.848C104.648 415.24 123.275 421.322 141.226 428.939C126.411 423.994 111.103 420.523 95.6112 418.557C90.5088 417.912 84.6379 417.697 81.0723 421.414C76.8612 425.837 78.6747 433.546 83.1624 437.693C87.6502 441.84 93.8284 443.406 99.6994 445.095C145.468 458.241 179.894 463.279 260.95 586.969L409.659 546.21Z" fill="#F6A360"/>
<path d="M67.5784 396.442C75.0169 397.026 81.5333 401.848 84.2075 408.821C84.853 410.479 87.5579 409.773 86.9125 408.083C83.7465 399.852 76.3694 394.323 67.5784 393.647C65.7649 393.494 65.7956 396.289 67.5784 396.442Z" fill="#3F3C36"/>
<path d="M77.5989 375.31C84.392 374.419 90.9699 378.351 93.1215 384.924C93.6748 386.644 96.4105 385.907 95.8264 384.187C93.3059 376.539 85.6522 371.471 77.5989 372.515C75.8161 372.73 75.8161 375.556 77.5989 375.31Z" fill="#3F3C36"/>
<path d="M79.5354 426.85C85.2834 427.311 90.5703 430.321 93.9514 435.021C95.3654 436.987 96.4719 439.198 97.056 441.532C97.4863 443.222 97.2096 445.095 98.4392 446.385C98.9002 446.877 99.5765 446.846 100.13 446.6C100.744 446.324 101.021 445.925 101.144 445.28C101.267 444.665 101.052 443.99 100.499 443.682C100.437 443.652 100.345 443.59 100.283 443.56C98.6851 442.669 97.2711 445.095 98.8695 445.986C98.931 446.017 99.0232 446.078 99.0846 446.109C98.8695 445.587 98.6543 445.065 98.4392 444.512C98.5314 444.389 98.6236 444.266 98.7158 444.143C99.2691 444.205 99.8531 444.297 100.406 444.358C99.9146 443.836 99.9146 441.41 99.7301 440.734C99.4228 439.567 99.0232 438.43 98.5314 437.324C97.3633 434.714 95.6728 432.348 93.6441 430.383C89.7711 426.605 84.8838 424.424 79.5047 423.994C77.7219 423.902 77.7526 426.728 79.5354 426.85Z" fill="#3F3C36"/>
<path d="M132.189 357.864C136.646 357.864 140.95 357.618 144.546 354.67C147.497 352.274 149.126 348.803 148.081 345.086C147.589 343.336 144.884 344.073 145.376 345.824C146.298 349.049 144.177 351.844 141.472 353.41C138.644 355.069 135.386 355.038 132.189 355.038C130.376 355.038 130.376 357.864 132.189 357.864Z" fill="#3F3C36"/>
<path d="M111.902 421.905C122.599 425.56 132.958 429.983 143.04 435.082C144.638 435.911 146.083 433.485 144.454 432.656C134.187 427.403 123.583 422.919 112.64 419.172C110.949 418.619 110.212 421.322 111.902 421.905Z" fill="#3F3C36"/>
<path d="M103.818 392.234C121.984 397.118 140.181 402.002 158.347 406.886C160.099 407.346 160.837 404.643 159.085 404.183C140.919 399.299 122.722 394.415 104.556 389.531C102.804 389.04 102.066 391.743 103.818 392.234Z" fill="#3F3C36"/>
<path d="M154.505 458.733C155.857 455.324 157.763 452.191 160.161 449.426C161.329 448.075 159.361 446.078 158.163 447.43C155.427 450.593 153.306 454.095 151.769 457.965C151.124 459.685 153.859 460.392 154.505 458.733Z" fill="white"/>
<path d="M167.569 434.683C169.843 430.936 171.626 426.943 172.948 422.765C173.501 421.045 170.765 420.308 170.243 422.028C169.013 425.99 167.292 429.738 165.14 433.27C164.218 434.806 166.646 436.219 167.569 434.683Z" fill="white"/>
<path d="M177.65 406.793C179.648 402.401 181.646 398.009 183.613 393.616C184.351 391.989 181.923 390.545 181.185 392.204C179.187 396.596 177.189 400.988 175.222 405.35C174.484 407.008 176.882 408.421 177.65 406.793Z" fill="white"/>
<path d="M204.7 364.314C207.681 361.365 209.925 357.925 211.462 354.055C212.138 352.366 209.402 351.659 208.757 353.318C207.405 356.758 205.345 359.768 202.702 362.348C201.441 363.577 203.409 365.573 204.7 364.314Z" fill="white"/>
<path d="M222.435 296.863C220.499 294.468 216.933 294.099 214.505 296.034L123.46 369.751C123.367 369.812 123.306 369.904 123.245 369.966C127.732 371.409 132.251 372.515 136.769 373.467L221.605 304.788C224.003 302.853 224.403 299.29 222.435 296.863Z" fill="#3F3C36"/>
<path d="M192.989 336.64C203.286 328.377 213.583 320.084 223.849 311.822C224.618 311.207 224.218 310.071 223.573 309.61C221.144 307.89 219.362 306.047 217.702 303.59C216.687 302.116 214.259 303.498 215.274 305.003C217.179 307.798 219.392 310.071 222.159 312.037C222.067 311.3 221.974 310.562 221.882 309.825C211.585 318.088 201.288 326.381 191.021 334.643C189.577 335.81 191.575 337.776 192.989 336.64Z" fill="#3F3C36"/>
</svg>
