<svg width="175" height="155" viewBox="0 0 175 155" fill="none" xmlns="http://www.w3.org/2000/svg">
<rect width="188" height="172" rx="86" fill="white"/>
<path d="M57.4012 45.0228C56.0974 47.2228 53.2538 48.2302 50.5788 48.7134C47.9037 49.1966 45.0713 49.3713 42.6885 50.605C40.7553 51.6124 39.2604 53.3087 38.5973 55.2414C38.4736 55.6115 38.3725 56.0124 38.4961 56.3722C38.8895 57.5441 40.8227 57.318 41.913 58.017C43.0594 58.7572 42.9695 60.4432 42.1265 61.4815C41.2835 62.5095 39.9348 63.0749 38.6872 63.6609C37.4396 64.2571 36.147 65.0076 35.6187 66.2001C34.9893 67.6291 35.6862 69.3561 36.9787 70.3533C38.2713 71.3402 40.0359 71.7 41.7219 71.6795C42.8459 71.6692 43.9923 71.5047 45.0039 71.0421C47.0383 70.0963 48.151 68.102 49.4773 66.4057C50.7923 64.7095 52.8379 63.0749 55.0746 63.4553C55.2882 63.4964 55.513 63.5581 55.6141 63.7329C55.7378 63.9487 55.6029 64.216 55.5804 64.4628C55.5354 65.0487 56.2098 65.5319 56.8505 65.5319C57.5024 65.5319 58.0756 65.1721 58.5477 64.7609C59.8627 63.5992 60.5708 61.8824 60.4247 60.217C60.2898 58.7161 59.784 56.7114 61.2902 56.1049C61.6948 55.9404 62.1669 55.9507 62.6052 55.8993C65.505 55.5703 67.3146 52.0648 65.7523 49.8031C64.752 48.3536 62.8862 47.6545 61.144 47.048L57.4012 45.0228Z" fill="#4F3422"/>
<path d="M59.3682 57.6778C59.031 58.4385 58.8848 59.1993 59.0422 60.0217C59.2782 61.2759 59.8852 61.7693 58.8624 63.1057C57.2439 65.2338 54.6587 65.2954 52.1186 65.3468C48.6792 65.4085 46.982 67.701 47.0158 70.7131C47.0382 72.8617 48.3196 76.0897 51.3205 75.3187C52.1748 75.1028 53.0739 74.4551 53.1414 73.5916C53.2313 72.3271 51.3318 71.8748 50.2528 71.8028C49.5896 71.7617 49.6009 72.6972 50.2528 72.7383C52.1523 72.872 52.2647 74.5579 50.4439 74.4757C49.6234 74.4449 49.0164 73.8897 48.6567 73.2729C48.061 72.2654 47.9599 70.9804 48.0835 69.8599C48.2521 68.4206 48.9377 66.9094 50.5675 66.4365C51.9612 66.0253 53.5348 66.416 54.9622 66.2104C56.828 65.9431 58.5926 65.0179 59.7278 63.63C60.2336 63.0029 60.672 62.3039 60.582 61.4917C60.4359 60.1245 59.7053 59.3432 60.3572 57.9142C60.6045 57.3694 59.6154 57.1226 59.3682 57.6778Z" fill="#4F3422"/>
<path d="M55.041 47.7368C49.1627 47.8602 43.4192 49.6078 38.7098 52.8461C37.2149 53.8741 35.0794 55.3134 36.4506 57.1741C36.7428 57.5647 37.1587 57.8731 37.5521 58.1713C37.8443 58.3871 38.2827 58.5619 38.4625 58.8703C38.6873 59.2815 38.3389 60.731 37.9005 60.9983C37.3835 61.3067 36.4169 61.389 35.8212 61.5432C35.4952 61.6254 35.0794 61.8105 34.7422 61.8208C34.3151 61.9955 33.9329 61.8516 33.5957 61.4095C32.5729 61.1423 32.438 60.9161 33.1911 60.731C33.7868 60.4638 33.2698 59.6516 32.6741 59.9189C31.7074 60.3507 30.9993 60.7927 31.5726 61.8722C32.0559 62.7768 33.1461 63.003 34.1689 62.8899C35.6638 62.7151 37.7432 62.2628 39.0694 61.574C40.0023 61.0908 40.407 60.2273 40.0136 59.2918C39.8113 58.8086 39.4179 58.3974 39.0245 58.0479C38.7884 57.8423 38.485 57.6572 38.2377 57.4619C38.0017 57.2974 37.7769 57.1227 37.5633 56.9273C37.5858 56.2489 37.6083 55.5601 37.6308 54.8816C38.0916 54.09 39.564 53.4218 40.3732 52.9181C41.1375 52.4452 41.9356 52.0031 42.756 51.6022C46.5551 49.7415 50.7587 48.7648 55.0523 48.6826C55.7042 48.662 55.7042 47.7265 55.041 47.7368Z" fill="#4F3422"/>
<path d="M127.065 21.7997C125.806 20.4324 123.659 19.9595 121.805 20.4221C119.714 20.9464 118.062 22.7146 118.253 24.7501C118.399 26.3538 121.141 26.3127 120.995 24.6987C120.883 23.4548 122.209 22.6016 123.569 22.7558C125.075 22.9305 125.772 24.2464 125.57 25.4081C125.3 26.9193 123.771 27.5464 122.198 27.5772C121.164 27.5978 120.074 27.7211 119.332 28.451C118.478 29.294 118.253 30.7127 117.983 31.7921C117.59 33.365 120.242 33.9818 120.636 32.4089C120.77 31.8743 120.917 31.35 121.074 30.8258C121.164 30.5276 121.198 30.2192 121.467 30.1267C121.793 30.0239 122.198 30.0856 122.535 30.0753C123.052 30.065 123.58 30.0136 124.086 29.8902C125.974 29.4482 127.57 28.1118 128.121 26.395C128.638 24.8324 128.222 23.0539 127.065 21.7997Z" fill="#C2B1FF"/>
<path d="M118.983 34.5266C117.264 34.136 116.589 36.5724 118.309 36.9528C120.017 37.3434 120.692 34.9173 118.983 34.5266Z" fill="#C2B1FF"/>
<path d="M14.7465 97.6165C12.802 97.4315 10.9025 98.4595 9.91345 99.9604C8.80073 101.667 8.95808 103.98 10.644 105.337C11.9591 106.396 13.9035 104.628 12.5773 103.559C11.5544 102.736 11.8579 101.276 12.9594 100.526C14.1845 99.6932 15.6794 100.197 16.41 101.163C17.3541 102.417 16.7472 103.846 15.6344 104.864C14.9039 105.532 14.2182 106.314 14.2407 107.311C14.2632 108.462 15.1849 109.624 15.803 110.57C16.7135 111.947 19.0963 110.714 18.1859 109.326C17.8824 108.863 17.5789 108.39 17.2979 107.907C17.1406 107.63 16.9158 107.393 17.0506 107.157C17.208 106.879 17.5452 106.663 17.7812 106.437C18.1409 106.098 18.4893 105.728 18.7591 105.327C19.7819 103.816 19.9168 101.842 19.0063 100.248C18.1746 98.809 16.5224 97.781 14.7465 97.6165Z" fill="#C2B1FF"/>
<path d="M18.5794 111.906C17.0508 112.718 18.4108 114.898 19.9394 114.086C21.468 113.273 20.108 111.104 18.5794 111.906Z" fill="#C2B1FF"/>
<path d="M176.991 52.8872C175.361 51.9003 173.158 51.9826 171.517 52.9078C169.663 53.9461 168.629 56.0638 169.416 57.9657C170.045 59.4666 172.664 58.7367 172.034 57.2152C171.551 56.0535 172.563 54.8919 173.923 54.6965C175.429 54.4807 176.497 55.5704 176.654 56.732C176.856 58.2535 175.575 59.2404 174.08 59.6722C173.091 59.9497 172.091 60.3507 171.596 61.2451C171.023 62.2731 171.248 63.6918 171.315 64.802C171.416 66.416 174.159 66.3338 174.058 64.7198C174.024 64.1749 174.001 63.6301 174.001 63.0852C174.001 62.7768 173.934 62.4684 174.17 62.3142C174.451 62.1394 174.856 62.088 175.182 61.9955C175.676 61.8516 176.171 61.6666 176.62 61.4301C178.306 60.5254 179.419 58.8395 179.43 57.0507C179.408 55.4059 178.475 53.7919 176.991 52.8872Z" fill="#C2B1FF"/>
<path d="M173.091 67.1665C171.326 67.2282 171.416 69.7366 173.181 69.6749C174.945 69.6132 174.856 67.1048 173.091 67.1665Z" fill="#C2B1FF"/>
<path d="M58.7724 162.084C49.3198 170.915 32.3142 168.478 25.2332 157.201C19.2649 147.702 21.4454 134.42 25.0871 124.479C30.381 110.035 40.4742 97.267 51.062 85.3625C61.2114 73.9309 70.1694 67.0534 84.4663 59.5282C98.9205 51.9208 113.813 47.4901 130.526 50.4508C152.365 54.3161 161.368 71.5047 170.484 88.5082C179.655 105.635 182.263 126.34 176.081 144.762C172.911 154.209 166.224 160.429 156.434 165.435C147.881 169.804 136.922 169.722 127.941 166.268C118.95 162.804 107.17 159.925 103.45 141.832L58.7724 162.084Z" fill="#E1E1E0"/>
<path d="M139.484 143.991C131.617 156.779 118.938 163.904 111.16 159.905C103.383 155.906 103.45 142.295 111.318 129.506C119.186 116.717 131.864 109.593 139.642 113.592C147.408 117.591 147.341 131.202 139.484 143.991Z" fill="#4F3422"/>
<path d="M69.4725 150.128C61.6048 162.917 48.9264 170.041 41.1486 166.042C33.3707 162.043 33.4382 148.432 41.3059 135.643C49.1737 122.855 61.852 115.73 69.6299 119.729C77.3965 123.728 77.3291 137.339 69.4725 150.128Z" fill="#4F3422"/>
<path d="M130.11 131.469C129.222 131.696 128.717 130.565 129.515 130.164C130.155 129.835 130.796 129.496 131.414 129.146C130.908 127.81 130.324 126.494 129.672 125.209C129.076 125.384 128.391 125.527 127.671 125.641C125.851 125.918 124.951 123.698 126.536 122.844C126.975 122.608 127.447 122.351 127.93 122.094C126.885 120.387 125.716 118.753 124.434 117.18L122.445 118.547C123.164 118.054 123.816 117.591 124.401 117.139C123.221 115.71 121.95 114.332 120.602 113.047C118.118 114.363 115.274 115.268 112.498 115.576C110.834 115.761 110.16 113.715 111.655 113.016C113.577 112.122 115.847 111.454 117.915 110.693C116.432 109.49 114.858 108.38 113.217 107.373C95.5372 112.564 87.838 120.079 60.9752 121.827C48.2631 122.649 37.518 145.266 42.2836 155.021C43.9134 158.352 46.9031 160.09 50.6122 160.953C58.8846 162.896 67.7078 162.146 75.9352 160.059C84.1739 157.972 91.9293 154.59 99.6509 151.218C106.53 148.216 113.42 145.214 120.298 142.212C124.85 140.228 129.571 138.1 133.134 134.944C132.842 133.556 132.46 132.179 132.01 130.832C131.302 131.11 130.65 131.326 130.11 131.469Z" fill="#ED7E1C"/>
<path d="M116.488 63.517L85.9274 42.9462C82.7916 45.249 79.6445 47.5415 76.4412 49.7518C76.7334 57.3283 78.7453 66.5189 85.8263 71.916L90.9066 64.4422C90.9066 64.4422 95.5149 71.3711 100.056 78.1869C104.304 84.5607 114.229 85.0439 119.197 79.1122C119.264 79.0299 119.332 78.958 119.388 78.8757C123.49 73.9618 122.175 66.8889 116.488 63.517Z" fill="#ED7E1C"/>
<path d="M98.8081 46.3695C98.9543 48.8676 96.8524 51.0059 94.11 51.1293C91.3787 51.2629 89.0409 49.3405 88.906 46.8321C88.7599 44.334 90.8617 42.1957 93.6042 42.0724C96.3354 41.9387 98.662 43.8611 98.8081 46.3695Z" fill="#ED7E1C"/>
<path d="M93.6156 48.734C94.1214 47.1405 94.6272 45.5368 95.1667 43.9536C95.3577 43.378 94.3686 43.1209 94.1776 43.7069C93.6381 45.3004 93.1323 46.8938 92.6265 48.4872C92.4354 49.0732 93.4358 49.3199 93.6156 48.734Z" fill="#4F3422"/>
<path d="M90.8954 64.4525L100.314 78.4336L94.2223 58.7058L90.8954 64.4525Z" fill="#4F3422"/>
<path d="M76.711 51.6947C76.3064 54.5835 76.1153 57.6161 76.3288 60.5254C76.3513 60.8338 76.7672 61.1731 77.1044 60.9264C78.1047 60.217 79.1163 59.5077 80.1166 58.7984C80.6336 58.4385 80.1166 57.6161 79.5996 57.9862C78.5992 58.6956 77.5877 59.4049 76.5873 60.1142C76.8459 60.2479 77.1044 60.3815 77.3629 60.5254C77.1606 57.6161 77.3516 54.5835 77.745 51.6947C77.8125 51.0882 76.7897 51.0985 76.711 51.6947Z" fill="#4F3422"/>
<path d="M82.5892 53.5348C84.0503 53.4115 85.5115 53.2984 86.9726 53.175C87.6245 53.1236 87.6358 52.1779 86.9726 52.2293C85.5115 52.3526 84.0503 52.4657 82.5892 52.5891C81.9373 52.6507 81.926 53.5862 82.5892 53.5348Z" fill="#4F3422"/>
<path d="M81.454 50.5536C82.9601 49.4844 84.365 48.3125 85.6688 47.048C86.1184 46.6059 85.3991 45.9377 84.9383 46.3798C83.6345 47.6442 82.2295 48.8162 80.7234 49.8853C80.2064 50.2554 80.9369 50.9236 81.454 50.5536Z" fill="#4F3422"/>
<path d="M83.9718 62.7459C84.0393 62.7357 83.9606 62.7356 83.9381 62.7356C83.8707 62.7151 83.8482 62.6945 83.8032 62.6534C83.747 62.602 83.8145 62.6945 83.792 62.6328C83.7808 62.5917 83.7808 62.5917 83.792 62.6328C83.792 62.6123 83.7808 62.5917 83.7808 62.5712C83.7808 62.4478 83.9044 62.345 84.028 62.3244C84.073 62.3142 84.1179 62.3142 84.1517 62.3347C84.1854 62.345 84.2528 62.4067 84.1966 62.3553C84.2191 62.3861 84.2416 62.4067 84.2528 62.4478C84.2528 62.4684 84.2641 62.4889 84.2641 62.5095C84.2079 62.602 84.1517 62.6945 84.0842 62.7768C83.9718 62.859 83.8032 62.8282 83.7133 62.7356C83.6459 62.6637 83.6234 62.5712 83.6571 62.4684C83.7133 62.4067 83.7695 62.3347 83.8257 62.273C83.8594 62.2525 83.9269 62.2422 83.9606 62.2422C83.9831 62.2422 84.0056 62.2525 84.028 62.2525C83.9831 62.2422 83.9831 62.2422 84.028 62.2525C84.0842 62.2628 84.1179 62.3039 84.1404 62.3656C84.2079 62.4786 84.2303 62.4992 84.2191 62.4375C84.1629 62.1908 83.837 62.0469 83.5897 62.1086C83.3087 62.1805 83.1738 62.4375 83.23 62.6842C83.3874 63.3936 84.6687 63.3011 84.6687 62.5609C84.6687 61.8413 83.4436 61.6151 83.2413 62.3553C83.0614 63.0132 84.0168 63.5786 84.5563 63.0749C85.0284 62.6534 84.6462 61.7487 83.9494 61.8207C83.6796 61.8516 83.4211 62.016 83.4323 62.2936C83.4773 62.5095 83.6908 62.7768 83.9718 62.7459Z" fill="#4F3422"/>
<path d="M122.198 150.478C110.115 147.651 79.1949 123.307 68.1238 106.201C64.8531 101.153 62.1668 95.9717 60.8181 90.2353C60.11 87.2335 61.2676 83.9849 63.4032 83.8616C62.1668 81.6205 63.5268 79.1429 65.9096 77.899C66.7976 77.4261 68.0789 78.4747 68.6521 77.6934C69.1242 77.0458 69.1129 76.2131 69.0792 75.4318C68.8881 71.515 69.7986 65.4188 72.2151 61.9955C73.2379 60.546 75.7331 61.1731 75.7781 62.9001C75.8118 64.1441 75.6432 65.4599 75.4633 66.159C74.3843 70.415 75.2273 74.0234 75.5982 78.3925C75.8567 81.4149 76.8458 83.8307 78.5767 85.9485C79.9817 87.6653 83.0052 86.6886 82.8703 84.5401C82.7691 82.8747 82.0723 81.127 81.1057 79.8523C80.1728 78.6392 79.1724 76.943 78.6217 75.2467C77.9361 73.1084 79.4085 70.9393 81.3754 72.2449C93.0759 80.027 93.6379 85.2083 100.303 90.9858C111.071 100.31 121.939 109.706 134.539 116.851C136.967 118.228 139.563 119.616 141.013 121.868C143.947 126.412 141.631 134.286 138.956 138.964C134.123 147.455 127.469 151.701 122.198 150.478Z" fill="#ED7E1C"/>
<path d="M122.333 150.015C118.14 148.997 114.274 146.694 110.7 144.505C105.484 141.308 100.573 137.699 95.8521 133.926C86.1073 126.134 76.5086 117.447 69.5288 107.403C67.0335 103.816 64.8418 100.002 63.2121 96.0128C62.3803 93.9876 61.5823 91.8288 61.2226 89.6802C60.9416 87.984 61.0765 84.6326 63.5268 84.3036C63.8864 84.2522 63.9539 83.8513 63.8302 83.6149C62.9423 81.7541 63.9202 78.8962 66.2917 78.4028C67.2471 78.2075 68.2924 78.7831 69.0342 77.9607C69.821 77.0972 69.5625 75.6785 69.54 74.6608C69.5175 73.1084 69.6411 71.5458 69.8884 70.0141C70.102 68.6468 70.4054 67.2795 70.8438 65.9534C71.2259 64.802 71.979 62.0161 73.4739 61.6871C75.9466 61.1422 75.1711 64.874 74.9463 66.0254C74.5978 67.7422 74.3618 69.3973 74.4068 71.1449C74.4742 74.3524 74.699 77.8888 75.497 81.014C75.9916 82.9569 77.183 86.3391 79.4534 87.1101C81.218 87.7064 83.1625 86.5961 83.3648 84.8896C83.702 81.8878 81.1731 79.513 79.8917 76.9944C79.4309 76.0794 78.8914 74.9897 78.9813 73.9617C79.0263 73.3757 79.1949 72.5328 79.9704 72.3374C80.4537 72.2141 81.2854 72.8103 81.6451 73.0056C83.3985 73.972 85.0283 75.4215 86.5231 76.6963C88.6362 78.4953 90.5469 80.4794 92.2778 82.5971C93.6603 84.2934 94.9417 86.041 96.3691 87.7064C98.2461 89.8858 100.438 91.7465 102.63 93.6484C108.328 98.5623 114.083 103.445 120.163 107.958C123.075 110.117 126.053 112.194 129.121 114.157C132.269 116.162 135.978 117.766 138.799 120.151C144.711 125.157 141.159 134.523 137.799 139.94C134.899 144.597 129.178 151.475 122.333 150.015C121.692 149.881 121.411 150.786 122.063 150.92C127.548 152.081 132.505 148.226 135.652 144.566C139.855 139.683 143.036 133.217 142.89 126.895C142.823 123.944 141.777 121.302 139.327 119.308C136.439 116.964 132.808 115.34 129.639 113.325C122.243 108.627 115.42 103.199 108.789 97.6166C103.709 93.3297 98.7294 89.2073 94.6944 84.0569C93.0309 81.9289 91.3112 79.8317 89.3443 77.9299C88.1754 76.7991 86.9278 75.7299 85.6352 74.7122C84.3314 73.6944 82.7129 72.1318 81.0944 71.5561C78.4755 70.6309 77.6326 73.6019 78.1159 75.3598C78.5542 76.9635 79.5208 78.5159 80.5099 79.8831C81.4765 81.2298 83.4547 84.5195 81.7126 85.9074C79.7344 87.4597 78.1496 84.684 77.4527 83.327C76.4636 81.3738 76.2051 79.328 75.9916 77.2103C75.8005 75.3701 75.542 73.5402 75.4633 71.6898C75.3734 69.5823 75.7443 67.6188 76.0927 65.5422C76.295 64.3497 76.6547 62.6637 75.8005 61.6151C75.1373 60.8133 73.901 60.5049 72.8894 60.8852C71.7092 61.3273 71.1473 62.6534 70.6864 63.6506C69.9109 65.316 69.4051 67.0842 69.0679 68.8627C68.7532 70.5178 68.5621 72.1935 68.5284 73.8692C68.5172 74.5682 68.8319 75.7607 68.5509 76.3776C68.3823 76.5626 68.2137 76.7374 68.0451 76.9224C67.8765 77.4261 67.573 77.5804 67.1572 77.385C66.82 77.4364 66.4828 77.2719 66.1231 77.3439C64.7182 77.6112 63.3919 79.1532 62.8524 80.2841C62.2454 81.5794 62.3466 82.8438 62.9535 84.1186C63.0547 83.8924 63.1559 83.656 63.257 83.4298C60.2223 83.841 59.8514 87.7578 60.2111 89.9064C60.8967 93.926 62.7512 97.8941 64.7182 101.523C67.8091 107.208 71.7767 112.358 76.2388 117.211C85.3767 127.131 96.0431 136.167 107.586 143.703C111.959 146.561 116.792 149.686 122.063 150.961C122.704 151.084 122.973 150.169 122.333 150.015Z" fill="#4F3422"/>
<path d="M67.7078 78.0019C68.1012 82.813 69.5399 87.326 72.2261 91.4895C72.5633 92.0138 73.4513 91.5409 73.1141 91.0167C70.5177 86.9971 69.124 82.6485 68.7418 78.0019C68.6969 77.3953 67.6628 77.3953 67.7078 78.0019Z" fill="#4F3422"/>
<path d="M62.9311 83.9953C63.2009 88.1382 64.426 92.0961 66.5615 95.7559C66.8762 96.2904 67.7642 95.8176 67.4495 95.283C65.4038 91.7671 64.2237 87.9737 63.9652 83.9953C63.9202 83.399 62.8862 83.399 62.9311 83.9953Z" fill="#4F3422"/>
<path d="M71.99 65.0796C73.4287 64.5656 74.3953 63.2806 74.2829 61.8516C74.238 61.2554 73.2039 61.2451 73.2601 61.8516C73.3388 62.8385 72.7543 63.8049 71.7203 64.175C71.1021 64.3908 71.3719 65.3058 71.99 65.0796Z" fill="#4F3422"/>
<path d="M81.2291 72.2655C80.7683 74.2496 82.2969 76.1617 84.4774 76.429C85.1293 76.5113 85.1293 75.5655 84.4774 75.4832C82.9713 75.2982 81.9147 73.8384 82.2182 72.5122C82.3531 71.9263 81.364 71.6693 81.2291 72.2655Z" fill="#4F3422"/>
<path d="M77.1942 92.0345C78.0147 91.3868 78.8239 90.7289 79.6444 90.0812C80.139 89.6803 79.4084 89.0223 78.9138 89.413C78.0933 90.0607 77.2841 90.7186 76.4636 91.3662C75.969 91.7672 76.6996 92.4251 77.1942 92.0345Z" fill="#E1E1E0"/>
<path d="M71.5181 97.339C72.2262 96.6914 72.9343 96.0437 73.6424 95.3961C74.1144 94.9643 73.3838 94.3064 72.9118 94.7279C72.2037 95.3755 71.4956 96.0232 70.7875 96.6708C70.3267 97.1026 71.046 97.7708 71.5181 97.339Z" fill="#E1E1E0"/>
<path d="M67.011 101.78C67.4381 101.42 67.8539 101.05 68.281 100.69C68.7644 100.279 68.0338 99.6109 67.5505 100.022C67.1234 100.382 66.7075 100.752 66.2804 101.112C65.7971 101.533 66.5277 102.191 67.011 101.78Z" fill="#E1E1E0"/>
<path d="M89.1305 84.6943C89.9848 84.3448 90.8952 84.1906 91.8281 84.1906C92.4912 84.1906 92.4912 83.2551 91.8281 83.2551C90.7041 83.2448 89.6363 83.471 88.6135 83.8822C88.0178 84.1289 88.5348 84.941 89.1305 84.6943Z" fill="#E1E1E0"/>
<path d="M122.333 108.349C123.895 106.499 126.154 104.432 128.605 105.121C130.639 105.707 131.471 107.876 132.01 109.758C132.685 108.616 133.516 107.342 135.067 107.311C135.854 107.29 136.607 107.63 137.169 108.144C138.214 109.089 138.574 110.405 138.923 111.67C139.125 109.973 141.935 109.552 143.328 110.683C144.722 111.814 145.014 113.685 145.149 115.381C145.52 119.997 145.397 124.808 143.104 128.961C142.823 129.465 142.317 129.845 141.699 129.927C140.136 130.123 139.597 128.283 139.574 126.926C139.496 123.348 138.147 114.486 138.147 114.486C138.147 114.486 137.225 121.385 136.495 124.047C136.281 124.828 136.259 125.692 135.82 126.638C134.618 129.29 130.684 128.642 130.74 125.774C130.774 123.996 130.976 122.207 131.01 120.716C131.088 117.941 131.167 115.165 131.246 112.379C128.346 117.242 125.019 122.454 119.287 124.366C119.028 124.448 118.736 124.479 118.466 124.417C117.444 124.181 117.511 123.081 117.747 122.269C118.95 118.064 122.76 113.962 125.525 110.426L122.333 108.349Z" fill="#ED7E1C"/>
<path d="M122.692 108.688C123.94 107.249 125.795 105.162 128.043 105.522C130.268 105.882 130.987 108.164 131.504 109.891C131.617 110.272 132.235 110.364 132.449 110.004C133.19 108.76 134.303 107.177 136.158 108.041C137.63 108.73 138.068 110.467 138.428 111.803C138.552 112.245 139.316 112.266 139.417 111.803C139.676 110.672 141.103 110.302 142.216 110.652C143.385 111.022 143.98 112.163 144.284 113.181C144.835 115.062 144.801 117.211 144.79 119.143C144.778 121.23 144.587 123.338 144.014 125.363C143.778 126.196 143.385 128.18 142.654 128.735C142.047 128.899 141.429 129.054 140.822 129.218C140.62 129.012 140.474 128.776 140.395 128.509C140.193 128.056 140.136 127.594 140.091 127.111C139.754 122.844 139.282 118.609 138.63 114.373C138.54 113.798 137.686 114.024 137.619 114.497C137.113 118.208 136.697 122.084 135.596 125.702C135.18 127.069 133.82 128.57 132.145 127.553C130.706 126.679 131.268 124.479 131.358 123.153C131.606 119.575 131.628 115.977 131.729 112.4C131.74 111.937 131.01 111.752 130.774 112.163C128.245 116.378 125.446 121.025 120.602 123.338C119.905 123.677 118.331 124.674 118.095 123.04C118.017 122.454 118.489 121.559 118.714 121.025C119.264 119.699 120.029 118.455 120.849 117.252C122.411 114.97 124.232 112.872 125.952 110.693C126.334 110.2 125.446 109.727 125.064 110.22C123.918 111.68 113.285 124.119 118.455 124.921C119.669 125.106 121.231 124.15 122.198 123.584C123.558 122.793 124.772 121.806 125.851 120.706C128.222 118.3 129.976 115.463 131.673 112.636C131.358 112.554 131.032 112.482 130.718 112.4C130.65 114.785 130.583 117.159 130.515 119.544C130.459 121.693 129.976 124.016 130.223 126.155C130.459 128.19 132.797 129.496 134.82 128.416C136.203 127.676 136.54 126.257 136.821 124.921C137.102 123.564 137.428 122.207 137.675 120.84C138.046 118.732 138.361 116.625 138.653 114.507C138.316 114.548 137.978 114.589 137.641 114.63C137.99 116.913 138.304 119.195 138.574 121.477C138.754 123.019 138.934 124.561 139.024 126.113C139.091 127.296 139.046 128.642 139.878 129.64C140.608 130.513 141.867 130.657 142.834 129.989C144.295 128.982 144.846 126.37 145.206 124.849C145.7 122.721 145.846 120.521 145.812 118.352C145.779 116.368 145.812 114.168 145.048 112.276C144.475 110.878 143.329 109.706 141.62 109.614C140.159 109.531 138.743 110.21 138.439 111.577C138.765 111.577 139.102 111.577 139.428 111.577C138.923 109.716 138.091 107.311 135.686 106.93C133.651 106.602 132.437 108.123 131.572 109.562C131.887 109.603 132.201 109.634 132.516 109.675C131.92 107.66 130.999 105.203 128.515 104.659C125.772 104.052 123.513 106.303 121.996 108.051C121.557 108.493 122.288 109.161 122.692 108.688Z" fill="#4F3422"/>
<path d="M77.3965 49.8853C70.7202 47.9938 64.055 46.0919 57.3899 44.1695C57.2438 45.4751 57.9856 46.7087 58.705 47.8396C60.065 49.9779 61.5486 52.2292 63.9651 53.3395C66.2131 54.3675 68.9218 54.203 71.2821 53.4218C73.6425 52.6405 75.7106 51.2937 77.7562 49.9676L77.3965 49.8853Z" fill="#ED7E1C"/>
<path d="M69.214 117.622C66.2355 115.216 62.5826 113.777 58.6038 113.53C53.6695 113.232 48.7353 114.548 43.891 113.253C43.9697 113.51 44.0371 113.777 44.1158 114.034C46.4874 112.101 50.0054 112.389 52.9614 112.492C56.2659 112.605 59.5142 112.975 62.6163 114.044C62.7062 113.746 62.7962 113.438 62.8861 113.14C59.3905 112.307 55.9512 111.31 52.568 110.148C50.8484 109.552 48.9826 109.007 47.3753 108.174C47.0831 108.041 46.8133 107.876 46.5661 107.681C46.5773 107.126 46.5885 106.571 46.5998 106.016C46.7459 105.83 47.3866 105.728 47.6338 105.687C48.5667 105.522 49.657 105.697 50.5674 105.841C57.3112 106.9 62.8524 111.084 67.9552 114.97C68.461 115.35 69.1915 114.692 68.6857 114.301C65.3138 111.731 61.8857 109.151 57.9856 107.259C56.1535 106.375 54.2203 105.635 52.1971 105.183C50.5112 104.802 48.4431 104.381 46.7571 104.926C45.7119 105.265 44.8576 106.046 45.0712 107.136C45.3409 108.514 47.1168 109.12 48.3307 109.593C52.9614 111.402 57.7383 112.883 62.6163 114.044C63.2682 114.199 63.5043 113.345 62.8861 113.14C59.3006 111.906 55.5016 111.608 51.7026 111.526C48.7578 111.464 45.6894 111.495 43.374 113.376C43.0818 113.623 43.2504 114.065 43.5988 114.157C47.7125 115.257 51.8937 114.558 56.0861 114.435C60.7056 114.312 64.9766 115.453 68.4722 118.27C68.978 118.681 69.7086 118.023 69.214 117.622Z" fill="#4F3422"/>
<path d="M80.8358 44.3546C81.4764 41.3117 81.6675 38.2276 81.2853 35.1435C81.0493 33.252 80.5435 31.0006 78.8463 29.7258C75.3845 27.1352 71.1809 32.4501 72.4847 35.4725C74.3392 39.7593 80.3862 31.2781 81.1392 29.7875C81.7237 28.6361 82.7465 26.1894 80.6447 25.7576C79.6106 25.5418 78.453 26.1586 77.5313 26.5287C76.1488 27.0941 74.8113 27.7623 73.5412 28.523C71.1359 29.9726 68.9667 31.7305 67.1121 33.7454C65.887 35.0716 63.5042 37.3127 64.5382 39.2351C65.4374 40.9107 67.7753 40.3556 69.2589 39.8005C71.8328 38.8341 74.2943 37.5799 76.5647 36.1099C81.2291 33.0875 85.1855 29.181 88.1753 24.7296C89.4341 22.8483 90.8503 20.6175 89.3554 18.4895C87.9617 16.5054 85.3316 16.2793 83.0275 16.7933C77.4301 18.0475 71.7316 20.9054 67.2358 24.1539C62.4477 27.6184 58.7723 32.152 57.0639 37.5491C57.0189 37.693 57.0639 37.9089 57.1987 38.0117C59.7951 39.965 63.9538 37.3846 66.4602 36.2743C70.0682 34.6912 73.5637 32.8716 76.7895 30.7025C82.724 26.7137 88.8834 20.7512 90.3895 13.9148C92.2553 5.6392 79.9029 6.81115 74.6202 8.39431C70.7313 9.56626 67.1571 11.4784 63.9313 13.7709C60.5706 16.1456 57.165 18.9932 54.7372 22.2007C53.0513 24.4315 51.6576 28.0913 54.6473 30.0034C57.4572 31.8024 61.5822 30.2193 64.4258 29.3043C72.7432 26.6315 81.2067 22.4474 87.3323 16.5568C88.6136 15.3232 89.7938 13.9868 90.7941 12.5475C91.7607 11.17 93.3343 9.11393 92.9409 7.36628C92.289 4.49809 87.9055 5.18687 85.6801 5.42332C77.2166 6.33826 69.0004 9.01112 61.6946 13.041C57.9518 15.1073 54.4338 17.5232 51.2192 20.2269C48.0496 22.8997 44.9025 25.8605 43.1941 29.5408C42.5534 30.9286 42.2949 32.2034 43.2053 33.5398C44.1045 34.8557 45.6893 35.8529 47.2291 36.4388C50.5111 37.7033 54.2764 37.3024 57.6258 36.4697C61.9643 35.4005 66.1792 33.6015 70.1805 31.751C74.2718 29.8698 78.4642 27.8137 81.881 24.9866C84.882 22.4988 87.1862 19.2503 87.883 15.5596C88.1865 13.9559 88.3551 11.8999 87.5796 10.3784C86.8602 8.95972 85.0619 8.48683 83.5445 8.09618C70.5402 4.71398 47.0605 13.6475 52.8602 28.924C53.8493 31.5249 55.8387 33.694 58.7948 34.4856C62.6163 35.5136 67.3819 34.9482 71.2596 34.4033C79.1273 33.3136 87.3098 30.209 92.5138 24.5035C94.8516 21.9437 96.6163 18.3867 95.0539 15.097C93.7501 12.3522 90.5468 10.9335 87.4672 10.4812C78.97 9.24757 70.4615 12.9176 63.7852 17.3895C60.728 19.4456 56.884 21.81 55.0969 24.9661C53.6358 27.5361 54.5124 30.4968 58.0192 30.6408C62.1329 30.8053 66.7637 29.2632 70.4953 27.8343C74.6539 26.2408 78.5766 24.1437 82.3082 21.8306C85.9498 19.5689 89.4341 17.0914 92.8734 14.5727C93.3118 14.2541 92.8172 13.7092 92.3677 13.7914C80.6672 15.755 69.9333 20.9259 61.2225 28.2866C60.9528 28.5128 61.0764 28.852 61.3237 29.0268C64.2235 30.98 67.8202 29.5613 70.765 28.4408C74.1257 27.1558 77.4189 25.7165 80.5323 23.9792C83.6569 22.2315 86.6129 20.196 89.1868 17.8007C90.4457 16.6288 91.6258 15.3643 92.6599 14.0279C93.3568 13.1438 93.9525 12.1055 93.1882 11.0775C92.5025 10.1625 91.1425 9.98775 90.041 9.89522C87.8606 9.72046 85.6688 9.90551 83.522 10.2448C79.3184 10.913 75.1597 12.0644 71.1472 13.3699C63.167 15.9811 55.5465 19.5689 48.6229 24.0203C45.6893 25.9016 42.8794 27.9987 40.5753 30.5277C39.5187 31.6894 38.5634 32.9333 37.7653 34.2697C37.1584 35.2874 35.9445 37.0454 36.3716 38.279C36.7538 39.3379 38.3048 39.8416 39.3389 40.1603C41.0473 40.6846 42.8569 40.7257 44.6328 40.4995C48.3756 40.0369 51.9161 38.5154 55.3329 37.1173C69.2701 31.4221 82.4543 23.6091 91.7607 12.3625C93.4579 10.3167 95.4923 7.74665 92.2553 5.95789C89.3667 4.35417 85.2529 5.49528 82.162 5.91677C74.7326 6.92423 67.3032 8.10646 60.1098 10.1214C52.9277 12.126 45.9928 14.9942 40.0133 19.1886C35.3376 22.468 28.4027 27.9679 33.1683 33.694C37.9452 39.4407 48.2857 36.4183 54.2315 34.1566C61.8969 31.2473 69.0791 26.8474 75.6992 22.3035C78.97 20.0624 82.0946 17.6054 84.7921 14.7989C87.0401 12.4653 89.1531 9.72046 88.9058 6.46162C88.8384 5.56724 88.5237 3.77848 87.6358 3.23362C87.1412 2.9355 86.3882 3.0383 85.8262 3.01774C84.7584 2.97662 83.7019 2.96634 82.6341 2.9869C78.5316 3.07942 74.4404 3.63455 70.4728 4.57006C62.5376 6.44106 55.0744 9.77186 48.2744 13.884C45.1273 15.7858 41.3958 17.8419 39.2939 20.7923C37.6529 23.0951 37.1359 26.4259 39.1815 28.667C41.2496 30.9389 44.97 31.2473 47.9597 31.4838C52.0959 31.8127 56.2883 31.5043 60.3458 30.7127C67.6516 29.3043 75.7667 26.4053 81.173 21.5427C83.5558 19.4045 85.2305 16.783 85.6913 13.74C85.725 13.483 85.6239 13.2466 85.3316 13.1643C77.3065 10.9541 68.5958 12.1055 61.3911 15.9503C57.682 17.9241 54.3101 20.597 51.77 23.7736C49.0612 27.1455 52.6467 29.9931 56.1872 31.0314C60.5257 32.3062 65.5723 31.6277 69.8658 30.5688C74.7439 29.366 79.3409 27.2894 83.6232 24.853C87.1412 22.8483 92.244 20.3811 93.7277 16.5671C95.0764 13.0924 92.0192 9.99803 88.2202 9.93635C85.4103 9.89522 82.4992 11.0158 79.9366 11.9616C77.3964 12.9073 74.9349 14.0279 72.6308 15.3849C68.607 17.7288 64.1786 21.0185 64.3359 25.809C64.3472 26.0763 64.5607 26.2614 64.8529 26.2819C75.5419 26.8988 85.5564 21.7072 91.5359 13.7503C91.7607 13.4522 91.4572 13.041 91.0863 13.041C81.7462 13.1438 73.0579 17.1942 66.9548 23.5885C66.6401 23.9175 66.8761 24.339 67.3144 24.3904C71.6979 24.8633 76.0926 23.7222 79.7118 21.4194C81.4764 20.2988 83.0387 18.9213 84.3538 17.3587C85.6239 15.8475 87.2761 13.7092 87.4559 11.7457C87.8381 7.69525 79.8804 8.713 77.4414 9.09337C74.9012 9.48402 72.4285 10.255 70.1356 11.3345C68.9442 11.8896 67.809 12.5372 66.7187 13.2569C66.0668 13.6989 65.1789 14.1615 64.8979 14.9017C63.4143 18.8288 73.0804 16.0634 74.2044 15.7344C76.8457 14.9634 79.4196 13.9765 81.8698 12.7737C83.9716 11.7457 86.5118 10.5943 87.9842 8.8158C89.1531 7.39712 89.333 5.59808 88.2539 4.08688C87.0963 2.47289 85.0619 1.92803 83.05 1.84579C77.9359 1.6299 72.5072 2.26728 67.5617 3.45979C62.5488 4.67286 57.7607 6.71863 53.7819 9.78214C50.882 12.013 47.6338 16.4129 50.927 19.5998C53.8268 22.4063 59.2781 21.3474 62.8186 20.4942C68.1686 19.2091 73.0916 16.7727 77.6774 13.997C80.1052 12.527 82.4655 10.9438 84.7809 9.31953C86.2645 8.28123 88.7597 7.02704 88.9733 5.11491C89.4341 1.07477 80.8358 3.39811 78.8576 3.86072C69.3825 6.09153 58.6149 12.0849 55.0744 20.8643C54.2652 22.8689 54.0516 25.038 55.4004 26.8885C56.5131 28.4202 58.3339 29.3969 60.1997 29.9726C65.3475 31.5557 70.8662 30.1473 75.6655 28.2558C81.0493 26.1277 86.1971 23.3932 91.0751 20.4119C95.4361 17.7391 100.427 14.8092 103.708 10.9849C105.068 9.41205 105.923 7.68497 106.181 5.6906C106.204 5.485 106.001 5.28967 105.799 5.23827C95.6272 2.69905 85.0169 6.2149 75.452 9.26813C67.0447 11.9616 58.9072 16.2484 55.9399 24.4109C55.7263 24.9866 56.7267 25.2334 56.929 24.6577C59.9187 16.4129 68.4384 12.4242 76.8682 9.81298C85.9723 6.9962 95.8857 3.73736 105.518 6.14293C105.394 5.98873 105.271 5.84481 105.136 5.6906C104.608 9.77186 100.932 12.4756 97.6391 14.8709C94.1435 17.3998 90.4906 19.7334 86.6916 21.8614C82.769 24.0511 78.6777 26.138 74.4179 27.7315C70.3267 29.2632 65.7184 30.3735 61.3237 29.3146C59.2668 28.8109 57.1201 27.8343 56.041 26.0661C54.726 23.9175 55.805 21.3474 56.9402 19.3428C58.8734 15.9195 61.9644 13.1541 65.3138 10.8718C68.8318 8.47655 72.7657 6.58498 76.9468 5.36164C78.7564 4.83734 80.5997 4.41585 82.4655 4.13829C83.522 3.98408 84.6235 3.82988 85.7025 3.78876C86.568 3.75792 88.209 3.66539 87.9055 5.25883C87.7931 5.88593 87.1412 6.38966 86.6579 6.80087C85.0057 8.22982 82.9488 9.43261 81.1168 10.656C79.3296 11.8485 77.5201 12.9999 75.6543 14.0793C72.0576 16.1559 68.2698 17.9755 64.201 19.1577C60.8291 20.1344 55.7825 21.4605 52.5005 19.5689C47.6225 16.7624 52.8265 11.5503 55.7376 9.55598C62.3802 5.00183 70.7313 3.27474 78.8913 2.87381C80.9482 2.77101 83.3534 2.50373 85.3091 3.17194C88.5237 4.27193 88.5349 7.34572 86.1409 9.20645C82.8364 11.7868 78.2956 13.5447 74.2156 14.7578C73.0691 15.097 71.9115 15.3952 70.7313 15.6419C69.686 15.868 67.9776 16.454 66.9098 16.1353C64.6844 15.4671 67.3032 14.0073 68.1799 13.4728C69.1353 12.8971 70.1244 12.3728 71.1584 11.9204C73.3164 10.9644 75.6206 10.2962 77.9921 9.96719C80.0827 9.66906 83.0837 9.34009 85.1068 10.07C89.6364 11.6943 80.9032 19.5484 78.9925 20.7409C75.5419 22.8792 71.4731 23.8969 67.3144 23.4549C67.4381 23.7222 67.5617 23.9894 67.6741 24.2567C73.5974 18.0372 81.9934 14.0896 91.0751 13.9868C90.929 13.7503 90.7829 13.5139 90.6368 13.2774C84.8483 20.9671 75.1597 25.9324 64.8417 25.3362C65.0103 25.4904 65.1789 25.6548 65.3587 25.809C65.2239 21.6661 68.9329 18.7671 72.3835 16.6493C75.8341 14.5419 79.6219 12.9279 83.5558 11.7559C85.7363 11.1083 88.3101 10.3681 90.5131 11.3447C93.0533 12.4653 93.6377 15.1176 92.2553 17.2456C90.2321 20.3708 85.9049 22.4885 82.6004 24.3287C75.7891 28.1324 67.5842 31.3501 59.4242 30.6511C57.5134 30.4866 55.6027 30.0342 53.9954 29.0371C52.7815 28.2866 51.5677 27.1763 51.77 25.7062C51.9048 24.7193 53.2086 23.5885 53.883 22.8689C56.2209 20.3914 59.0196 18.2736 62.1329 16.6493C69.0791 13.0204 77.3852 11.9513 85.0731 14.069C84.9495 13.8737 84.8371 13.6784 84.7134 13.4933C83.7806 19.6203 77.9247 23.311 72.3049 25.8707C65.6959 28.8828 58.3677 30.723 50.9607 30.6716C47.7349 30.6511 43.1829 30.6511 40.5753 28.6156C37.1472 25.953 39.4513 21.5016 42.1151 19.24C44.7115 17.0297 47.8361 15.2101 50.8371 13.5036C53.8043 11.8176 56.8728 10.2859 60.0648 8.95972C66.5389 6.2663 73.4963 4.43641 80.611 4.01492C82.252 3.9224 83.8929 3.89156 85.5339 3.94296C86.3432 3.9738 86.8827 3.89156 87.3323 4.53922C87.883 5.31023 87.9392 6.49246 87.883 7.37656C87.6695 10.8102 84.7247 13.6064 82.2295 15.9297C77.1941 20.597 71.1247 24.2979 65.089 27.7726C59.042 31.2576 52.5567 34.4342 45.442 35.5856C41.9353 36.151 37.7091 36.3977 34.888 34.0333C31.5948 31.2679 32.2804 27.4539 34.9891 24.596C39.1478 20.2166 44.8688 16.8961 50.5561 14.4391C56.322 11.9513 62.4701 10.2962 68.6857 9.05224C74.8338 7.81861 81.2404 6.65695 87.5234 6.17378C89.1981 6.05041 91.5809 6.05041 92.6262 7.49993C93.8401 9.17561 91.165 11.5709 90.0972 12.8148C88.0853 15.1484 85.8824 17.3484 83.5333 19.4045C78.8014 23.5474 73.4963 27.1044 67.8764 30.1679C62.324 33.2006 56.4457 35.8529 50.4324 38.0323C47.1617 39.2145 43.3852 40.3145 39.8784 39.3481C38.8781 39.0706 37.3495 38.6285 37.3944 37.3743C37.4169 36.6958 38.08 35.8015 38.406 35.2052C39.249 33.7043 40.283 32.3165 41.4744 31.0314C45.7905 26.3847 51.7587 22.9923 57.5359 20.0624C63.8189 16.8652 70.4953 14.3363 77.4189 12.5475C81.0943 11.6017 84.9158 10.7074 88.771 10.7896C89.5353 10.8102 90.648 10.7279 91.3336 11.0466C93.0645 11.8382 92.0979 13.1746 91.2999 14.1307C90.2546 15.3849 89.0969 16.5671 87.8606 17.6671C83.1624 21.8614 77.3402 24.8324 71.3495 27.1969C68.5058 28.3174 64.7068 30.1576 61.8407 28.2146C61.8744 28.4614 61.9082 28.7081 61.9419 28.9548C70.5402 21.697 81.1055 16.6391 92.6374 14.7064C92.4688 14.4494 92.3002 14.1821 92.1316 13.9251C84.4999 19.5175 76.4186 25.1511 67.0222 28.0399C64.8754 28.6978 62.6725 29.2118 60.4245 29.5202C59.4129 29.6641 58.244 29.8492 57.2212 29.623C54.9396 29.109 55.1306 26.9604 55.9736 25.4492C57.0301 23.5474 58.9634 22.1596 60.7055 20.8026C62.7511 19.2091 64.9091 17.7185 67.1796 16.3923C71.091 14.1101 75.3958 12.2905 79.9928 11.5503C84.0503 10.9027 89.3891 10.8307 92.6149 13.5858C96.7736 17.1325 93.5928 22.3549 90.2996 25.2745C86.8827 28.3072 82.6791 30.5071 78.1944 31.9052C74.0358 33.2006 69.6635 33.8276 65.2913 33.9613C60.7617 34.0949 56.367 33.7454 54.2539 29.6025C52.6691 26.4978 52.7253 22.5708 54.2202 19.4353C56.041 15.6316 59.8176 12.9485 63.8414 11.2522C68.1911 9.41205 73.1928 8.27095 77.9921 8.33263C80.2625 8.36347 83.9042 8.55879 85.7925 9.90551C87.9505 11.4475 87.0401 15.3335 86.332 17.3073C84.691 21.882 80.6784 25.0894 76.3399 27.5464C71.9227 30.0548 67.202 32.1828 62.3802 33.9613C58.4801 35.4005 54.1191 36.8089 49.848 36.1613C47.69 35.8323 45.2959 34.8248 44.082 33.0669C42.6209 30.9697 45.1723 27.8137 46.5435 26.138C52.1521 19.3119 60.6718 13.9868 69.1128 10.5634C73.249 8.88776 77.61 7.63357 82.0609 6.86255C84.2526 6.48218 86.5455 6.11209 88.7822 6.09153C89.7825 6.08125 91.1425 6.18406 91.7382 7.0476C92.5475 8.21954 91.1313 10.1625 90.4906 11.1905C85.6688 18.7979 76.1825 23.9072 67.5392 27.1969C65.325 28.0399 63.0546 28.8006 60.7392 29.3866C58.8847 29.8595 56.322 30.3221 54.8159 28.8931C51.163 25.4184 58.289 19.6512 60.8067 17.4615C67.1009 11.9924 76.6996 6.4719 85.8262 8.47655C92.1654 9.86438 88.7822 16.3307 86.6017 19.7437C84.4212 23.1362 81.4877 26.0763 78.1607 28.5642C74.9687 30.9595 71.4169 32.9333 67.7415 34.6501C66.123 35.4108 64.482 36.1099 62.8186 36.7781C61.807 37.179 60.447 37.9192 59.3005 37.8164C57.772 37.6725 58.244 37.2098 58.5362 36.4491C58.7948 35.7603 59.0982 35.0818 59.4354 34.4136C62.9647 27.4333 70.0906 22.6839 77.5987 19.6512C79.4308 18.911 81.364 18.14 83.3197 17.7082C84.9382 17.3587 86.6579 17.3073 87.9505 18.4073C89.6139 19.8157 88.962 21.6147 88.0067 23.1876C85.8711 26.7343 82.9601 29.9623 79.6668 32.6763C76.4298 35.3388 72.5858 37.7341 68.4721 39.1014C68.0001 39.2556 67.483 39.4304 66.9772 39.4407C65.5835 39.4612 65.2014 38.1248 65.7296 37.1276C66.2467 36.151 67.1121 35.2463 67.8652 34.4239C69.4837 32.666 71.3495 31.0828 73.4063 29.7669C75.1148 28.6772 76.9693 27.7212 78.925 27.0324C79.532 26.8165 80.6559 26.2408 80.9257 27.4642C81.0268 27.9268 80.4424 28.9754 80.2738 29.3249C79.7455 30.3735 79.1048 31.3809 78.3405 32.3062C77.6325 33.18 76.812 33.9921 75.9128 34.7015C75.362 35.1332 74.4404 36.079 73.5862 35.3902C73.2602 35.123 73.2939 34.3725 73.3164 34.0127C73.4288 31.8641 76.2837 28.5025 78.5653 30.7744C80.1277 32.3267 80.3075 34.8865 80.4311 36.8706C80.5772 39.307 80.3637 41.7332 79.8579 44.1182C79.7118 44.6939 80.7009 44.9509 80.8358 44.3546Z" fill="#4F3422"/>
<path d="M135.09 123.924C133.483 124.839 132.729 126.638 133.303 128.293C133.505 128.869 134.494 128.622 134.292 128.046C133.853 126.792 134.37 125.445 135.607 124.736C136.169 124.417 135.652 123.595 135.09 123.924Z" fill="#4F3422"/>
<path d="M143.508 125.055C141.643 125.723 140.406 127.285 140.328 129.126C140.305 129.732 141.339 129.732 141.362 129.126C141.418 127.738 142.362 126.473 143.778 125.969C144.396 125.743 144.127 124.839 143.508 125.055Z" fill="#4F3422"/>
<path d="M118.612 124.129C119.512 122.772 121.096 122.022 122.827 122.094C123.49 122.125 123.49 121.179 122.827 121.148C120.737 121.056 118.803 122.022 117.724 123.656C117.387 124.17 118.275 124.643 118.612 124.129Z" fill="#4F3422"/>
<path d="M146.217 116.296C149.499 114.671 153.085 113.643 156.794 113.212C158.704 112.986 160.626 112.914 162.548 112.996C163.504 113.037 164.448 113.109 165.392 113.222C166.066 113.304 167.91 113.345 168.472 113.736C169.596 114.528 167.044 114.6 166.426 114.661C165.516 114.754 164.617 114.815 163.706 114.877C161.784 115 159.862 115.093 157.94 115.227C154.355 115.494 150.78 115.946 147.409 117.159C146.88 117.355 146.937 118.054 147.543 118.085C152.096 118.3 156.614 117.056 161.143 117.745C165.201 118.362 168.989 120.192 171.608 123.101C171.608 122.875 171.608 122.659 171.608 122.433C170.315 123.759 167.696 123.07 166.055 122.813C164.032 122.495 162.02 122.135 160.019 121.734C156.029 120.932 152.096 119.956 148.195 118.845C147.566 118.66 147.296 119.575 147.926 119.75C152.646 121.107 157.434 122.238 162.279 123.132C164.302 123.502 166.37 123.934 168.416 124.098C169.832 124.212 171.327 124.129 172.327 123.112C172.529 122.906 172.507 122.649 172.327 122.443C169.719 119.544 165.965 117.663 161.953 116.933C157.131 116.059 152.365 117.385 147.532 117.149C147.577 117.457 147.622 117.766 147.667 118.074C152.388 116.368 157.468 116.193 162.47 115.895C163.425 115.833 171.844 115.977 169.877 113.417C169.101 112.41 166.628 112.43 165.437 112.286C163.122 112.009 160.773 111.947 158.446 112.112C153.984 112.42 149.634 113.53 145.689 115.484C145.116 115.771 145.633 116.584 146.217 116.296Z" fill="#4F3422"/>
</svg>
