<svg width="32" height="32" viewBox="0 0 24 24" fill="none" xmlns="http://www.w3.org/2000/svg">
<path fill-rule="evenodd" clip-rule="evenodd" d="M2 12C2 6.47715 6.47715 2 12 2C17.5228 2 22 6.47715 22 12C22 17.5228 17.5228 22 12 22C6.47715 22 2 17.5228 2 12ZM12.689 14.9756L17.7241 9.68972L16.2759 8.31028L11.2408 13.5961C11.0024 13.8464 10.8404 13.9181 10.5713 13.9743C10.3246 14.0258 10.0682 13.9998 9.83254 13.8973C9.59619 13.7946 9.38626 13.617 9.23504 13.3794C9.08354 13.1414 9 12.8567 9 12.5618H7C7 13.2313 7.1889 13.8894 7.54781 14.4533C7.90701 15.0177 8.42255 15.4651 9.035 15.7314C9.64809 15.998 10.3258 16.0687 10.9801 15.932C11.612 15.8001 12.1475 15.544 12.689 14.9756Z" fill="#9bb168"/>
</svg>
